<mxfile host="Electron" agent="Mozilla/5.0 (Windows NT 10.0; Win64; x64) AppleWebKit/537.36 (KHTML, like Gecko) draw.io/26.2.2 Chrome/134.0.6998.178 Electron/35.1.2 Safari/537.36" version="26.2.2">
  <diagram name="Page-1" id="QuL-fuWx1Q0Z7A65WH-5">
    <mxGraphModel dx="6630" dy="3503" grid="1" gridSize="10" guides="1" tooltips="1" connect="1" arrows="1" fold="1" page="1" pageScale="1" pageWidth="850" pageHeight="1100" math="0" shadow="0">
      <root>
        <mxCell id="0" />
        <mxCell id="1" parent="0" />
        <mxCell id="aFHCa9Fqep3gOD8w5vNJ-30" value="Log Search Function" style="swimlane;horizontal=0;whiteSpace=wrap;html=1;labelBackgroundColor=none;fillColor=#FAE5C7;strokeColor=#0F8B8D;fontColor=#143642;" parent="1" vertex="1">
          <mxGeometry x="-950" y="1610" width="1740" height="790" as="geometry" />
        </mxCell>
        <mxCell id="aFHCa9Fqep3gOD8w5vNJ-31" value="Client Portion" style="swimlane;whiteSpace=wrap;html=1;labelBackgroundColor=none;fillColor=#FAE5C7;strokeColor=#0F8B8D;fontColor=#143642;" parent="aFHCa9Fqep3gOD8w5vNJ-30" vertex="1">
          <mxGeometry x="40" y="20" width="800" height="750" as="geometry" />
        </mxCell>
        <mxCell id="QFYjU4arNapdDsSCycNz-11" value="" style="edgeStyle=orthogonalEdgeStyle;rounded=0;orthogonalLoop=1;jettySize=auto;html=1;labelBackgroundColor=none;strokeColor=#A8201A;fontColor=default;" parent="aFHCa9Fqep3gOD8w5vNJ-31" source="aFHCa9Fqep3gOD8w5vNJ-33" target="QFYjU4arNapdDsSCycNz-10" edge="1">
          <mxGeometry relative="1" as="geometry" />
        </mxCell>
        <mxCell id="aFHCa9Fqep3gOD8w5vNJ-33" value="Client Sends Request" style="ellipse;shape=cloud;whiteSpace=wrap;html=1;labelBackgroundColor=none;fillColor=#FAE5C7;strokeColor=#0F8B8D;fontColor=#143642;" parent="aFHCa9Fqep3gOD8w5vNJ-31" vertex="1">
          <mxGeometry x="580" y="110" width="190" height="125" as="geometry" />
        </mxCell>
        <mxCell id="QFYjU4arNapdDsSCycNz-4" value="" style="edgeStyle=orthogonalEdgeStyle;rounded=0;orthogonalLoop=1;jettySize=auto;html=1;labelBackgroundColor=none;strokeColor=#A8201A;fontColor=default;" parent="aFHCa9Fqep3gOD8w5vNJ-31" source="QFYjU4arNapdDsSCycNz-2" target="QFYjU4arNapdDsSCycNz-3" edge="1">
          <mxGeometry relative="1" as="geometry" />
        </mxCell>
        <mxCell id="QFYjU4arNapdDsSCycNz-2" value="Search Page Entered" style="ellipse;whiteSpace=wrap;html=1;labelBackgroundColor=none;fillColor=#FAE5C7;strokeColor=#0F8B8D;fontColor=#143642;" parent="aFHCa9Fqep3gOD8w5vNJ-31" vertex="1">
          <mxGeometry x="10" y="132.5" width="120" height="80" as="geometry" />
        </mxCell>
        <mxCell id="QFYjU4arNapdDsSCycNz-8" value="" style="edgeStyle=orthogonalEdgeStyle;rounded=0;orthogonalLoop=1;jettySize=auto;html=1;labelBackgroundColor=none;strokeColor=#A8201A;fontColor=default;" parent="aFHCa9Fqep3gOD8w5vNJ-31" source="QFYjU4arNapdDsSCycNz-3" target="QFYjU4arNapdDsSCycNz-7" edge="1">
          <mxGeometry relative="1" as="geometry" />
        </mxCell>
        <mxCell id="QFYjU4arNapdDsSCycNz-3" value="User Selects Time Date And String" style="whiteSpace=wrap;html=1;labelBackgroundColor=none;fillColor=#FAE5C7;strokeColor=#0F8B8D;fontColor=#143642;" parent="aFHCa9Fqep3gOD8w5vNJ-31" vertex="1">
          <mxGeometry x="210" y="142.5" width="120" height="60" as="geometry" />
        </mxCell>
        <mxCell id="QFYjU4arNapdDsSCycNz-7" value="HTTPGet Is Created And Send" style="whiteSpace=wrap;html=1;labelBackgroundColor=none;fillColor=#FAE5C7;strokeColor=#0F8B8D;fontColor=#143642;" parent="aFHCa9Fqep3gOD8w5vNJ-31" vertex="1">
          <mxGeometry x="410" y="142.5" width="120" height="60" as="geometry" />
        </mxCell>
        <mxCell id="QFYjU4arNapdDsSCycNz-9" style="edgeStyle=orthogonalEdgeStyle;rounded=0;orthogonalLoop=1;jettySize=auto;html=1;entryX=0.16;entryY=0.55;entryDx=0;entryDy=0;entryPerimeter=0;labelBackgroundColor=none;strokeColor=#A8201A;fontColor=default;" parent="aFHCa9Fqep3gOD8w5vNJ-31" source="QFYjU4arNapdDsSCycNz-7" target="aFHCa9Fqep3gOD8w5vNJ-33" edge="1">
          <mxGeometry relative="1" as="geometry" />
        </mxCell>
        <mxCell id="QFYjU4arNapdDsSCycNz-10" value="Returned list is parsed and added to dialog box." style="whiteSpace=wrap;html=1;labelBackgroundColor=none;fillColor=#FAE5C7;strokeColor=#0F8B8D;fontColor=#143642;" parent="aFHCa9Fqep3gOD8w5vNJ-31" vertex="1">
          <mxGeometry x="615" y="347.5" width="120" height="60" as="geometry" />
        </mxCell>
        <mxCell id="aFHCa9Fqep3gOD8w5vNJ-6" value="HTTPGet" style="edgeStyle=orthogonalEdgeStyle;rounded=0;orthogonalLoop=1;jettySize=auto;html=1;exitX=0.88;exitY=0.25;exitDx=0;exitDy=0;exitPerimeter=0;entryX=0;entryY=0.25;entryDx=0;entryDy=0;labelBackgroundColor=none;strokeColor=#A8201A;fontColor=default;" parent="aFHCa9Fqep3gOD8w5vNJ-30" source="aFHCa9Fqep3gOD8w5vNJ-2" target="aFHCa9Fqep3gOD8w5vNJ-5" edge="1">
          <mxGeometry x="-0.2981" relative="1" as="geometry">
            <mxPoint as="offset" />
          </mxGeometry>
        </mxCell>
        <mxCell id="aFHCa9Fqep3gOD8w5vNJ-2" value="Client Request Recieved" style="ellipse;shape=cloud;whiteSpace=wrap;html=1;labelBackgroundColor=none;fillColor=#FAE5C7;strokeColor=#0F8B8D;fontColor=#143642;" parent="aFHCa9Fqep3gOD8w5vNJ-30" vertex="1">
          <mxGeometry x="840" y="122.5" width="190" height="125" as="geometry" />
        </mxCell>
        <mxCell id="aFHCa9Fqep3gOD8w5vNJ-14" value="" style="edgeStyle=orthogonalEdgeStyle;rounded=0;orthogonalLoop=1;jettySize=auto;html=1;labelBackgroundColor=none;strokeColor=#A8201A;fontColor=default;" parent="aFHCa9Fqep3gOD8w5vNJ-30" source="aFHCa9Fqep3gOD8w5vNJ-5" target="aFHCa9Fqep3gOD8w5vNJ-13" edge="1">
          <mxGeometry relative="1" as="geometry" />
        </mxCell>
        <mxCell id="aFHCa9Fqep3gOD8w5vNJ-5" value="Define Locals" style="whiteSpace=wrap;html=1;labelBackgroundColor=none;fillColor=#FAE5C7;strokeColor=#0F8B8D;fontColor=#143642;" parent="aFHCa9Fqep3gOD8w5vNJ-30" vertex="1">
          <mxGeometry x="1170" y="155" width="120" height="60" as="geometry" />
        </mxCell>
        <mxCell id="aFHCa9Fqep3gOD8w5vNJ-9" value="" style="endArrow=none;dashed=1;html=1;dashPattern=1 3;strokeWidth=2;rounded=0;exitX=0.5;exitY=0;exitDx=0;exitDy=0;labelBackgroundColor=none;strokeColor=#A8201A;fontColor=default;" parent="aFHCa9Fqep3gOD8w5vNJ-30" source="aFHCa9Fqep3gOD8w5vNJ-10" edge="1">
          <mxGeometry width="50" height="50" relative="1" as="geometry">
            <mxPoint x="1080" y="270" as="sourcePoint" />
            <mxPoint x="1080" y="210" as="targetPoint" />
          </mxGeometry>
        </mxCell>
        <mxCell id="aFHCa9Fqep3gOD8w5vNJ-11" value="" style="endArrow=none;dashed=1;html=1;dashPattern=1 3;strokeWidth=2;rounded=0;labelBackgroundColor=none;strokeColor=#A8201A;fontColor=default;" parent="aFHCa9Fqep3gOD8w5vNJ-30" target="aFHCa9Fqep3gOD8w5vNJ-12" edge="1">
          <mxGeometry width="50" height="50" relative="1" as="geometry">
            <mxPoint x="1065" y="150" as="sourcePoint" />
            <mxPoint x="1070" y="150" as="targetPoint" />
          </mxGeometry>
        </mxCell>
        <mxCell id="aFHCa9Fqep3gOD8w5vNJ-12" value="string searchText&lt;div&gt;DateTime startDate&lt;/div&gt;&lt;div&gt;DateTime&amp;nbsp;&lt;span style=&quot;background-color: transparent; color: light-dark(rgb(0, 0, 0), rgb(255, 255, 255));&quot;&gt;endDate&lt;/span&gt;&lt;/div&gt;" style="text;html=1;align=center;verticalAlign=middle;whiteSpace=wrap;rounded=0;labelBackgroundColor=none;fontColor=#143642;" parent="aFHCa9Fqep3gOD8w5vNJ-30" vertex="1">
          <mxGeometry x="950" y="50" width="230" height="50" as="geometry" />
        </mxCell>
        <mxCell id="aFHCa9Fqep3gOD8w5vNJ-18" style="edgeStyle=orthogonalEdgeStyle;rounded=0;orthogonalLoop=1;jettySize=auto;html=1;labelBackgroundColor=none;strokeColor=#A8201A;fontColor=default;" parent="aFHCa9Fqep3gOD8w5vNJ-30" source="aFHCa9Fqep3gOD8w5vNJ-13" target="aFHCa9Fqep3gOD8w5vNJ-17" edge="1">
          <mxGeometry relative="1" as="geometry">
            <Array as="points">
              <mxPoint x="1540" y="185" />
              <mxPoint x="1540" y="290" />
              <mxPoint x="1210" y="290" />
            </Array>
          </mxGeometry>
        </mxCell>
        <mxCell id="aFHCa9Fqep3gOD8w5vNJ-13" value="Create Path Range" style="whiteSpace=wrap;html=1;labelBackgroundColor=none;fillColor=#FAE5C7;strokeColor=#0F8B8D;fontColor=#143642;" parent="aFHCa9Fqep3gOD8w5vNJ-30" vertex="1">
          <mxGeometry x="1370" y="155" width="120" height="60" as="geometry" />
        </mxCell>
        <mxCell id="aFHCa9Fqep3gOD8w5vNJ-20" style="edgeStyle=orthogonalEdgeStyle;rounded=0;orthogonalLoop=1;jettySize=auto;html=1;labelBackgroundColor=none;strokeColor=#A8201A;fontColor=default;" parent="aFHCa9Fqep3gOD8w5vNJ-30" source="aFHCa9Fqep3gOD8w5vNJ-17" target="aFHCa9Fqep3gOD8w5vNJ-19" edge="1">
          <mxGeometry relative="1" as="geometry" />
        </mxCell>
        <mxCell id="aFHCa9Fqep3gOD8w5vNJ-24" style="edgeStyle=orthogonalEdgeStyle;rounded=0;orthogonalLoop=1;jettySize=auto;html=1;entryX=0;entryY=0.5;entryDx=0;entryDy=0;labelBackgroundColor=none;strokeColor=#A8201A;fontColor=default;" parent="aFHCa9Fqep3gOD8w5vNJ-30" source="aFHCa9Fqep3gOD8w5vNJ-17" target="aFHCa9Fqep3gOD8w5vNJ-23" edge="1">
          <mxGeometry relative="1" as="geometry">
            <Array as="points">
              <mxPoint x="1210" y="515" />
            </Array>
          </mxGeometry>
        </mxCell>
        <mxCell id="aFHCa9Fqep3gOD8w5vNJ-17" value="Loop Directories" style="triangle;whiteSpace=wrap;html=1;labelBackgroundColor=none;fillColor=#FAE5C7;strokeColor=#0F8B8D;fontColor=#143642;" parent="aFHCa9Fqep3gOD8w5vNJ-30" vertex="1">
          <mxGeometry x="1170" y="310" width="100" height="80" as="geometry" />
        </mxCell>
        <mxCell id="aFHCa9Fqep3gOD8w5vNJ-22" style="edgeStyle=orthogonalEdgeStyle;rounded=0;orthogonalLoop=1;jettySize=auto;html=1;entryX=0;entryY=0.5;entryDx=0;entryDy=0;labelBackgroundColor=none;strokeColor=#A8201A;fontColor=default;" parent="aFHCa9Fqep3gOD8w5vNJ-30" source="aFHCa9Fqep3gOD8w5vNJ-19" target="aFHCa9Fqep3gOD8w5vNJ-21" edge="1">
          <mxGeometry relative="1" as="geometry">
            <Array as="points">
              <mxPoint x="1510" y="350" />
              <mxPoint x="1510" y="350" />
            </Array>
          </mxGeometry>
        </mxCell>
        <mxCell id="aFHCa9Fqep3gOD8w5vNJ-25" style="edgeStyle=orthogonalEdgeStyle;rounded=0;orthogonalLoop=1;jettySize=auto;html=1;entryX=0.5;entryY=0;entryDx=0;entryDy=0;labelBackgroundColor=none;strokeColor=#A8201A;fontColor=default;" parent="aFHCa9Fqep3gOD8w5vNJ-30" source="aFHCa9Fqep3gOD8w5vNJ-19" target="aFHCa9Fqep3gOD8w5vNJ-23" edge="1">
          <mxGeometry relative="1" as="geometry" />
        </mxCell>
        <mxCell id="aFHCa9Fqep3gOD8w5vNJ-19" value="Loop Files" style="triangle;whiteSpace=wrap;html=1;labelBackgroundColor=none;fillColor=#FAE5C7;strokeColor=#0F8B8D;fontColor=#143642;" parent="aFHCa9Fqep3gOD8w5vNJ-30" vertex="1">
          <mxGeometry x="1370" y="310" width="90" height="80" as="geometry" />
        </mxCell>
        <mxCell id="aFHCa9Fqep3gOD8w5vNJ-26" style="edgeStyle=orthogonalEdgeStyle;rounded=0;orthogonalLoop=1;jettySize=auto;html=1;entryX=1;entryY=0.5;entryDx=0;entryDy=0;labelBackgroundColor=none;strokeColor=#A8201A;fontColor=default;" parent="aFHCa9Fqep3gOD8w5vNJ-30" source="aFHCa9Fqep3gOD8w5vNJ-21" target="aFHCa9Fqep3gOD8w5vNJ-23" edge="1">
          <mxGeometry relative="1" as="geometry">
            <Array as="points">
              <mxPoint x="1600" y="515" />
            </Array>
          </mxGeometry>
        </mxCell>
        <mxCell id="aFHCa9Fqep3gOD8w5vNJ-21" value="Loop All Lines" style="triangle;whiteSpace=wrap;html=1;labelBackgroundColor=none;fillColor=#FAE5C7;strokeColor=#0F8B8D;fontColor=#143642;" parent="aFHCa9Fqep3gOD8w5vNJ-30" vertex="1">
          <mxGeometry x="1560" y="310" width="90" height="80" as="geometry" />
        </mxCell>
        <mxCell id="aFHCa9Fqep3gOD8w5vNJ-29" value="Return" style="edgeStyle=orthogonalEdgeStyle;rounded=0;orthogonalLoop=1;jettySize=auto;html=1;entryX=0.96;entryY=0.7;entryDx=0;entryDy=0;entryPerimeter=0;labelBackgroundColor=none;strokeColor=#A8201A;fontColor=default;" parent="aFHCa9Fqep3gOD8w5vNJ-30" source="aFHCa9Fqep3gOD8w5vNJ-23" target="aFHCa9Fqep3gOD8w5vNJ-2" edge="1">
          <mxGeometry x="0.8649" relative="1" as="geometry">
            <mxPoint x="990" y="449.9999999999998" as="targetPoint" />
            <Array as="points">
              <mxPoint x="1415" y="630" />
              <mxPoint x="1160" y="630" />
              <mxPoint x="1160" y="210" />
            </Array>
            <mxPoint x="1" as="offset" />
          </mxGeometry>
        </mxCell>
        <mxCell id="aFHCa9Fqep3gOD8w5vNJ-23" value="Check For Matches and&amp;nbsp;&lt;div&gt;Add To Find List&lt;/div&gt;" style="rhombus;whiteSpace=wrap;html=1;labelBackgroundColor=none;fillColor=#FAE5C7;strokeColor=#0F8B8D;fontColor=#143642;" parent="aFHCa9Fqep3gOD8w5vNJ-30" vertex="1">
          <mxGeometry x="1330" y="440" width="170" height="150" as="geometry" />
        </mxCell>
        <mxCell id="aFHCa9Fqep3gOD8w5vNJ-28" value="Server Portion" style="swimlane;whiteSpace=wrap;html=1;labelBackgroundColor=none;fillColor=#FAE5C7;strokeColor=#0F8B8D;fontColor=#143642;" parent="aFHCa9Fqep3gOD8w5vNJ-30" vertex="1">
          <mxGeometry x="840" y="20" width="880" height="750" as="geometry" />
        </mxCell>
        <mxCell id="aFHCa9Fqep3gOD8w5vNJ-10" value="List&amp;lt;string&amp;gt;&lt;div&gt;&lt;br&gt;&lt;div&gt;A single entry that says &quot;ERROR&quot; if an issue occurs.&lt;/div&gt;&lt;/div&gt;" style="text;html=1;align=center;verticalAlign=middle;whiteSpace=wrap;rounded=0;labelBackgroundColor=none;fontColor=#143642;" parent="aFHCa9Fqep3gOD8w5vNJ-28" vertex="1">
          <mxGeometry x="160" y="250" width="160" height="60" as="geometry" />
        </mxCell>
        <mxCell id="QFYjU4arNapdDsSCycNz-5" style="edgeStyle=orthogonalEdgeStyle;rounded=0;orthogonalLoop=1;jettySize=auto;html=1;exitX=0.098;exitY=0.688;exitDx=0;exitDy=0;exitPerimeter=0;entryX=0.96;entryY=0.7;entryDx=0;entryDy=0;entryPerimeter=0;labelBackgroundColor=none;strokeColor=#A8201A;fontColor=default;" parent="aFHCa9Fqep3gOD8w5vNJ-30" source="aFHCa9Fqep3gOD8w5vNJ-2" target="aFHCa9Fqep3gOD8w5vNJ-33" edge="1">
          <mxGeometry relative="1" as="geometry">
            <Array as="points">
              <mxPoint x="859" y="210" />
              <mxPoint x="820" y="210" />
              <mxPoint x="820" y="218" />
            </Array>
          </mxGeometry>
        </mxCell>
        <mxCell id="QFYjU4arNapdDsSCycNz-6" style="edgeStyle=orthogonalEdgeStyle;rounded=0;orthogonalLoop=1;jettySize=auto;html=1;exitX=0.88;exitY=0.25;exitDx=0;exitDy=0;exitPerimeter=0;entryX=0.07;entryY=0.4;entryDx=0;entryDy=0;entryPerimeter=0;labelBackgroundColor=none;strokeColor=#A8201A;fontColor=default;" parent="aFHCa9Fqep3gOD8w5vNJ-30" source="aFHCa9Fqep3gOD8w5vNJ-33" target="aFHCa9Fqep3gOD8w5vNJ-2" edge="1">
          <mxGeometry relative="1" as="geometry" />
        </mxCell>
        <mxCell id="QFYjU4arNapdDsSCycNz-12" value="Error Information" style="swimlane;horizontal=0;whiteSpace=wrap;html=1;labelBackgroundColor=none;fillColor=#FAE5C7;strokeColor=#0F8B8D;fontColor=#143642;" parent="1" vertex="1">
          <mxGeometry x="-950" width="1740" height="795" as="geometry" />
        </mxCell>
        <mxCell id="QFYjU4arNapdDsSCycNz-13" value="Client Portion" style="swimlane;whiteSpace=wrap;html=1;labelBackgroundColor=none;fillColor=#FAE5C7;strokeColor=#0F8B8D;fontColor=#143642;" parent="QFYjU4arNapdDsSCycNz-12" vertex="1">
          <mxGeometry x="40" y="20" width="800" height="775" as="geometry" />
        </mxCell>
        <mxCell id="QFYjU4arNapdDsSCycNz-51" value="List Of Errors and Occurances&amp;nbsp;&lt;div&gt;Back With Deliminator&lt;/div&gt;" style="edgeStyle=orthogonalEdgeStyle;rounded=0;orthogonalLoop=1;jettySize=auto;html=1;exitX=0.25;exitY=0.25;exitDx=0;exitDy=0;exitPerimeter=0;entryX=1;entryY=0.5;entryDx=0;entryDy=0;labelBackgroundColor=none;strokeColor=#A8201A;fontColor=default;" parent="QFYjU4arNapdDsSCycNz-13" source="QFYjU4arNapdDsSCycNz-15" target="QFYjU4arNapdDsSCycNz-70" edge="1">
          <mxGeometry x="0.1814" relative="1" as="geometry">
            <Array as="points">
              <mxPoint x="628" y="90" />
            </Array>
            <mxPoint as="offset" />
          </mxGeometry>
        </mxCell>
        <mxCell id="QFYjU4arNapdDsSCycNz-15" value="Client Sends Request" style="ellipse;shape=cloud;whiteSpace=wrap;html=1;labelBackgroundColor=none;fillColor=#FAE5C7;strokeColor=#0F8B8D;fontColor=#143642;" parent="QFYjU4arNapdDsSCycNz-13" vertex="1">
          <mxGeometry x="580" y="110" width="190" height="125" as="geometry" />
        </mxCell>
        <mxCell id="QFYjU4arNapdDsSCycNz-73" style="edgeStyle=orthogonalEdgeStyle;rounded=0;orthogonalLoop=1;jettySize=auto;html=1;entryX=0;entryY=0.5;entryDx=0;entryDy=0;labelBackgroundColor=none;strokeColor=#A8201A;fontColor=default;" parent="QFYjU4arNapdDsSCycNz-13" source="QFYjU4arNapdDsSCycNz-17" target="QFYjU4arNapdDsSCycNz-19" edge="1">
          <mxGeometry relative="1" as="geometry">
            <Array as="points">
              <mxPoint x="70" y="450" />
              <mxPoint x="170" y="450" />
              <mxPoint x="170" y="448" />
            </Array>
          </mxGeometry>
        </mxCell>
        <mxCell id="AWsSGq5rg7necu_DQJhj-2" style="edgeStyle=orthogonalEdgeStyle;rounded=0;orthogonalLoop=1;jettySize=auto;html=1;exitX=1;exitY=1;exitDx=0;exitDy=0;entryX=0;entryY=0.5;entryDx=0;entryDy=0;labelBackgroundColor=none;strokeColor=#A8201A;fontColor=default;" parent="QFYjU4arNapdDsSCycNz-13" source="QFYjU4arNapdDsSCycNz-17" target="AWsSGq5rg7necu_DQJhj-3" edge="1">
          <mxGeometry relative="1" as="geometry">
            <mxPoint x="112.57142857142844" y="390.0000000000002" as="targetPoint" />
            <Array as="points">
              <mxPoint x="112" y="170" />
              <mxPoint x="160" y="170" />
              <mxPoint x="160" y="380" />
            </Array>
          </mxGeometry>
        </mxCell>
        <mxCell id="QFYjU4arNapdDsSCycNz-17" value="Error Page Entered" style="ellipse;whiteSpace=wrap;html=1;labelBackgroundColor=none;fillColor=#FAE5C7;strokeColor=#0F8B8D;fontColor=#143642;" parent="QFYjU4arNapdDsSCycNz-13" vertex="1">
          <mxGeometry x="10" y="132.5" width="120" height="80" as="geometry" />
        </mxCell>
        <mxCell id="AWsSGq5rg7necu_DQJhj-1" style="edgeStyle=orthogonalEdgeStyle;rounded=0;orthogonalLoop=1;jettySize=auto;html=1;labelBackgroundColor=none;strokeColor=#A8201A;fontColor=default;" parent="QFYjU4arNapdDsSCycNz-13" source="QFYjU4arNapdDsSCycNz-19" target="QFYjU4arNapdDsSCycNz-78" edge="1">
          <mxGeometry relative="1" as="geometry" />
        </mxCell>
        <mxCell id="QFYjU4arNapdDsSCycNz-19" value="User Selects Error And TimeFrame" style="whiteSpace=wrap;html=1;labelBackgroundColor=none;fillColor=#FAE5C7;strokeColor=#0F8B8D;fontColor=#143642;" parent="QFYjU4arNapdDsSCycNz-13" vertex="1">
          <mxGeometry x="190" y="417.5" width="120" height="60" as="geometry" />
        </mxCell>
        <mxCell id="QFYjU4arNapdDsSCycNz-50" value="HTTP Get Request For First Time Data" style="edgeStyle=orthogonalEdgeStyle;rounded=0;orthogonalLoop=1;jettySize=auto;html=1;entryX=0.625;entryY=0.2;entryDx=0;entryDy=0;entryPerimeter=0;exitX=0;exitY=0;exitDx=0;exitDy=0;labelBackgroundColor=none;strokeColor=#A8201A;fontColor=default;" parent="QFYjU4arNapdDsSCycNz-13" source="QFYjU4arNapdDsSCycNz-17" target="QFYjU4arNapdDsSCycNz-15" edge="1">
          <mxGeometry relative="1" as="geometry">
            <Array as="points">
              <mxPoint x="28" y="50" />
              <mxPoint x="699" y="50" />
            </Array>
          </mxGeometry>
        </mxCell>
        <mxCell id="QFYjU4arNapdDsSCycNz-72" style="edgeStyle=orthogonalEdgeStyle;rounded=0;orthogonalLoop=1;jettySize=auto;html=1;exitX=0;exitY=0.5;exitDx=0;exitDy=0;labelBackgroundColor=none;strokeColor=#A8201A;fontColor=default;" parent="QFYjU4arNapdDsSCycNz-13" source="QFYjU4arNapdDsSCycNz-70" target="QFYjU4arNapdDsSCycNz-17" edge="1">
          <mxGeometry relative="1" as="geometry" />
        </mxCell>
        <mxCell id="QFYjU4arNapdDsSCycNz-70" value="Display Overview Bargraphs For Last 24 Hours" style="whiteSpace=wrap;html=1;labelBackgroundColor=none;fillColor=#FAE5C7;strokeColor=#0F8B8D;fontColor=#143642;" parent="QFYjU4arNapdDsSCycNz-13" vertex="1">
          <mxGeometry x="290" y="60" width="120" height="60" as="geometry" />
        </mxCell>
        <mxCell id="QFYjU4arNapdDsSCycNz-91" value="" style="edgeStyle=orthogonalEdgeStyle;rounded=0;orthogonalLoop=1;jettySize=auto;html=1;labelBackgroundColor=none;strokeColor=#A8201A;fontColor=default;" parent="QFYjU4arNapdDsSCycNz-13" source="QFYjU4arNapdDsSCycNz-74" target="QFYjU4arNapdDsSCycNz-90" edge="1">
          <mxGeometry relative="1" as="geometry" />
        </mxCell>
        <mxCell id="QFYjU4arNapdDsSCycNz-74" value="Client Sends Request" style="ellipse;shape=cloud;whiteSpace=wrap;html=1;labelBackgroundColor=none;fillColor=#FAE5C7;strokeColor=#0F8B8D;fontColor=#143642;" parent="QFYjU4arNapdDsSCycNz-13" vertex="1">
          <mxGeometry x="580" y="477.5" width="190" height="125" as="geometry" />
        </mxCell>
        <mxCell id="QFYjU4arNapdDsSCycNz-75" value="Client Request Recieved" style="ellipse;shape=cloud;whiteSpace=wrap;html=1;labelBackgroundColor=none;fillColor=#FAE5C7;strokeColor=#0F8B8D;fontColor=#143642;" parent="QFYjU4arNapdDsSCycNz-13" vertex="1">
          <mxGeometry x="800" y="470" width="190" height="125" as="geometry" />
        </mxCell>
        <mxCell id="QFYjU4arNapdDsSCycNz-76" style="edgeStyle=orthogonalEdgeStyle;rounded=0;orthogonalLoop=1;jettySize=auto;html=1;exitX=0.098;exitY=0.688;exitDx=0;exitDy=0;exitPerimeter=0;entryX=0.96;entryY=0.7;entryDx=0;entryDy=0;entryPerimeter=0;labelBackgroundColor=none;strokeColor=#A8201A;fontColor=default;" parent="QFYjU4arNapdDsSCycNz-13" source="QFYjU4arNapdDsSCycNz-75" target="QFYjU4arNapdDsSCycNz-74" edge="1">
          <mxGeometry relative="1" as="geometry">
            <Array as="points">
              <mxPoint x="819" y="557.5" />
              <mxPoint x="780" y="557.5" />
              <mxPoint x="780" y="565.5" />
            </Array>
          </mxGeometry>
        </mxCell>
        <mxCell id="QFYjU4arNapdDsSCycNz-77" style="edgeStyle=orthogonalEdgeStyle;rounded=0;orthogonalLoop=1;jettySize=auto;html=1;exitX=0.88;exitY=0.25;exitDx=0;exitDy=0;exitPerimeter=0;entryX=0.07;entryY=0.4;entryDx=0;entryDy=0;entryPerimeter=0;labelBackgroundColor=none;strokeColor=#A8201A;fontColor=default;" parent="QFYjU4arNapdDsSCycNz-13" source="QFYjU4arNapdDsSCycNz-74" target="QFYjU4arNapdDsSCycNz-75" edge="1">
          <mxGeometry relative="1" as="geometry" />
        </mxCell>
        <mxCell id="QFYjU4arNapdDsSCycNz-78" value="HTTPGet Is Created" style="whiteSpace=wrap;html=1;labelBackgroundColor=none;fillColor=#FAE5C7;strokeColor=#0F8B8D;fontColor=#143642;" parent="QFYjU4arNapdDsSCycNz-13" vertex="1">
          <mxGeometry x="380" y="520" width="120" height="60" as="geometry" />
        </mxCell>
        <mxCell id="QFYjU4arNapdDsSCycNz-82" style="edgeStyle=orthogonalEdgeStyle;rounded=0;orthogonalLoop=1;jettySize=auto;html=1;entryX=0.16;entryY=0.55;entryDx=0;entryDy=0;entryPerimeter=0;labelBackgroundColor=none;strokeColor=#A8201A;fontColor=default;" parent="QFYjU4arNapdDsSCycNz-13" source="QFYjU4arNapdDsSCycNz-78" target="QFYjU4arNapdDsSCycNz-74" edge="1">
          <mxGeometry relative="1" as="geometry" />
        </mxCell>
        <mxCell id="QFYjU4arNapdDsSCycNz-90" value="Map To Individual Graph (Bar Or Line)" style="whiteSpace=wrap;html=1;labelBackgroundColor=none;fillColor=#FAE5C7;strokeColor=#0F8B8D;fontColor=#143642;" parent="QFYjU4arNapdDsSCycNz-13" vertex="1">
          <mxGeometry x="615" y="660" width="120" height="60" as="geometry" />
        </mxCell>
        <mxCell id="AWsSGq5rg7necu_DQJhj-5" style="edgeStyle=orthogonalEdgeStyle;rounded=0;orthogonalLoop=1;jettySize=auto;html=1;entryX=0;entryY=0.5;entryDx=0;entryDy=0;labelBackgroundColor=none;strokeColor=#A8201A;fontColor=default;" parent="QFYjU4arNapdDsSCycNz-13" source="AWsSGq5rg7necu_DQJhj-3" target="AWsSGq5rg7necu_DQJhj-7" edge="1">
          <mxGeometry relative="1" as="geometry" />
        </mxCell>
        <mxCell id="AWsSGq5rg7necu_DQJhj-3" value="User Selects Timeframe" style="whiteSpace=wrap;html=1;labelBackgroundColor=none;fillColor=#FAE5C7;strokeColor=#0F8B8D;fontColor=#143642;" parent="QFYjU4arNapdDsSCycNz-13" vertex="1">
          <mxGeometry x="190" y="350" width="120" height="60" as="geometry" />
        </mxCell>
        <mxCell id="AWsSGq5rg7necu_DQJhj-4" value="HTTPGet Is Created" style="whiteSpace=wrap;html=1;labelBackgroundColor=none;fillColor=#FAE5C7;strokeColor=#0F8B8D;fontColor=#143642;" parent="QFYjU4arNapdDsSCycNz-13" vertex="1">
          <mxGeometry x="480" y="350" width="120" height="60" as="geometry" />
        </mxCell>
        <mxCell id="AWsSGq5rg7necu_DQJhj-6" style="edgeStyle=orthogonalEdgeStyle;rounded=0;orthogonalLoop=1;jettySize=auto;html=1;entryX=0.16;entryY=0.55;entryDx=0;entryDy=0;entryPerimeter=0;labelBackgroundColor=none;strokeColor=#A8201A;fontColor=default;" parent="QFYjU4arNapdDsSCycNz-13" source="AWsSGq5rg7necu_DQJhj-4" target="QFYjU4arNapdDsSCycNz-74" edge="1">
          <mxGeometry relative="1" as="geometry">
            <Array as="points">
              <mxPoint x="540" y="380" />
              <mxPoint x="540" y="546" />
            </Array>
          </mxGeometry>
        </mxCell>
        <mxCell id="AWsSGq5rg7necu_DQJhj-8" style="edgeStyle=orthogonalEdgeStyle;rounded=0;orthogonalLoop=1;jettySize=auto;html=1;entryX=0;entryY=0.5;entryDx=0;entryDy=0;labelBackgroundColor=none;strokeColor=#A8201A;fontColor=default;" parent="QFYjU4arNapdDsSCycNz-13" source="AWsSGq5rg7necu_DQJhj-7" target="AWsSGq5rg7necu_DQJhj-4" edge="1">
          <mxGeometry relative="1" as="geometry" />
        </mxCell>
        <mxCell id="AWsSGq5rg7necu_DQJhj-7" value="Clear Users Error Select" style="whiteSpace=wrap;html=1;labelBackgroundColor=none;fillColor=#FAE5C7;strokeColor=#0F8B8D;fontColor=#143642;" parent="QFYjU4arNapdDsSCycNz-13" vertex="1">
          <mxGeometry x="340" y="350" width="120" height="60" as="geometry" />
        </mxCell>
        <mxCell id="QFYjU4arNapdDsSCycNz-54" style="edgeStyle=orthogonalEdgeStyle;rounded=0;orthogonalLoop=1;jettySize=auto;html=1;exitX=0.88;exitY=0.25;exitDx=0;exitDy=0;exitPerimeter=0;entryX=0;entryY=0.5;entryDx=0;entryDy=0;labelBackgroundColor=none;strokeColor=#A8201A;fontColor=default;" parent="QFYjU4arNapdDsSCycNz-12" source="QFYjU4arNapdDsSCycNz-24" target="QFYjU4arNapdDsSCycNz-52" edge="1">
          <mxGeometry relative="1" as="geometry">
            <Array as="points">
              <mxPoint x="1040" y="154" />
              <mxPoint x="1040" y="140" />
            </Array>
          </mxGeometry>
        </mxCell>
        <mxCell id="QFYjU4arNapdDsSCycNz-24" value="Client Request Recieved" style="ellipse;shape=cloud;whiteSpace=wrap;html=1;labelBackgroundColor=none;fillColor=#FAE5C7;strokeColor=#0F8B8D;fontColor=#143642;" parent="QFYjU4arNapdDsSCycNz-12" vertex="1">
          <mxGeometry x="840" y="122.5" width="190" height="125" as="geometry" />
        </mxCell>
        <mxCell id="QFYjU4arNapdDsSCycNz-42" value="Server Portion" style="swimlane;whiteSpace=wrap;html=1;labelBackgroundColor=none;fillColor=#FAE5C7;strokeColor=#0F8B8D;fontColor=#143642;" parent="QFYjU4arNapdDsSCycNz-12" vertex="1">
          <mxGeometry x="840" y="20" width="880" height="770" as="geometry" />
        </mxCell>
        <mxCell id="QFYjU4arNapdDsSCycNz-64" style="edgeStyle=orthogonalEdgeStyle;rounded=0;orthogonalLoop=1;jettySize=auto;html=1;entryX=0;entryY=0.5;entryDx=0;entryDy=0;labelBackgroundColor=none;strokeColor=#A8201A;fontColor=default;" parent="QFYjU4arNapdDsSCycNz-42" source="QFYjU4arNapdDsSCycNz-52" target="QFYjU4arNapdDsSCycNz-57" edge="1">
          <mxGeometry relative="1" as="geometry" />
        </mxCell>
        <mxCell id="QFYjU4arNapdDsSCycNz-52" value="Clear Error Reporting Files" style="rounded=0;whiteSpace=wrap;html=1;labelBackgroundColor=none;fillColor=#FAE5C7;strokeColor=#0F8B8D;fontColor=#143642;" parent="QFYjU4arNapdDsSCycNz-42" vertex="1">
          <mxGeometry x="220" y="90" width="120" height="60" as="geometry" />
        </mxCell>
        <mxCell id="QFYjU4arNapdDsSCycNz-55" style="edgeStyle=orthogonalEdgeStyle;rounded=0;orthogonalLoop=1;jettySize=auto;html=1;labelBackgroundColor=none;strokeColor=#A8201A;fontColor=default;" parent="QFYjU4arNapdDsSCycNz-42" source="QFYjU4arNapdDsSCycNz-57" target="QFYjU4arNapdDsSCycNz-60" edge="1">
          <mxGeometry relative="1" as="geometry" />
        </mxCell>
        <mxCell id="QFYjU4arNapdDsSCycNz-56" style="edgeStyle=orthogonalEdgeStyle;rounded=0;orthogonalLoop=1;jettySize=auto;html=1;entryX=0;entryY=0.5;entryDx=0;entryDy=0;labelBackgroundColor=none;strokeColor=#A8201A;fontColor=default;" parent="QFYjU4arNapdDsSCycNz-42" source="QFYjU4arNapdDsSCycNz-57" target="QFYjU4arNapdDsSCycNz-63" edge="1">
          <mxGeometry relative="1" as="geometry">
            <Array as="points">
              <mxPoint x="430" y="285" />
            </Array>
          </mxGeometry>
        </mxCell>
        <mxCell id="QFYjU4arNapdDsSCycNz-57" value="Loop Directories" style="triangle;whiteSpace=wrap;html=1;labelBackgroundColor=none;fillColor=#FAE5C7;strokeColor=#0F8B8D;fontColor=#143642;" parent="QFYjU4arNapdDsSCycNz-42" vertex="1">
          <mxGeometry x="390" y="80" width="100" height="80" as="geometry" />
        </mxCell>
        <mxCell id="QFYjU4arNapdDsSCycNz-58" style="edgeStyle=orthogonalEdgeStyle;rounded=0;orthogonalLoop=1;jettySize=auto;html=1;entryX=0;entryY=0.5;entryDx=0;entryDy=0;labelBackgroundColor=none;strokeColor=#A8201A;fontColor=default;" parent="QFYjU4arNapdDsSCycNz-42" source="QFYjU4arNapdDsSCycNz-60" target="QFYjU4arNapdDsSCycNz-62" edge="1">
          <mxGeometry relative="1" as="geometry">
            <Array as="points">
              <mxPoint x="730" y="120" />
              <mxPoint x="730" y="120" />
            </Array>
          </mxGeometry>
        </mxCell>
        <mxCell id="QFYjU4arNapdDsSCycNz-59" style="edgeStyle=orthogonalEdgeStyle;rounded=0;orthogonalLoop=1;jettySize=auto;html=1;entryX=0.5;entryY=0;entryDx=0;entryDy=0;labelBackgroundColor=none;strokeColor=#A8201A;fontColor=default;" parent="QFYjU4arNapdDsSCycNz-42" source="QFYjU4arNapdDsSCycNz-60" target="QFYjU4arNapdDsSCycNz-63" edge="1">
          <mxGeometry relative="1" as="geometry" />
        </mxCell>
        <mxCell id="QFYjU4arNapdDsSCycNz-60" value="Loop Files" style="triangle;whiteSpace=wrap;html=1;labelBackgroundColor=none;fillColor=#FAE5C7;strokeColor=#0F8B8D;fontColor=#143642;" parent="QFYjU4arNapdDsSCycNz-42" vertex="1">
          <mxGeometry x="590" y="80" width="90" height="80" as="geometry" />
        </mxCell>
        <mxCell id="QFYjU4arNapdDsSCycNz-61" style="edgeStyle=orthogonalEdgeStyle;rounded=0;orthogonalLoop=1;jettySize=auto;html=1;entryX=1;entryY=0.5;entryDx=0;entryDy=0;labelBackgroundColor=none;strokeColor=#A8201A;fontColor=default;" parent="QFYjU4arNapdDsSCycNz-42" source="QFYjU4arNapdDsSCycNz-62" target="QFYjU4arNapdDsSCycNz-63" edge="1">
          <mxGeometry relative="1" as="geometry">
            <Array as="points">
              <mxPoint x="820" y="285" />
            </Array>
          </mxGeometry>
        </mxCell>
        <mxCell id="QFYjU4arNapdDsSCycNz-62" value="Loop All Lines" style="triangle;whiteSpace=wrap;html=1;labelBackgroundColor=none;fillColor=#FAE5C7;strokeColor=#0F8B8D;fontColor=#143642;" parent="QFYjU4arNapdDsSCycNz-42" vertex="1">
          <mxGeometry x="780" y="80" width="90" height="80" as="geometry" />
        </mxCell>
        <mxCell id="QFYjU4arNapdDsSCycNz-66" value="" style="edgeStyle=orthogonalEdgeStyle;rounded=0;orthogonalLoop=1;jettySize=auto;html=1;labelBackgroundColor=none;strokeColor=#A8201A;fontColor=default;" parent="QFYjU4arNapdDsSCycNz-42" source="QFYjU4arNapdDsSCycNz-63" target="QFYjU4arNapdDsSCycNz-65" edge="1">
          <mxGeometry relative="1" as="geometry" />
        </mxCell>
        <mxCell id="QFYjU4arNapdDsSCycNz-69" style="edgeStyle=orthogonalEdgeStyle;rounded=0;orthogonalLoop=1;jettySize=auto;html=1;entryX=0.5;entryY=0;entryDx=0;entryDy=0;labelBackgroundColor=none;strokeColor=#A8201A;fontColor=default;" parent="QFYjU4arNapdDsSCycNz-42" source="QFYjU4arNapdDsSCycNz-63" target="QFYjU4arNapdDsSCycNz-68" edge="1">
          <mxGeometry relative="1" as="geometry" />
        </mxCell>
        <mxCell id="QFYjU4arNapdDsSCycNz-63" value="Check For Any Matches Of ERROR| in its contents." style="rhombus;whiteSpace=wrap;html=1;labelBackgroundColor=none;fillColor=#FAE5C7;strokeColor=#0F8B8D;fontColor=#143642;" parent="QFYjU4arNapdDsSCycNz-42" vertex="1">
          <mxGeometry x="550" y="210" width="170" height="150" as="geometry" />
        </mxCell>
        <mxCell id="QFYjU4arNapdDsSCycNz-65" value="Add to error Tally File." style="whiteSpace=wrap;html=1;labelBackgroundColor=none;fillColor=#FAE5C7;strokeColor=#0F8B8D;fontColor=#143642;" parent="QFYjU4arNapdDsSCycNz-42" vertex="1">
          <mxGeometry x="510" y="400" width="120" height="60" as="geometry" />
        </mxCell>
        <mxCell id="QFYjU4arNapdDsSCycNz-68" value="Create Error TimeLine File" style="whiteSpace=wrap;html=1;labelBackgroundColor=none;fillColor=#FAE5C7;strokeColor=#0F8B8D;fontColor=#143642;" parent="QFYjU4arNapdDsSCycNz-42" vertex="1">
          <mxGeometry x="640" y="400" width="120" height="60" as="geometry" />
        </mxCell>
        <mxCell id="QFYjU4arNapdDsSCycNz-88" value="" style="edgeStyle=orthogonalEdgeStyle;rounded=0;orthogonalLoop=1;jettySize=auto;html=1;labelBackgroundColor=none;strokeColor=#A8201A;fontColor=default;" parent="QFYjU4arNapdDsSCycNz-42" source="QFYjU4arNapdDsSCycNz-83" target="QFYjU4arNapdDsSCycNz-87" edge="1">
          <mxGeometry relative="1" as="geometry" />
        </mxCell>
        <mxCell id="QFYjU4arNapdDsSCycNz-83" value="Read Error TimeFrame File" style="whiteSpace=wrap;html=1;labelBackgroundColor=none;fillColor=#FAE5C7;strokeColor=#0F8B8D;fontColor=#143642;" parent="QFYjU4arNapdDsSCycNz-42" vertex="1">
          <mxGeometry x="250" y="502.5" width="120" height="60" as="geometry" />
        </mxCell>
        <mxCell id="QFYjU4arNapdDsSCycNz-87" value="Build List&amp;lt;String&amp;gt; Of Times and return it." style="whiteSpace=wrap;html=1;labelBackgroundColor=none;fillColor=#FAE5C7;strokeColor=#0F8B8D;fontColor=#143642;" parent="QFYjU4arNapdDsSCycNz-42" vertex="1">
          <mxGeometry x="450" y="502.5" width="120" height="60" as="geometry" />
        </mxCell>
        <mxCell id="QFYjU4arNapdDsSCycNz-44" style="edgeStyle=orthogonalEdgeStyle;rounded=0;orthogonalLoop=1;jettySize=auto;html=1;exitX=0.098;exitY=0.688;exitDx=0;exitDy=0;exitPerimeter=0;entryX=0.96;entryY=0.7;entryDx=0;entryDy=0;entryPerimeter=0;labelBackgroundColor=none;strokeColor=#A8201A;fontColor=default;" parent="QFYjU4arNapdDsSCycNz-12" source="QFYjU4arNapdDsSCycNz-24" target="QFYjU4arNapdDsSCycNz-15" edge="1">
          <mxGeometry relative="1" as="geometry">
            <Array as="points">
              <mxPoint x="859" y="210" />
              <mxPoint x="820" y="210" />
              <mxPoint x="820" y="218" />
            </Array>
          </mxGeometry>
        </mxCell>
        <mxCell id="QFYjU4arNapdDsSCycNz-45" style="edgeStyle=orthogonalEdgeStyle;rounded=0;orthogonalLoop=1;jettySize=auto;html=1;exitX=0.88;exitY=0.25;exitDx=0;exitDy=0;exitPerimeter=0;entryX=0.07;entryY=0.4;entryDx=0;entryDy=0;entryPerimeter=0;labelBackgroundColor=none;strokeColor=#A8201A;fontColor=default;" parent="QFYjU4arNapdDsSCycNz-12" source="QFYjU4arNapdDsSCycNz-15" target="QFYjU4arNapdDsSCycNz-24" edge="1">
          <mxGeometry relative="1" as="geometry" />
        </mxCell>
        <mxCell id="QFYjU4arNapdDsSCycNz-67" value="Return Tally File Contents&amp;nbsp;&lt;div&gt;In List with &amp;lt;Error, Total&amp;gt;&lt;/div&gt;" style="edgeStyle=orthogonalEdgeStyle;rounded=0;orthogonalLoop=1;jettySize=auto;html=1;entryX=0.96;entryY=0.7;entryDx=0;entryDy=0;entryPerimeter=0;labelBackgroundColor=none;strokeColor=#A8201A;fontColor=default;" parent="QFYjU4arNapdDsSCycNz-12" source="QFYjU4arNapdDsSCycNz-65" target="QFYjU4arNapdDsSCycNz-24" edge="1">
          <mxGeometry x="-0.2953" relative="1" as="geometry">
            <Array as="points">
              <mxPoint x="1040" y="450" />
              <mxPoint x="1040" y="210" />
            </Array>
            <mxPoint as="offset" />
          </mxGeometry>
        </mxCell>
        <mxCell id="QFYjU4arNapdDsSCycNz-84" style="edgeStyle=orthogonalEdgeStyle;rounded=0;orthogonalLoop=1;jettySize=auto;html=1;entryX=0;entryY=0.5;entryDx=0;entryDy=0;labelBackgroundColor=none;strokeColor=#A8201A;fontColor=default;" parent="QFYjU4arNapdDsSCycNz-12" source="QFYjU4arNapdDsSCycNz-75" target="QFYjU4arNapdDsSCycNz-83" edge="1">
          <mxGeometry relative="1" as="geometry" />
        </mxCell>
        <mxCell id="QFYjU4arNapdDsSCycNz-89" style="edgeStyle=orthogonalEdgeStyle;rounded=0;orthogonalLoop=1;jettySize=auto;html=1;entryX=0.55;entryY=0.95;entryDx=0;entryDy=0;entryPerimeter=0;labelBackgroundColor=none;strokeColor=#A8201A;fontColor=default;" parent="QFYjU4arNapdDsSCycNz-12" source="QFYjU4arNapdDsSCycNz-87" target="QFYjU4arNapdDsSCycNz-75" edge="1">
          <mxGeometry relative="1" as="geometry">
            <Array as="points">
              <mxPoint x="1350" y="650" />
              <mxPoint x="945" y="650" />
            </Array>
          </mxGeometry>
        </mxCell>
        <mxCell id="MP24_qXbwDW_fQga7Mwu-3" value="&lt;h1 style=&quot;margin-top: 0px;&quot;&gt;General Flow&lt;/h1&gt;&lt;p&gt;&lt;/p&gt;&lt;ol&gt;&lt;li&gt;User enters the page and tells the server to generate data to a cache for retrieving at a later point.&lt;/li&gt;&lt;li&gt;A count of all system errors is displayed for the last 24 hours by occurance.&lt;/li&gt;&lt;li&gt;The error option for displaying issues is populated for the user to select.&lt;/li&gt;&lt;li&gt;The user can select any time range to view errors and the exact error that is reutrned for QA purposes.&lt;/li&gt;&lt;/ol&gt;&lt;p&gt;&lt;/p&gt;" style="text;html=1;whiteSpace=wrap;overflow=hidden;rounded=0;labelBackgroundColor=none;fontColor=#143642;" vertex="1" parent="1">
          <mxGeometry x="810" width="740" height="120" as="geometry" />
        </mxCell>
        <mxCell id="MP24_qXbwDW_fQga7Mwu-4" value="&lt;h1 style=&quot;margin-top: 0px;&quot;&gt;General Flow&lt;/h1&gt;&lt;p&gt;&lt;/p&gt;&lt;ol&gt;&lt;li&gt;User enters the page, at this point no actions are taken.&lt;/li&gt;&lt;li&gt;The user can enter any search term and select a date range then click Submit.&lt;/li&gt;&lt;li&gt;&lt;span style=&quot;background-color: transparent; color: light-dark(rgb(0, 0, 0), rgb(255, 255, 255));&quot;&gt;All data is returned to the Frontend system for viewing.&lt;/span&gt;&lt;/li&gt;&lt;/ol&gt;&lt;p&gt;&lt;/p&gt;" style="text;html=1;whiteSpace=wrap;overflow=hidden;rounded=0;labelBackgroundColor=none;fontColor=#143642;" vertex="1" parent="1">
          <mxGeometry x="800" y="1610" width="740" height="120" as="geometry" />
        </mxCell>
        <mxCell id="MP24_qXbwDW_fQga7Mwu-5" value="" style="shape=image;verticalLabelPosition=bottom;labelBackgroundColor=none;verticalAlign=top;aspect=fixed;imageAspect=0;image=data:image/png,iVBORw0KGgoAAAANSUhEUgAAAm8AAALUCAYAAABdO9U+AAAAAXNSR0IArs4c6QAAAARnQU1BAACxjwv8YQUAAAAJcEhZcwAADsMAAA7DAcdvqGQAAJ9JSURBVHhe7N0JXBTl/wfwDyDgBV54Yh6oJZpiZpImlolmmJpmHmViZVaW5RlFGtmhkaiVXZpl+PdKC1OTrPCnhWmYmWimpWKpmAdegMqCyH++s7NccsoCM8zn3WvamdllWdlndz7zzHM4ZChARERERIbgqN0SERERkQEwvBEREREZCMMbERERkYEwvBEREREZCMMbERERkYEwvBEREREZCMMbERERkYEwvBEREREZCMMbERERkYEwvBEREREZCMMbERERkYEwvBEREREZCMMbERERkYEwvBEREREZCMMbERERkYEwvBEREREZCMMbERERkYEwvBEREREZCMMbERERkYEwvBEREREZCMMbERERkYEwvBEREREZCMMbERERkYEwvBEREREZCMMbERERkYEwvBEREREZCMMbERERkYEwvBEREREZCMMbERERkYEwvBEREREZiEOGQlvXlbS0NHVJT0/X9hARERHZh5OTE5ydndXFaHQZ3iwWC1JTU7UtIiIiotLh4uICV1dXbcsYdHfZVGrbGNyIiIioLEjmkOxhJLoMb0RERERlheGthNjGjYiIiMqS0bIHe5sSERERGQjDGxEREZGBMLwRERERGQjDGxEREZGBMLwRERERGQjDGxEREZGBMLwRERERGQjDGxEREZGBMLwRERERGQjDGxEREZGBMLwRERERGQjDGxEREZGBMLwRERERGQjDGxEREZGBMLwRERERGQjDGxEREZGBMLwRERERGQjDGxEREZGBMLwRERERGQjDGxEREZGBMLwRERERGQjDGxEREZGBMLwRERERGQjDGxEREZGBMLwRERERGQjDGxEREZGBMLwRERERGQjDGxEREZGBMLwRERERGQjDGxEREZGBMLwRERERGQjDGxEREZGBMLwRERERGQjDGxEREZGBMLwRERERGQjDGxEREZGBMLwRERERGQjDGxEREZGBMLwRERERGQjDGxEREZGBMLwRERERGQjDGxEREZGBMLwRERERGQjDGxEREZGBMLwRERERGQjDGxEREZGBMLwRERERGQjDGxEREZGBMLwRERERGQjDGxEREZGBMLwRERERGQjDGxEREZGBMLwRERERGQjDGxEREZGBMLwRERERGQjDGxEREZGBMLwRERERGQjDGxEREZGBMLwRERERGQjDGxEREZGBOGQotHVdSEpK0taoIpFitmX77/jw85X469A/SE9PR6P6dRE4pD/uv/duVHZ10R5JZC5//n0Ic+cvwe59fyPFkoraNWvg/j49MPrhQahWtYr2KPP6cdsOPDc1VNu61vgxI/Do0AHaFtH1c3Nz09b0j+FNkX71Kv49dhw/bduJbb/F4mj8CZw5d179Is2uTq2aqF6tCtrc6IVbbvbGbbe0RdPGjeDkyArMgkgRC1+5Du8tXKr+rXPz8+2IWdMmoEqVytoeKg1XrlzB33H/KgfD35RyvhsnT5/B6TPn1CBtI2XZo7ZSzqtXQ3vvVujY3hudfNqiYT0PODg4aI8ie4n66Re8/Na8a75rhHer5nj39SDUr1tH22NODG9UVhjeSqAsw9v5xCSEf7EWq775AUnJF7W9xVNVCRxzp0/B7be21/ZQbgcPH8ETk1/D2fMXtD05SWB486XncO/dd2h7yJ7iT5zCJ0u+wrf/25JnSCgKzwb11CDRyquJtodKSk4Qx0x5Xf185OfpwCF4auSD2pY5MbxRWTFSeDNllZHU/iz/+lvc+9BYfLbi6+sObuLS5RRYUq/vgGgWEh7yC25C3o/tv+/RtsheJKjNXfB/6DfyOaz+9n/XHdyEfEaupF/RtsgeTiWcxanTZ7StvP3+x35cTrFoW0REVqYLb3IAe+u9TzHrg8/V4FUeki9ewvc/bsPYF9/E0ohIba8xSNCKO3IM736yFKMnvapediP9uZCUjIkhs/D5F2tzXBal0iM1aRKSRzwbjC0xv2t7iYjsz1ThTdr8zPrwc6xc932eba9Ki1yZPn7ytHogHfT4RHS//1FMeW0Ofv51F1LT0rRH6ZfULMprDXrzHXTrH4iBj05Qayz/O5WgPaJgjRvWRz2P2trWteSyaedb2mlbVFJycvDC63PV94xKT/YTGanFv3vwE3g17CPs2XdAua/wwCxt2RrWr6tt5e2Wm1ujSmVXbYuIyMpU4W3L9l345ocfta2y8ctvu9G130j1y10uYR3652iZBseSkMs1k6bPRpe+j6i1hBv+9/N11VZ6NW2MkQ/2g5OTk7Ynp4EBPdGru6+2RSUltT+//v6HtkWl4Ys136HrfY9knsjIyVlxSa/SJx8ZrLabzYu0ox3xQF9ti4goi2nCm9RGyJdsUdr9yBAWDw8KQOjU8Qh7ZWLmIg2He3brjJruRW/UKLVW5XV5tsQyMpCYdLHEYVN6KcpB6JOwV9Dh5tZqiJPaths8G+ClcY9jythRqFSpkvZoKglpX7h89beFvmfy92/R7AZ1OIrsZVzKvDT+luCQX6gg4FJKSonaENr09PPFkg9movvtt2YOlyM1co8Nux9zXp2M6tWqqvuIiLIzTW9TqQF79uWZSEvLv9G1nAm/+dI4dFEOXIUNiyDtW9Z9/xOWRazHy+OfwJ1dOmn35GTknlKXldD53LS38+1M0LhRfXz+zuuoW6eWtofK26p1P+CNdxZoW3lr2rghwkIm4UavptqevMlXg1walzC4MToGs1+dBO9WXtq95rboizV4Z8ESbeta770RlO93AhUPe5tSWWFvUx36Y//BAoObnPXODH4OXTv5FBrchIz5Nmpof0Qu/UD5mQ7aXqLyI2Hr9z/2aVt5k7aHMrRNYcFNyOdAaqEnPTUSaz5/F62ac5gQIiI9ME14+/fYf9pa3m5u3RLt29yobRWdXO5zduYlPyp/KSkWnD5zXtvK220d2qptEItLyjgvbRMR6YNpLptOC/0Aa7/frG1dS3o7vvf6C3Yf5b+0qvylLd2BuCPYEfunOivEP0eP5xgtX9qVNazvAR8lkPbq3gVdb/OBq0vxpqDS+2VTGWT55+27sHnrr9j716Ecs2LYZgporgQVf7/b4ed7CxrU81DvKy3yUZIa3lXrvsevu/aqMxhI2zOp1W1Uv57avmnogHtK7e9V2Psl+ve+C68HPaNtlb4TpxLUDhQyq4PMYmJr/yl/k3oedXDLzTdh4L090c67ZamFw4uXLmPNd5uxYdPPymfm38zXILXnMovBsPv7KJ+PDmqZKSqjXTaVz8Wmn7fj6w2bsP/AYfWzI6T9btMbGmG48jfocUfnEk9TVxrvNy+bUlnhDAslUF7hTUaQ/2R2iHpbEoV9qRdVXl/+cnD+38+/qgMM//l3XLHG73KrXg1PPDxICQ998v2ClvA3avw0HDt+UttzfXIHYXuHwEP/HsOc+YuxbcfuIv8N5MDcTgmyk58aqdayFuXSeHFet/Q2fHnmPOzcU/BlS+kE8NzohzCk/z3FCgtFUZTw5tP2Jnw4M7jUG8LLe/TanPnY8+ffRerwUt+jNiY+ORK97upS6N+lqAdz+b0r136H9xYuK7TTUMd23mp7V7lMnJfCvj+Kwl35DC4IeyVHu8GCnjevx9vsOxCHMZNfQ2I+A4zbQrp8vUfH7MQrsz7EufOJ2r15a97EE2++OA5tb2qh7Sk6PbzfRCXFNm8GJL30Fi6NsEsPstIy471PETzzPes4UsUceFVGyJ8z///UgVtlAFcjkvdGhlt58InJ6iCoxfkbyAFl1x/7EfjcVLz1/mdq0LEXmVhcnrew4CYkRMgA0f+36hv1wFrW/lDKjgSaohxgr4c877LV3+Khp4PUv3dRf8/JhLPqOIIvvfmu2jO8pGRMx7fmfVbkwbjlvXv2pRn472TRxi40AilfS75aj/GvzCo0uInDR+LxbPBMtfa4qPTyfhOZjWnCW1Has0VEbsTTQW9c15hNRiEDt4YoZ+F6Dql5kS/4SdPDSjxjgBxcVny9AeOVEGuPg8bR4ycwISRMneqoqOQ1LFjypTr1kT1JTWfLZgW3Z5Pf/f5nKxA84z27h3hbYAr78PPrLl/fbd6qHtRL8t5IaJn/f18WO6RK7dE7nyxR/x0VQeTGLZirnLAV5/Mi09iFKic3tsuqBdHL+01kRqYJbze3bqFehiiMnIE/8PhEtYanKF9gRvTTtt9KfAmoLFmD22y7TjkkQ8fIc5bkoJGYmKxeKpJ2PsUl7bAWr1pn9xDt27F9oZehJNBI+68Bo55Xa03sUQtpreWJxFff/FCswJSXbb/G4stvoq67ZvJ7JRDI3/Z6SPtJaUdqdL/v3Y+wj8Kv672Q9qMyfV9B9PR+E5mRacJb8yaNcatPG22rYHKZRWp47hn2lDrdjVxS1SNpuyYdEqS9R/YBhWWAT2lTkh/5sv3mh58McbYrX+hSgyJhy95kFoKSHDSkvZFcarpecnnq+En7lq32bVqhZRGH9JBLaVLL0ksp5zLFU0lOVqSB+kfhX+R7IJcONP163Ym5r01Rl2ceHZZvGZXnWBqxHnH/HtP2FM++A4evOxTLz0kbK6M7Gn9CrUW7HvL3j/5lp9opKj96er+JzMg04U2CzuiHBqkD8RaVfJFLz6l+j4xD4PPT1LZmhR3oq1Wtos7laVukR1tBpLdX9sfblvx6hkqtSnvvVnjntRfw09eLsHjem2qD3T497kCvO7uoy/NPPIy1i+dhUEBP7aeuJe20crdtcXJyRIO6dTJfg3TeKKj3mXxBSw/O7K9bltq13GWQMO1RJbP/4GEsWrFG28qbvA7pALD+/97Hzh++wK6olfjhi/l4OnBIgbME2OugIe/J4Pt64dtlH6q/+5dv/g8zXnoOtWoqf4cCSAcR6flnT1K+x4x4oMD3LTdpDymzj8jcnFIbKT2Xi0NC36fL8m8vKq9p0dzpeOPFZ3H3HZ3VRV7jqoWz1Zkc8iKXoWUO4pLUxkhZlFkKtn+7VC0Xa8Pfg3/32wutmdyjfC5ydwSo4V49RxkvbJYV+dxnf7wsng3roZJT2Q63IlcbXpn4JH5eG575uRh+/73qZ6Ygf8f9q5bPvOj1/SYyE9OENyG9DJ8OfLBYBzYhB3lbY3eZ41PaxuRnSL/eWL/k/cwlZNKT2j15GzVsQI7H25a8vuQaNaiLj9+eqga2HnfcVuDQH/JvfPaxYfnWwsiAxbnDm3zpfjpneuZr+Er5sm3f5ibt3mvJUCRL3p+R43XLEvryeLtMpi1f5DK0QX496oS8Zuk9+fLzo9Xen3Jglp6kMhitTGf2SViI+pj8yEHjh59+0baKT37fc6MfxtTxT6g9FeV3S9uzvv5+eP/Nlwr83UJOCOxNysZDAwMKDSm5SduoKOVvMejxiWrvxKJeDpZev3KpLS8yPlzQs4+qvVxzq+FWHWNHDVVPePIi7TNP5RMgCtOiaWMsnP2qOjyLfE7kbyEzS4S+/Lw6l25B5N+dcDbn7538dGCOMi6f24LI5z7742VZ8fHbaOVVdgMdS9n7KHQqHujrr/Yutn0u5P147vGHCiwfMuxOfr3O9fh+E5mNqcKbeFAJVxPGPFLsACckxG3dEYsRz7yE8JVry7xhs9QkyTAcRRnmQsjZv9TS5SfuyDFdn+nKF7l8oedHDj5PjxqS79m8kMAuB96CDlQy9dP5C9d3ybBLJx91nLC83hMZcqH3XV20rbxJpwF7vwdSq/LMo0MxYvB9xQ5wQkLcGiU0D3s6SG0bV9Drk0trkRuj87185quU17u63qZtXetG5eSi7U0tta2cJEQdvo5aUQkQk5T3XE4ucpOxxWRMs4JCtdQoXb5s0baMSya9l/Kfm5TVfr27q2Mg5kdO7qRdZm56fL+JzMh04U2+uORg+8HMl9VLGddD2sTJsBshYR/ZdciJ0tCkcUNt7VoyGr+Myq9XMqDq8f/ybxPWulVz9O5ecDgSfrd3RJsCxq6SHqPX03ZNgtF9ve7M90RAypqfb8cCA1RpvQcSUiaMGYEZwc8VqaNOXqRNnPRKlZ6b+Z2oSHtQGXMsP3IgL+hESWop5VJ9XiRAHDx8RNsqujY3tlDbgubHU/nc39gi/+nB5DJy7po3o5EmD1Lu81PYiZ04onwuctPj+01kRqYLbzadfNpg5YJZ6vykBbWLKog0+g/7eLEuhhaQ1yBjJ8lsC1+s+U7taDHsqSB8Xkh7MT2T9mD5neELqfWqWaPwQRUlvLTLowbC5rISng7+c1TbKjo3t2po3qSRtpW3OrVq5HuZqLRJeJS2kKs+CcOAPj0KbeeUF/n7L1DCm/QszKsG7viJ0zh7Lu+G8TIwdJsbC5/IXi5n5ud6OgvJJdOCBiGWS/r16uTfoaciuMGzQaGX7As6scuPHt9vIjMybXgTclCVS6jS0FxuC2tgnpfVkRvx3eaCu9XbmxxEZa7WeZ8tVwNal/sewa33DEfvoU/iqRfewIz3FqodLeQM2cjDnRQ2H22bPEaez49X0xu0tbzF/Vv88CYBobAOKR61a8Hdvbq2VT6kU8lrU8Yicsn7eGTwfcU+WVEDXD7j0h04fCTfgC01WA+NfRE+PR8scJFynJ/ki9deuitMUUKJVyHj4RmdhNPC2p16NfHU1opOj+83kRmZOrzZSM8xqYGL+mK+2q29qEMtCPkik5560sC3tElok6mPBj8xGf0Dn1NnhJCAVpQR5I1GLkefOH1G27qWnOUXZ67Seh4FT71lhoOG/L2k/d//Vn2CVyc/XeBwMrlJ+6dPl62+pofhkUICNlUsfL+J9IHhLRtpJyTd2uVy6vy3p6lz/RWFNLLd/vtebat0yGXRuQuWqDVrbBcCSPcAR0f7DEdiNtLuaOC9dyNy6QeYGVz4kCY2UvP216F/tC2rK1euf7YLMh6+30T6wPCWB2lgLj0YpWu/XGYqrMee1L4VNBl4SUmNm7Q5WvLlN/lesshNahNlQuu8JrUmEnKyEtDTD2s+f1cdH7AwUvsmE48TEVH5YngrgPSamvTUSHUcr8ICnMyHKg3fS4PUeEibo/yCm7RhkkFipbZw01cL1QFJf1z9mRI+Q3FPj67ao4jyJuNvvRX8nFqGClPQGIe5yWdGLs3mHqy2OIsMjkvGwPebqOwwvBVCeuwNvs8fNxfSrf7q1QypItO27Edq3WSg2rzGXBLSs27l/FmYNmGMWlsoPcwKC5pGULmyK+rWyb8zgAzcW5zJ4OMKGQqkojdgL4zUwj02/H51iImC5L5sVr1a/j1pXVycETp1wjWD1RZnkTZ6pB98v4n0wTThTQYevV7Sq7CpZ/G71duDzE8oszvkxTYYqQwLkJ90g7ZRkdDcsH5dbStvB+KK1vZPArCMGVeQJo3y/xsaSUnKee0a7uoYaMVRUNiTmuj/Tp3Wtqgi4PtNpA+mCW8r1nynDp9R1DZj2ckBMcVSOpdETxXQo1JI7ZIMlpoXGQ6gZbP8h8CQ1527gbk9WSypSLqY/9RVJdWudasCaxFjfv+jSIMkSwD+61D+4a1unVpo3rT4wybo0ZwFS9RZQCSwFleaUl4upxSv57L0zJaTiPz89MvOEgVKozqVUDGneeL7TaQPpglvqWlpeH3OfLzw+twiz9loIxN179r7l7aVt8YN66m9+Ior4ez5Uvuyk1kDdsT+qW3ZX/LFS7hwIVnbsr+WzW9A3QKGs/j9j31qUCnMxi3bC5x256YWzdCofsGXC40iMTEZzwbPROj7i/K91J6fP/86VGgN5U25ZiaQWt+CBrz9efvv6iTnZnPidPG+Y4yC7zeRPpgmvAmpdZOJtweMeh4z532qdjIorIZCvoheeOOdQttXyZQ8eXGvXr3AwTIlXF3P1Ezi1Jmz+c4MIEOLLP96g1rrdL2kDUvNAhoQy2WSDZsLnvuyJBrW88AtN7fWtq4l0+m8u3CpOkdrfmKV0P3R5yvzrXGVmr07u3a6rrlu9UpOBpZ//S3uGf40Fiz5qtAxCOX9++W33Zj29gfXjOOWndS45B4DUaY6al/AVFTSNvGdT5aqc7gWhbwW6bkt82fqWWFj5G3euqNMxn4sa2Z9v4n0xlThzUYOUCuUYHPvQ2PVA1zwzPfUS6o//Lgtc5FRwAc9PhHDnnyh0HHVpB1I19t8tK2cqlRxhWsBwUDC1bS3P8Q+bSoo+cL/ePEq9WAqpO2Xo1Peb5OEl9kfheNofM45CKXG5e0PP1dnfygJmU6poGmGxNfK323Riq/VWjgJjL/v2Y/ZHy+2y5yv8vuH9O9d4PRSMgvDw2NfUv9mUqMqf0M5IEjYln1PBb1RYICVMOLv56ttVSwy4v0Hi1ag15Ancd/IcXjjnQXqQdJWxmXS+bc/WISAh5/Bky+8XqQTlNwTnct7dH+fHgWGXynLgc9NVW/zC9FSdmRqt1HjX1HHMpSp3vTM3a16gZf05TvjjbmfqJ9N+TfLieK7SqjZf/Cw9ghjMuv7TaQ3pgxv2Z08fQbro6LVuUAnvzYnc5HZCw79czTfL5/s+vr7oVE+jesbKcHuhkIaw//59yEMe+oFdOw1FHcPfgIfha+EJdVaA9KgrkeBlylk6IbBT0xSD76vz12AiSGz4D9kjDq/aVFee2Fu69BWW8ubBOF3Fy7DHf0D1Sm6Ro2fphyg7NfOTiYY7+vfXdvKm8wwIX8zCeLyN+zgPwS9hj6p7ito9gk5AI0dNbTQOSCNTsqBhIhV637ASzPeyyzjQW+8g6URkWqwKIwElaH978kzzMs8wTIheUGkdlnK6N0PjM4sq7JMC/0A9z86Hp0DRqgHcemcY49yW9qa3dCowEv64n8/b1dDs5RJOVH88psfSq2WuiyZ8f0m0hvTh7eSkuE5Aof0V2vI8lLYpOiFkXGPOrb31rbyJgFKznLl4CDtu2yBRQ64Jb0c2LpVc7VBf3mRM/3nRz+k/p3tSf42TwcOxZ1dbtX2UEEGBvTEPXflPZCvDDMy/okR6rA1hZG5dm1lVZa1329WD/RGa+Qun4kbvXK2/zMLM77fRHrD8FYC0tD91UlPF3ppUQY/rVfIWXp+JBQO6df7un7+tltuxkOD+mpb16f5DZ7KQbt8B/qVv6/8neXvbQ8S3EYMvg8jHgjIN3RTlm6+t2DCmBHqQTs/Det74LUXnqnwtZg2ri4ueHhQQIVqK1kcZnu/ifSG4e06yMG/T4878MnsEPVLrDBeyhnqw0qIkp+7Hi2a3YCgZx4t1oFCzool8Li7VdP2XB8JNyMeuK9IZ9mlSf7O8veWv/v1/h2FzEYx5ZlReP6JhwsMI2St9Rw1tD9mh0wu9ARFSHu4T+e+ek2nhopKLh/e1+tObct8zPZ+E+mJacLb8PvvxRsvPlvkyebzIgczqYVYMf9tvPXy8+q0QkUhAShwSD9Mf2GsGh4KI+FEfld2Pf18MeuViYVOIi4/69/9diwIK1qwLAp5Hnm+ol66VCeML4UaLXUaJ+Xv/vHbU4t9wJC/54A+PbD6s7lqWShJANSzF8c9hgljHim0N2RB5CRBJq5ft/g99bmKc9Lg1aQxln4wExOffARu1Yt/4iCvW36n1DbrnYT/l5S/9zOPDrvm85oX6XhU0Wp6zfR+E+mJQ4bOWtAmJSVpa6Xn/IUk/PHXQezYtRc7/9iPhDPn1F6e2YdJkC9jaddSv24ddLy5tRpcbmnXWr1cUhLSE3TNd5vVnn4yplZm+zTl90lI6nqrDwb17YnWLZvn+UUvPx8RuRHro35S247Ia5YgIq+zW+dbMGzgvcoXqmepHCSkqPyx/yBWrfsevyp/O+nsYWtsLBPhN72hkXrQ731nlwJ7iNqDvJb/TiVgY3QMfvjpF5w4edo6Zp72eiRw1POog3beLdXG1X7K3+Z6xuEzKvn7nFbKtYxP+NvuPxG792+cu5Co7sve3kj+TnVq1VTH7+rQ9ia1DaC05bJHraT0KNy5Z586bMYvO/fgP+U9yt6BRE5k5LKbjB3Xvs1N6N6lI5o2bmTIYC1/V2nT9eO2HZmfSyF/XxlD8K6unTAooGeBs6EYnZneb6qY3NzctDX9M2V4IyIiIsrOSOGNpzxEREREBsLwRkRERGQgDG9EREREBsLwRkRERGQgDG9EREREBsLwRkRERGQgDG9EREREBsLwRkRERGQgDG9EREREBsLwRkRERGQgDG9EREREBsLwRkRERGQgDG9EREREBsLwRkRERGQgDG9EREREBsLwRkRERGQgDG9EREREBsLwRkRERGQgDG9EREREBsLwRkRERGQgDG9EREREBsLwRkRERGQgDG9EREREBsLwRkRERGQgDG9EREREBsLwRkRERGQgDG9EREREBsLwRkRERGQgDG9EREREBsLwRkRERGQgDG9EREREBsLwRkRERGQgDG9EREREBsLwRkRERGQgDG9EREREBsLwRkRERGQgDG9EREREBsLwRkRERGQgDG9EREREBuKQodDWdSEpKUlbKx0WiwXJycnqbVpamraXjMzZ2Rmurq6oXr26ektZWN4rHpb3/LG8VzxlWd7d3Ny0Nf0zVXg7c+aM+sGmiks+4HXq1NG2zI3lveJjec/C8l7xlXZ5N1J4M81l05MnT/KDbQLyHst7bXYs7+bA8m7F8m4OLO9ZTBHe5IwsJSVF26KKTt5rec/NiuXdXFjeWd7NxOzl3abChzdbGwgyF3nP5b03G5Z3c2J5JzMxa3nPrsKHN36wzcuM7z3Lu3mxvJOZmP29N0XNG5mTWWsiyJxY3slMzP7eV/jwxu7i5mXG957l3bxY3slMzP7em6LDAhEREVFFwfBGREREZCAMb0REREQGwvBGREREZCAMb0REREQGwvBGREREZCAMb0REREQGwvBGREREZCAMb2a2OQjt2rXDgEXx2g4iItKT+EUD1O/poM3aDqPg8aVUMbzpXNL+CIQ9PgBdO7RTPwiydO0fgqgE7QFEFYX2ZX/NMjAc/PqncmGJR9Ss0RjQNVt57NAVPYbNQHSF+A6Ow7x7rP+uTm/EaPvICBjedCsJMTP7oOuDIQjfHge09sOgwYMwKMAXdZMOIf6S9jCiCsa1tb+1rNuWPl5w1e4jKiuWg+EY4dsHExbHIL6WLwJs5dGvMXDkT8RVhO/gg+ux/rh11fLFCkTyuGIYDG86lfDlBIxeFg+0HYMlP+3B1hUfYnrIdEwPXYg1m5YgsIn2QKIKxjNgsrWs25Yn/eCh3UdUJpIiMWFgGGLTvTEmfCt2rF+IUFt5nLcSm7ZWjO/gmBVSq+2H4Kl+ylYUftjMif6NguFNl2Kx4K0YwDUAcz8ZB59a2u4cbNXdY3OeLV1SvnSkav/h5bDV6iftDMeE/l0zq/279p+n/IZ8nItF+Pg+6GR77LAQRJ3U7iMqT7Y2NHOWI+zBTuq62g4ov/0Ky5EohD2eVZ7bdR2CoGWxSLLerYhGkOxXDtTLZw2xPi44WruPzCr2/VeUkuGKgHc+xbiObtrefORb/hIQsygIQzIvuXZCn/HhiM0sfLayF464g8sxwV97XKchCNmYxzXZ9ARETdfKqPJcQ2bFZCvHym/bGIbRfa2/X/1d06IyjwF5So9GxBdKWOvsj1797lMinBLflkbk+pms1xi7WzmO2F6j/wREHNYeItKTEP3+aPTQmvd0HaMcY85r91GpYHjTo8MxiFE+U64PPAT/fL83vNC3n6dyG41vsp0tWTb/oJw/Af4PD1JrK+KXjUDXwDBEJXlh0MRQzJ0xGX6uSUhUH51LkvJB7TsCYbFeCJwxV3nsGLQ5EqGcgYYgmtXppBNxi+bh9FObsGfPHoTepe1UXLP/cDge6TsB4b+5oqdW9gM89iFy5gg8vijO+kM2B8Mx79wYbNq1B3tmyGGMzCsOMdvkC3gQHupZSHDL5tpyqZS1xfHwfkIpe7PnIvh+D8QrAWvEtEjkqN86vxxjn1gPzyfmInRiALyu7EPE+P6YsVO7XxM97UHMs/TFa1MD4eNmwb7Fo/FKpPZMO2egvxIM/6w5DMHK75o7dRg8Tsbn/D25WL6LQKRy63tvd3hU7Yn75DXvXo8f8jpZPzof4yfGwOv5UEzurRx3TkYh5Kl5yl/KKvbtezB2fgwSmgRg8oxQPOkRhceVfyeVHoY3Pfr3kPqh8GxQ8MUirweVD7FyG/3tRu1DasHGb5Xo5jocw+5xVWvhwmbGAm4B+HDtEkx/NAD+/QIRuipYPcvKLS78TUQm+SB4xYcY189feew4fCDV6UkRWM7qdCojcXP6aLUH1uWa3mp3TcVreR1Uc+y3IPLdMOXw6YkxS9cg1Fb2Vy/EcOWjsW/OfESnaw9V+WHqVH+4OWmbZGLxOCS1Sjd4ZrtcH4/wgVllsmjl0g/To7Tv3d7+GP76XIyRJ9yyC/utD7BK8EDgiiWYPNQfAY+GYs2C4XBFEiK+y3l9JDXgLayZEYiAoZOxZEaAui9q23b1Nv6PXWotXIeBT2K48rv85TEfBSqlPz8JiFgqp/m+CLhLXpQrOt/pq9zGInxVrhMbYemAKavluBCAwNmfYnJLZd/xWOySajrlODN/mfLbG43BytWhCJTHzFiD/xud/2+nkmN40yP3GmoD7cTEPOvHstSXM0PldvM32Cg1Y5c24pvNysfw/p7wlYPQ/l2QC0AeQ0fBr9ATyHhEb5Evo1jMsFWNK0unIOslpPiTBVbAE9lN7g4LfVvl7K7g1dEnzw4MOfdvR8xG5aa58vNtrXtUTr7w6y0r+xGX/djb0hc+VbV1Mjl31JCCdD4x2xUKV3j10cpkl7xDybXl0oL4beEICxqNAf490LXDECyQr1HLhZxXPlr2Qvf62rq4tTPka90SuytHL+ue3SRcabzawEtutRMQz3tGqVdpoqd3Rae+oxH29b4cl1SvcfIHrN+t3Lbvie5aQvW4K0CJcsp3/VfrlZOeXOTzkXkM8YSXt9yeRpIcd3bGqMcZrwf7wjvbyY+3j1QtUGlheNOj1h3QWblJ+GI1YnPUDuTmioCH5CzNeunUooS4aOWDFThM+5AnXlBr5Nyr5XWoy4NaueaP0E2bsCnXsmQoz6KobOTusDCmW8E10ET21Roduik3CesRtde6R4k28HtSK5MPFS2UxC9+BH2eDkPUFT88+cJr+DRyCcY01+4syLlEnJHbunWL3lGnfgDmKt/TK18PRAdLDMKnDUHXh8MRl8/xI25VuLXd8+4Z6GGrTewRAnWwkIRwrLZW6BXNlRTrrVMRjzNkFwxvelQ1AE8+pJzmJC3H05MiEF/QFcvOfTFI+cxEf78CK75Szn/aB2K4VGmLm33VM6m4VcqZVIEhUHiiQ2f58EXjx1hXeHh45FjcWCtBhuINHzkDOqwcgHM0rI5FzDbl1tUXrXk+QnlSTopHDocb4rHgiSBEndN2F0s8olZL/VUAXp4diIDefvCun4hj2cuizcGYbJ0YlK/97VFqiPK8qXWumrwCWJSDhKsHvO+fjIVRO/DhYOUn987Dijx7pu3D+q+kTs8NPgFZNdxZtYoWLP+6GJ12bmyjfNqU40zUTzk6O8RskapvKi0Mbzrl88ISTG6rfJA3hqBPp07o83gQQqaHIGTcEPToMQLhR7QHwgfDRikfuI1hCFPOlnz69so6W/MYhHESAo8vwBD/EQj7IgpRX8zD2AdnqNXcufk8PE75EFoQOb4/RsxajqjvoxC5KASjxy/PUX1PVJriI8OsZT1zibj2Mk6hPDDomUDl/3GYN3AAghZFImpdOIIGKp8d5QjjO3WMtWkBUV46BmPJFB/lCzgSE7pLr/uxmd+/XccXpSG+K9xqy20k5s9Syt73yxEy7BVE55nGohE0bALC10Vh+awR6K82VfHDc4HqhdEiiV/2OAYEhyNS+c6OWrcA4d/JGX8HtM5rOJPtq9XPANqPwzuhWTXc6vLOc/CXx6yLKPqYb436YpicKO2egf4Ph2H595EIn9QHM6JZY16aGN70yskLgUu3YslLAfBWPgPx2yMR8WUEIradhrtXd3TI9rmwdVyQS54P3Z/zA+Pz0nfW57DEIvyNCZgwUwlinq2t7SVyaxKI/1s9HQFtLYhdPAMTJk1A0Ce7AO82Ra++Jyohy/4oa1nPXGIKHvIgPx0nY+3SYAS0Po3IOUGYEByGjem+CHxnExbm+pwQ5eY1cgl2rJ+LwM7Kt+X+aGtZ3BwH1ya+GDTxQ3z4UEFVt8rJw4xQBDRxVb5LpeythtuUd/DkDdrd2bUch4UT3bF++gTMWByLpNaDMFf5vQGFtlPO4tqqDVw3hyFI+c6eELwAfzYJQPDSuRh0TTFXTs6XLVdbyNhGJMihagCGDZWEGYVlXxf1U6f8W99Zgsk9PZC0OxwzJr2C9e6T8ekLbPNWmhwyFNq6LiQlFdjMstj+/fdfba0CO7kcI/xnYP/QhdgxNVujVkLTpk21NXMwRXmnfLG8G4mMoTYWkS0nY8PqgnqGUn7sXd7d3IqRmMsZa94qgPjIFYiFmzp1FhEREVVsDG8GFvv1PITPGoERc+LgGvAaxnXU7iAiIqIKi+HNwBK3L0DY4lig53SsnOEP41T4EhER0fVimzeq0NgGiMyE5Z3MhG3eiIiIiMgQGN6IiIiIDIThjYiIiMhAGN6IiIiIDIThrRwkbQnDkK7WyYCHLDbaxFPxCB+mvPYOExBV1OlTyNRY3omKYHOQ+hkZsIiTEVLhGN6ui/KFPlAORkF5zhFaoCPhGPF0OPbBF2NmBKNvA22/gbjInJC13Is+aTIZHMs7yzuVnAXxW8IRNKwHOikhTYJau3ad0GPYguuYu5fMjuGtrB34E3HKjd/UDzCu33AE9tbzpCj7ECET4QeGZ5uY3hPDl+7Bnk3T4VdV20WUH5Z3IiA9DhFjeqDP02GI3JsEj84BGDR4EAbd5aWc4MRf39y91yFhSxhG9++KkM3aDjIshrcyFn9kv3rrVtUI5/EJiNm8DwmJ2iZRMbG8EwGxb49AyLYkuPWcjg07dmDDp6GYHjId0+etxKatyomB9rjSZjkQjZjDSUjRtsm4GN7sJbO9QixiF01Ajw7WavEe4yMQly4PsF566jNH6iGAyHFy/wCEH1E3YTkShbDH+2RVp3cdgqBlscgasjjr0tWCL7XnHyg1BDK5sXU9dnsYhnSy/nynwHmIVX44YWNI1r4HwxCTbQxky+HIa35nyEbtHFD994xFpKwfDEMf7XfEZ3sd2S+hFf76s73O3eGY4K89zn8CIg5rDyHjYHlneaeiSYjAvGVKyWg5DktmD4JnoecxCfl8pqwKLMeK+EUD1P1BCyO0ciefu7w+j8pjpAYuPQFRs0ajj/a5adepD0K+L6u6QLpeDG92Fv/JeIzf7oUpr0+GfxPrwWTsR/KB8YDfC3MRHOChPs7n0bmYOzsYfrJ5OByP9J2A8N9c0XNiKObOmIwAj32InDkCjy+yftiyRGLel974NGYP9qwOROZFqKPzMf6NJAycEYxBzZUP+M4FePyJIXj8jdPwCwnFmC5usOwPx+hpkbBoP5KweRmiq/bFpNnKa5kxBr5y2Wj8CMw7qNzpPUp5fYHwkQd6BCBYHvOCn/KvyENxXr+8zokx8Ho+FJPlEtrJKIQ8NU+9tEbGw/LO8k6FiI1BjHLj+/AgeEn7yUKon6nNnhhzzWfKqsBynE3kuyvg/fEO7NmzBoFN8vo8zsUob6kV7I8Ji/+Ex9BgdV/wUA/Ex9s+NaRXDG92Zrl1CtZ+NA4B/QIx96PJ8FL2xf++SzmXcoVXF390b+2uPs6zoz/8e/vCq6pF+ZCFKR8/5cO6dA1CHw2Av/KzoasXYrhyhrZvznxEZzvrkoPimGlj4JX77M3SAeOWTsfw3sMxfUWoWg1v2ZsI/08+xLh+ARj3USgC5HFbdsF6IUt5DSOXYM28ccrPKK+l3zh8MFV+Kh6xu5Szrvre6utTD5Y126C7PKaLVx6Ntov5+pXXOWW19TUFzv4Uk1sq+47HQn4lGQ/LO8s7FczWdKCOR56nAtewNB+DVeGTMTz7Z2pLtFJSrQosx9l4jJ6OMS1tJTivz6M/vOvHY5dUWaMDBo0eru4bPmUJFo7MPE0inWJ4szOvjj5ZE8Q38UJruT2blHn2f63tiNmo3DQfhL5trXtUTr7w6y0r+xGXo+d4Z3TI/jiblr7wtf3iqm7W1+DRF/5ysBBOXmgj65YLyGzSk6icsb2vnNUN64EePTqhU5D1wtDppOKcdRXz9Suv0yfzD+QJL+XMT/mNSOIwDIbE8q5head8uLrVVW+TLhWtnHn5d8+q8bV9prL/aBHLcWcftbAVwhN9R/orn59ohHTvhD6PhyFivxLmilBDSOWL4a0iq+kO63lWHi4pH9a+QxCy7BC8Br6Ml0NXYtMMf+1OIgNieScd8vD2UcNY9FfrUeIK11Ioxx4Bc7Fp00pMH9kBlt/CEfJgVwy5pvkC6Q3DW7nzhk9n5ebwekRlb8icHouYbcqtqy9al0YN9vZvEKGcYHk9EYrJQ/3h39kLloTr+cCW0+sng2J5J5NpOxzjpMxsD8HYd2ORlKNZQDHZrRxnsViUYuvhjUFTFmJTzIcYJJf/P1iBWO1+0ieGt3LngUHPBCr/j8O8gQMQtCgSUevCETRwBMKV0zTfqWPgWxpV2O411PY8cYvDEP59FCLfH4sJi09b78vkgcZyynhwPkLej0T4+xGZ7S6ylNPrJ4NieSezUcrMOx8iwE0JRQtHoOutXTFkXAhCpocg6PEB6NE1JEdP5gIVqRznz6O+9cwiclYIlq+bgfAt8VjxmFaO5fk+CccPcvW1Y2tr+0/SLYY3Peg4GWuXBiOg9WlEzgnChOAwbEz3ReA7m7Dw/qI1ci22juPw6ZO+cDsXhbBJEzDroD/eUhu+ZueNUaGB8HZNQsz8IMw7WDmPBtyK8nj9ZFws72Q2bn4I3bQBc0dKp50k7NscgYgvIxC5LxF171L2aQ8rVJHKcf5c75mM6T2VMnokAjOm/YBEd1d4ebsi+l2lHCvPF7TwTzTuF6wOacKSrG8OGQptXReSkqTni/38+++/2hqZUdOmTbU1c2B5NzeWdzITe5d3N7fM3kW6x5o3IiIiIgNheCMiIiIyEIY3IiIiIgNhm7cykq78lf93yoLNp1Lw78UrSL0K6OoPXwIOyuKinAY0qeqEu+pXRs96leEkO3WAbYDITFjeyUzY5o1K1YW0q5j2xwUsOJSMv5OuwFKBgpuQf4v8mw4kp+OTQxeVf2ui+m8mIiIi+2N4K2VS4xa6PxkHlNBmFgeS0tR/s/zbiYiIyL4Y3krZxpMpapgxG/k3y2ViIiIisi+Gt1L242nzBhhp30dERET2xfBWyqRzglkduVSSSfyIiIgoLwxvpUwa8ptVChu9ERER2R3DGxEREZGBcJy3Uvbg1jPamjmt6lpHWysfHPeKzITlXX/S0tIwZ84crFmzxu7Ht7IgY58NGDAAEydOhLOzs7ZXHzjOGxEREdmdBLclS5YYMrgJed3y+uXfQfrBmrdSxpo31ryVJda8mRvLu/507dpVPa516N4L7rU8tL3GkXg2Abuif1BrpbZu3art1QfWvBEREZHd2Sok9BTcHPs6qIvNzAd+xcxBv2pbwFuNXNRFuNe2vm6j1hxWVAxvREREZpbX9TcOFqBrDG9EREQmcnV9hrrYvBRxm7rYvHg8FS/+l6ptkR6xzVspY5s3tnkrS2zzZm4s7/rTrl079bb7gOH4/afv1fVbuvdW15POGev4sGfPHm1NH9jmjYiIiErNys8+QCuv5mjVonnmOtH1Ys1bKWPNG2veyhJr3syN5V1/bDVvJ86cVW+NqEGd2uota970gzVvRERERAbC8GZwVSo54tuht2HD0M4IaFFX20tEREQVFcObwXnVrIpmNaqiaY0qmN2zDZb174B2dY1T9UtERNe6ePEidvz6K44dPartIcrC8GZwlRyzBloUtzSogRX334IZd94Ejyp5z0PnWd0VDZUl508SEZEeRP3wPW5pdzPu63MPOnXwwYTnxuHKlSvavUQMb4bkpKSuPl518UHvtlgY0F7bm8XRwQEDb2qAb4d2xmDlNjuplYt66Hb8T1m2j7pDfQ55LnlOIiIqf18sX47ECxfgU7clqlZyxfKlS/H0mCfKJcDprE8jaRjeDObWBjWwZnAnzPVvg7ubeaC6SyXtnmvJfdP9WsE5JasHr3O2mjq5X55Dnmut8py3NnDX7iEiovIS9vx0/DD4Xex85HP8b8j7qOFaHevWrCmXAJfGGj9dYngzkOFtGiL8Ph+0qFVN21Owq8oZ08Kf9yDp5H+4knhO3ZeUegVp6VfV9ey8lOcMv6+D+juIiKj81G5cHx7VauL0pXPo3LANvhs8t8AAl7ldCrVkl1Is2hrpCcObQdzfqj6m3dEKTtlqzg6dPo/lv+7TtnLaeeQkBn70NWZu2K5uXzl3GleSLuDAuUvo/NEGDPhQ7otRn8NGnlt+x4AW+plAmYjIbI6mJODW/3sUnZY+joPnjqFzAyXAPZB3gFu1YgWaN/bEiolzUXdZPD6d+BY6tm+HHdut3/0llXw5RVsjPWF4M4BmNaogxK8VHByswe1K+lW8GfkLer/7Jb7Y8Ze6z+bEhYuYuGoTBs9fi93xCdpeqytnT+JK8gWkuFTDn5eABdG71eeQ55LnFPI7Xu1+E5q4sp0DEVF5qFuvHjr7+uJY0incvWqcNcBJDVyuALd86RI8P+5ZpKWlwS3NWf3+vqB87x+Pj8ewIQ/aJcAlX1IOFqQ7DG8GMMXXC5UrOanrcin0uS82qpdDZf3fM4lISknF5dQ0vPe/nbh77kqs3nUQ+UWvK2eUAHcxEZXca6FSTY/MS6vynLIuKjtXwuTOzdWgR0REZcvZ2RlLv1gJ3y5drAFuZd4BbsJzz+HqVeVk/r7n8GiXgerPvtHvOQy79V4kJyXlCHDyuHnvvou1ys8VlXRWSLzI8KZHDG8617xGFfRomjXF1KKtf+Dbvf9oW8D5yxb4ha2A71tLMXfjb7icVnjj0isJJ5B+MQmVatRWApz1ueU55blt/Fs3wQ0OKWrQIyKislWtWjUs++IL3C4BLjnvACckuL10zxNIv5qOg6ePoJKjExaPnInhtwZkBrjtMb9gohL03nxtOl6cMrnIPUgvW1KRyg4LusTwpnP3tqiXebn0oiUN8/63U13P7oIS4JKU+4ojLeE/pF9KVgJcHTgpIU7M27QTl1KtzyO/8752XplBj4iIyla1atWxdEW2AJftEuq2hxYgMvA9NbilpadhyGeTcONrffHKN+/DycER4SNnZAa4+++7DyuWL1Of8+yZM0g4fVpdL8w5O881TvbD8KZztzWsoa0BG/f/iwspqdpWyaWdVgLc5YtwlgDnVksJgamI2pc10fPtza09T21Bj8gQdu1AxoZ1WUtGRo5l2dZTmUvMQTYNIH2rVl0JcF+stAa4bJdQW9duij4tuqjBbfhnL2B17Eb18W98Nx+vrM8Z4OSSaTWXKmhc0zru519/5WwrnZ+ziQxvesXwpnMtalXV1oAd/57U1uwlQwlwx5FuuYxKtTzg6FYzx+9oWbeWtqYFOCXoEeld+uKFqLlhTeZSq1atHMvnv1zKXGasOaL9FJF+ySXUpV98YW0Dl60GLtWSimGfTUHE7ijUqFkTQcHBcHJywpvfLcgR4N594EX877lP0ce7q/p8f+3fr94WJC3tCi4k8ztfrxjedK5W5awprv67UAq1XxlKgDsVj6tKgHOuVRcn060dI0StapW1NYU8ToJeChuvks5dTUdt5cQkc6ldO8dypZJb1nKVU4uQMcgl1Mw2cEmncNvSx+H9/oNYvXujGtxWfhWBCZMm48MFCzID3OsbPlbbwI2762Hc1rQd2jRsqT7X338VHt5OX2CttJ4xvJEW4I7jamoKnKpaG8HmSQt66SmXtR1ERFRW1DZwSoC7p08fXLAk4/CF42jSpAlWRayGT4cO6mP69R+ALl2tNWyfbVut3tq0adBCvf1rf+GXTU+dyxoDlPSH4U3nzqVkdURoWKOAYFVSGVfVYFbfOasX0rmLeQzOaAtwFgY4Kn/SsUZqGWSR4RVkcX0tDMdnfYT4dz9D/LzPcezYMXWJj4/Hf//9h4WP1MGb/WthTLfquMu7pvZMRMYgAS586TJs3/k7Nv74E7b+ugPtfXzU+6RN58Tnn8OW6Gg4KP/N7D9e3WfTtqE1vEnNW/b9uV28nILkS/yO1zOGN507dC7rMmWnpvW1tVJy9SpuqZPVxu7AaeuUWtfQgp7U1BGVNQlslSpVgouLixrWJLjJduXKldW2QTWae8G9kSdq1auH2nXrZl4urVmzpnp/x+Y10etmd4y83Q0vD/LKfB55DlvPbqLy8t2Gb3HzTTehQZ3amcvNrW/Cd99+qz3CqknTpmh7881qubX5999/sWKZtVdphvLfw+FBqBN0B7rNeQRjloVg5e/fwdmpEs6ePVtgj9P/zpzR1kivGN50bvt/WVXX/t5NUaOKi7Zlf/Lc/t5NtC0g5vB/2loelKCXelICHOe9o7Lh6OiYWbsmi7u7Oxo2bIjmzZujZcuWaKoczBo3bqzuq6cEN+mlV7lqVXh4eKhLXSXI1anjgRq1auOGG25Qf0Zu5b6qyuOyP7+sE5WHSePHIyEhZ7CSoDVpwnhtK3/yGXjvgw8xctSjaueGmrVq4fzlJGw9vAsLt0VgUsQspKVbx237+++/1dvcZCL6U2d5yVTvHDIKqjstB0l2HldGzkTK04NbS3YGI1NjRQ65LbNG4NOf9+CNyF/U9evl5uoMJ+XgJAP8Zjct4HY8dkc7dV2KRc+5q3D4TCGNVh2d4FK/MRxdXLUdOa3qmjXAcHmQLzMzKe/yXlokUMlnQGrJ6tSpg+pKMLN9Ji5euoy9fx/EvkOHEXfkGI6fPIWz5xPV4RHEMyOHwb/b7ep60My5+Pvwv+rP1qlZA82bNIaP943o0tEH7tWr4cKFC+oi80bKz6enpxd4eUlvWN71p10763fqiTNn1dvCSE2basoe661Y8hA6eroi8rvvtR1FI2X3tBL8pHepLHK5VG6Tk5Pxf8uWo5Gnp/bILEdOnMIR5TOU3eC7u6u3e/Zke006YO/y7ubmpq3pH8NbKStpeBMf9G6Lu5tZJ4uXKayeXb4R3+49rG4XRxXnSniquw+e6NYOaVczcGfYiswAd2/b5nh/eE84agfEH/b9gzFLflDXC+VUyRrgnK+tFWR4K1sVLbxJyLK1aZMaMrn0KVLT0rBtZyx+/GUH9vx1EOnK58JBOZFwUE5KHBwc5QfVn72alophfXthcEAv9edGTgjGZTXTKeVc+ZmMq0o4UxZHZKBbp454aEAAPGrXxPnz59VLSxLeZLEFQb1jedcfu4Q3xYkXrw1a9nZFKes79v2t3mbH8KY/vDZgALNi4pByxfphknD13tC71QBmC1qFkUfd36El/jfhQTx3d0dUcXGGe2UXNKntrj6HPJc8p+35ZIqtmd/GqOtFkn4FaSePIeNK8WZ5ICqIhC+5fCm1bXI5VL5Yk5Iv4ot1G/DEi9Px7ufLsfvAP4CzKyq5VoGTcvLgqJxIWANc1mdDzk9tISxdOWmRT4TcL49zrOQMJ5fKynNUxk+/xeK5V9/C99Hb1Euy8jurVKlifayyGKkGjoyvUi03dXFUvqvzUtS2ccVx/PSZa4Ib6RPDmwH8c+EyXo0+kHnwqOTkiOB7b8cPzw/GGL/2aO9ZF9WUQJaXdp4eWPVkf8x9sAca5OqtOuy2m9TnkOeS5xTyO6au2YLDZ4o3p2mGEuBS1QDHefDIPqQsSmCTNmwSnqK2/IJxITOx8tsoXEq7qgY2xyJ0MpBaM7kMKkt+5Dkk/F1xcMT8ZV9i0aqv1f3Sdk5q++S12EIcUVlQT0KUxalaFWDZCAT07q3dY1WStnF5SVVO2uNPJ2hbpHcMbwax5sBJvBb9F65ku3zjVbcmXurjizVj78fvU0fipvpZMyKIl/p0xtdP3Y9bm+TdS3X4bd7qc9ikK8/9ytqfEfH7AW1P8UjNW+rJo2qQI7petrZmcplUZkRITErGWx99hvnLI3AxLV2tKZODWlHZnk8WpZRad+ZDLr06KaEwcvPPWLFug/ozUgsnryXrOYjKWHwsdv62Q9uwyuwtKpdXbUvDdmov1Otx5ORJ9RhAxsDwZiAr9p/EyC9/wYFT1w7h4ezkCLds1evSvm30He3h6Fi0moKDynMOX7geS7bv0/ZcH2uAO6YEOB7kqHgkGKWlpalhq379+uoly5MJZxDyzsfY/XecEqoktGXNAFJURal5y06thVMC3JqoH7E99g/15+S1qLMzKOvyOuU5iXRnxLJrOjUU5fJq8uXLOHEmn6GhSJcY3gzm9/NpuC98E8Yuj1I7FSRlm6g+9UrWAUXarQWvic5xf25ynzzHM8pz9XnvK/z67wntnpLJSEtlgKNCSQCSsJaamgqLxaLeurq6qpdJpZ1b8sVLmLUgHKfPJ8LJxfW6L1nmqHkrYrM1+V2Ozq74/Mu1ajs7+VkZI05q4OT55PXKoj4nUTkqrG1cYZdXpUnAoWPH1XUyDoY3A3J0r43v/z2v9gb1eT0cd7y9DH6zlmN3fM4P6Bc7/sLdc1di1W9/qb1Ucxv5eaT6HJF/HFZ769lTRppyMD51TNsiM5ODg4Q0CTspKSm4ePGiuly6dEndJ/fLOGsS2iQcSXCSGq4vv43CiYSzSoF3xNX0K9e1ZChBK3fNm1zWz+uxuRdJeokXL2PDT1szf14GAm7UqJFaCyedKS5fvqz+m4jKS2Ft42yXVzMWN89cfFu4ZF5e/U/5jCVxNgXD4VAhpcweQ4XkRT0gnjuNq0lFG0yxvacHXunbBbc2baDtAfp/uBp74ku3geq64V20tfLBoRPKl61GTcqrhDKpWbMNhCuL1LBlHyE+uy07diF2//W1v7SRHtT33tkVzRo3Urcjvt+E/04Vr8x39mmL29q10baySUxEwnffIik9He697tF2li+Wd/253qFCnN86ot6KtBetg6dnf47iPi5j813qLc4rx4zECzjZ9zdcVj6fv/99UDnBKTgGcKgQ/WF4K2WlFd6EGuDOnsLV5EIG0s2mXzsvTOzVSf3Zvu+vVi+vliaGt7Kll4OZlC+pXZMaN7ncKF+KEtyu99KnLv2+E4mhM3Be+TfV+HihtrN8sbzrj27CW3RP9VZ15gxOdNuI3QfjilTrxvCmP7xsamByIHSuXQ+O1Ype4NbtiUOPOStx99xVpR7cyLwktMnlxBo1aqiXGKWWLXvbs4qwXFX+bURGdHtwHHredRcvlxoYw5vBqQGuTgM4Vs05hhtReaqG/0MTt6lo13AsmlUfgabVRqBRlUlwzPgns/2Y0Zc0hjcqBR5166q3UotmW4TMzZtdcR/n4Lcxc4n5MxHx8WyTbGS8bFrKSvOyaXbqJdTT/+Hq5WRtjz7wsmnZ0stlJGfLu6he+V941r+k7bH69qe22BvXStsyOOUz1zNyHSyVXVF91lxtZ/liedef4l42laE91B6itnHcFBLIwt55B/f0uVfbU7LH1ahVC09NegG3db1D21MwXjbVH4a3UlZW4U2oAe7UcVxNuajtKX8Mb2VLLwczl9QFqFH9OOrXzhp+5tLldLS47TecOFlxplGb0vEW3OzVDB1DXtP2lC+Wd/0pbngrTTL1VeyBQ7hsyX8IqbwwvOkPL5tWIOol1HoN4VC5qraHqHw4OFxVziauqnOJSmj7fXcyHnxsf4UKbmL5qdOYf/yktkWkX9Lm9M/D/xY7uJE+MbxVMA4OjnCp2wgOrlW0PURlb+wLf6FrQCwq1d+Kak1+QceesYiMKtqwNkQViY+PDzp26qRtlQ+5KvPXv8eQeDFnMwYyLoa3CkgGbHSp5wkHl8raHqKyZZvmqii8mzdFv26342H/OzG8Z3fcc3snNPSoo91btqpVqYzut7THgz26YUSvu/DAXXfg9nZt4OKc91h0RIVZsmTJNVNWlSUJbn8fPYYziYnaHqoIGN4qKDXA1ZcA56rtISo70huzsPAmI775d74VbRvVg0PKJSSdP4eLF87D9Uoq7mrXGje3aG59YBnxqFkD/bp2Rq1KDrAkJSLx3FmkJSehQVVX9O/WRQ12REYiwe3A0XicPlf0sUBz+/vPveqtkdqDmQE7LJSysuywkBeZXzT15FF1vtHywA4LZUsvDbifeuopHDlyBEePHtX2XKvDjS3RwqMm0lJT0aFbd7Rq10FZt2DnT5tx5MBfqObujh927kHC+es/8BSVTHU16M47kJp0Ae61auP23veidr16OKH8G7Z9/y1SUy4jzaUyIn+O0X7CqnHjxmjSpAnmz5+v7SlfLO/l6+GHH1bbHkttm6zv3r1bu8f4RowYgaCgIG1LH9hhgSosBycnuNRvDAfnvCctJioNderUgbsSvgrSyrOBGtw69+yNO/sNRKNmzdH0xtYY8NgYdf1iYmKZ1b55eTaCktDg7OKKwU89C++OnVC/cRP4dO2GAY8+odZguLtUQp2aOcd2kwO1LEQie1moKOVCAo0Et4kTJ2p7SA9Y81bKyrvmzUYm4049cRQZV8q2tx9r3sqWXmoifvzxRyxbtgzJyck4c+aM2gbORg5qrs7O6HZTcyRfuIDHg19F9VwD3v65Yzt+WLUcLm7u+Hn/IW1vTvkdHAs6aOZ3X5umjVHZckmt/QsYEajtzbL0nVk4d/oUTl8BjpxKyHyeWrVqwcvLC9OnT1e3yxvLO5mJmWveGN5KmV7Cm5DglnryWJkGOIa3sqWng9kvv/yC7777Dv/9959ac5VdJUdHNHZ1sIa3l5Xw5p4rvP2mhLeVy1G9Tl38k1T6U/g0qlEdqadPoFV7Jbw9nH94u1qjDs5eStH2AtWrV0dgYCDatm2r7SlfLO9kJgxvOlLRwtuIX87AUrROd2VCgpvlxFEgvfTnNXVxcsRXQ3y1rfLBg1n5s1gs6iT1ua366D0cOXgAt/fqA1//e7S9Shm9ehVfLfgA8YfjcGff/mr7Mxtpm2aTvRYt9/7s99nWcz8m+/bh/X9i8buz1fWRk15E9Ro11XVx4ugRfPH+XFSt7oanpr6KOvUbaPfoD8s7mYmZw5vTqwptXRdSU+3bsP6CcmZfnn47l4YzqfpJbw6OTnCsUg3pl5LlKKntLR0ta1dD7xb1ta3yUbNm1kHYDMq7vOelUqVKqFKlyjVLJWdnHNgTqwS4v5GmBDxXZZ/Ubm1eE4GjSqhzUwJU34ceQa06HnB1dVUXFxeXPBeZ+N62yO/Lvjg5OamLhLXsiy3kySKdFP7Zvw8JJ/5D3J9/oEr16mqIlPWoVSvU3rM+vl3Q0e9O7V+lTyzvZCb2Lu/yHWMUrHkrZd+fSMEncfqZrsrmaqpFvYSKq+naHvsbe5sX7m1ZvuGNNRH6JV89361cjl82RanhLTu5jNrvkUDc3Knsam5P/3ccX3z8vlrTlv1rUYJe89beGPrUs6jmVnAnjPLG8k5mYuaaN4a3Upau/HWn7bmAA8mlf5myuKwB7qjMm6LtsZ8b61TH271uhpN2yaq88GCmb/L1s3/XTuzc8qMSmo7CqVIlNLvxJvje7Y+GTZppjyo7yYkXsH3zRuz/fScuJSfBvVYd3HxbZ9za7U61ZlDvWN7JTBjedKSihTdxIe0qQvcl6TPAWVKQekpq4OwX4CS4TeveGjUrO2t7yg8PZmQmLO9kJmYObxznrQzUcHbE6+1qYEyL6rjRrRIqOzmoo8vrgaNrZTjX85TGcNqe4pN/i3ROuMmjOp7u5KXWuOkhuBEREVVErHmjCo01EWQmLO9kJqx5IyIiIiJDYHgjIiIiMhCGNyIiIiIDqfDhTQbtJHMy43vP8m5eLO9kJmZ/7yt8eDPSiMlkX2Z871nezYvlnczE7O99hQ9vMnE0mZMZ33uWd/NieSczMft7b4qaN37AzUfec7PWRLC8mw/LO5mJWct7dqbosFCnTh1UrlxZ26KKTt5rec/NiuXdXFjeWd7NxOzl3cYU4U3Ur1+fZ2gmIO+xvNdmx/JuDizvVizv5sDynqXCz7CQm8ViQXJysnqblpam7SUjk15HtssnZq9Kz43lveJhec8fy3vFU5blnRPTl0BphzciIiKi3Dg9FhERERGVCoY3IiIiIgNheCMiIiIyEIY3IiIiIgNheCMiIiIyEIY3IiIiIgNheCMiIiIyEIY3IiIiIgNheCMiIiIyEIY3IiIiIgNheCMiIiIyEIY3IiIiIgNheCMiIiIyEIY3IiIiIgNheCMiIiIyEIY3IiIiIgNheCMiIiIyEIY3IiIiIgNheCMiIiIyEIY3IiIiIgNheCMiIiIyEIY3IiIiIgNheCMiIiIyEIY3IiIiIgNheCMiIiIyEIY3IiIiIgNheCMiIiIyEIY3IiIiIgNheCMiIiIyEIY3IiIiIgNheCMiIiIyEIY3IiIiIgNheCMiIiIyEIY3IiIiIgNheCMiIiIyEIY3IiIiIgNheCMiIiIyEIY3IiIiIgNheCMiIiIyEIY3IiIiIgNheCMiIiIyEIY3IiIiIgNheCMiIiIyEIY3IiIiIgNheCMiIiIyEIY3IiIiIgNheCMiIiIyEIY3IiIiIgNheCMiIiIyEIY3IiIiIgNheCMiIiIyEIY3IiIiIgNheCMiIiIyEIY3IiIiIgNheCMiIiIyEIY3IiIiIgNheCMiIiIyEIY3IiIiIgNheCMiIiIyEIcMhbauC0lJSdpa6bBYLEhOTlZv09LStL1kZM7OznB1dUX16tXVW8rC8l7xsLznj+W94inL8u7m5qat6Z+pwtuZM2fUDzZVXPIBr1OnjrZlbizvFR/LexaW94qvtMu7kcKbaS6bnjx5kh9sE5D3WN5rs2N5NweWdyuWd3Ngec9iivAmZ2QpKSnaFlV08l7Le25WLO/mwvLO8m4mZi/vNhU+vNnaQJC5yHsu773ZsLybE8s7mYlZy3t2FT688YNtXmZ871nezYvlnczE7O+9KWreyJzMWhNB5sTyTmZi9ve+woc3dhc3LzO+9yzv5sXyTmZi9vfeFB0WiIiIiCoKhjciIiIiA2F4IyIiIjIQhjciIiIiA2F4IyIiIjIQhjciIiIiA2F4IyIiIjIQhjciIiIiA2F4IyLDsmwJQdd27TBgYZy2JxpByna7geGI1/YQmcG1nwWqyBjeiEi/joRjgISxa5YgJaZZuSqLW1X5P5G+WI5EIezxAejaIavsdu0/D7Ha/fbGz4J5MLwRkf418sWgwYOyLb7wUHa7dpuOTXv2YMlDntbHEenF4XA80ncCwrfHo7GfrdwGoE16EhK1hyRsCcPo/l0RslnbUUR5/Rw/C+bC8EZE+ndrIKaHTM+2DIK3dheRHsWumId9cMXwT3dg5TxbuQ3FwvXB8NMeYzkQjZjDSUjRtovqen+OKg6GNyIyrs1B6qWoAYsKauFmQfz3IRjSVbt01akPJiyKRZJ2L1FpcKnqpvzfgmMJeZW0eIQPbIc+c6zt0yLHWctmkFqTloCYRUFZ5bVdJ/QZH45Y9WkK+Lm8PgvpSYhdluu5Hg9D1EntfkX8ogHW59iYgKjpQ9BJe9yQWTH8jOgYwxsRVWhxix5Bn0kRsNwTjLmz5yL4XiBqzgg8vphdGqj0eA8bB18nIDqoKwYEL0dMgkW7R3jA7wWlLAbIxX/A59G5atkcpVYn70OkUja9nwi1ltf7PRC/MQwjpkUqUbCgn8stCdHT7sGImZE43SoQwfJcI1vDsj0cEwYGITpXMoue9iDmYSDemhoIHzcL9i0ejVcis79m0hOGNyLSv3VjtZoDbQm2dVcoxKVIzJuzD65DF2JNyHD49/bH8NfnYoxy7Nu3KEI5TBKVkvqDsHDTEkzu5oG4dTMwukcn9Hh6OeLUPOQKry7+6N7aXX2oZ0d/tWx615ctP0yPWoLpjwbkKK/Ysgv7C/y5XA5+jjfXKQntrlCsDZ+M4fJcU5Zg1Us+Sq6LRNiXOU9e3Id+aP2MDJ2MJTMC1H3RsfvVW9Ifhjci0r/cHRY6WmseCrUzBlHKjeWL0dnC3xAsSFB2JhyD3BCVmlo+CPxoE3as/RBjlBCXsGUGBgSGIy5duz9PFsRvC0dY0GgM8O+Brh208mq5kNnRoSjit0arw+UE3B8AuYBr49GtF7yU27gDOYcU8fHJVn3n1UZ9jCWpOL+RyhLDGxHpX+4OC4OL2F3hirVJt9foJdi0aVOuZSo6q/cSlS7X5n4Yp4S4laM9gb1hmF9A79L4xY+gz9NhiLrihydfeA2fRi7BmObanUQahjcqPUVqTE5Uim72ha9yE7c5Bom1PODhkX1xU8fFIioN0YvnIfactqGpW9daY5xkya8tWTyiVsvF/AC8PDsQAb394F0/EccOW+8tDs+bO6jle+P3UTk6HiTtjIHUufnczP7aRsbwZg/lHFLKeiBIIsPw6IvA+92Ag/MwYGAQwtdFIer75Zg3bghmbNEeQ1Qa9i/AiO6dMGRcCEKmhyDo8R7oMVP5VnYLwHA/62mDR33rmGyRs0KwfN0MhG9xhVttdQ/mz4pUy2rIsFcQness49qfUzdz6jgGwV2U40PkBPQPDMNyJcQtnzUC/adFK08QiClDi9j0gHSJ4c3oijAQJJF5ucLv1e/w4ZO+8DweibDgCZgwaTYiTjdHhybaQ4hKQYdhwQho64a4zRGI+DICkUpu8+4XjCXrQ+GnNUJzvWcypvdUQtSRCMyY9gMS3T0waEYoApq4InZxECYEr4bblHfw5A3Wx9tc+3PaHTkoz/XRJswd6QvXveGYMWkCZiyNQ115DWsnw8dJexgZkkOGQlvXhaQk+44s8++//2prpUhq3sZFwmviBqx5tGxHt46d2QkjlkEdCDJYbw14yvHvYtO0aVNtzRzKpLyTbrG8k5nYu7y7uWXv2qFvrHkrEzJIaBhG9+2UdVlzWBCW784ZVC0Hl2OC7TGd+iAoMgYLBsrjs+ZxzK3ggSCzyKXVkGFdtd+ffdBHq4Tt4QjKvL8dOkltXrbXlzmQ48IITPCXxwxA+BHrfUk7wzGhf9bPXnvJNgGxiyagh3ZZt8f4iEJ6WxEREVF+GN7KgHWQ0HDEOPXE5BlzEToxAHX3R2LGw48j3NYQ9WQEnhk4A1FH3OAzMhhzp/gjftZozDuo3Z+PggeC1GiXViMu9VIHapw7tS8ggz4+Ea52JRf71n2OeO8nEarePwge0o7u4VcQeUl7gCby3RXw/ngH9uxZg8AmSqhbNgJdA8MQleSFQRNDMXfGZPi55rxkG//JeIzf7Ikxr0+Gv/IzCRtDMPajnN3UiYiIqGgY3kqbNkgoGo3BytWhCOznj4BHQ7FmwXC4Yh/CPrHWqe1bMQ8xyp6Ad9ZiyRRtoMS1oZlz4OWrwIEghUUJXGHY5zocC1dPVwdq9B86HXNHewB7P0fEXuuj/F7dhCUh0rsp2/2Ixq5cYzR6jJ6OMS211rPKvy1Ma4D74VptUMl+gQhdlTV3n7A0H4NVMkikct/cjyar4wfFb7GOQURERETFw/BW2rRBQr0e7Avv7A1EO/uhp9zui1NCTAL27ZZRGHui113Zrrm7+cC3pbZekAIHgtyOmI3KjWU5RmfrjTpkoTpKKY6dlscod8dHI3xWEEb374EeXW33W3AhV6+HztkHcty/S72c6zF0VGYD3Lx4+XdHZr+mJl5oLbecdYWIiOi6MLzpggVJZ61rrjl6AFlgKUbbsPwGglSHKW0+BkuuGaR0E6Z2Ue47IpdVxyJscyr8nngZr32yAUtGS/1YIRIvqBnMvRpHyyIiIiorDG+lrbWPdZDQ9VE5G+nvjsF25cb11tbwVP7zUiu0NiJadtocjsL6QgZnLHwgSG/4Si9U5bliknIPUuoBNyV3xW+0zvEYMGWuelnXr60nEk8WoU2abQDUVeuxjx0QiIiIygTDmx3FR4apgzFmLvOjkeAxCONGKmEq2yChkYuCMGBkOBKcfBH8hMQfwG/wcLjBguWP98GERZHWxzwYAUvm9cZ8FDoQpAf6PjpIee44zBs4AEHKc0fJYI3vj8WQmdb2dq5uddXbyE/CECn3TR+CVzYXoTZN/m0PuQHHF2CI/wiEfRGFqC/mYeyDM/LtHUtEREQlw/BmR5b9UepgjJnLhjj1sqLPlLVY8lIAvBOsg4QGzdkIy62BmPvdQgyqb/1ZdAzG2ncGwds1HlFzghC0NBWDPgvF8Jra/fko0kCQ3abju4/GwNczHpHKc0+YNAGzv0pAcx/rpVGPgW8htJ8nXHeHI2jSi1hddRLeeaJo47L5vPSd9d9miUX4GxMwYeZyxHu2VjslEBERkf1xkF5di0ZIu7GIaDkZG1YHonyGuTU2DlpKZsLyXv6StoTh8RfCsU85lHlP2YCVI430zR2P8GF9ELbfH3O3zoV/VW23TnGQXtKlpMjliFBure3iiIxGORCog0xnX64dIJpIX2zlNv/B0fN1JBwjnlaCG3wxZkYw+jbQ9huIi3Saq+WuTmpP+sXwphdHlmP0sLEIU9ukycTZA9A1SL46vDFupLVdHJEx+SBQBn+eMRmDOrohPtcA0UQVxoE/IV29/KZ+gHH9hiOwt55Pu/chYtwQ9AjM/ln0xPCle7Bn03T46bzWzewY3vSiamN4KR+mFWqbtBlYEH0aXp0DMXf9/6kzGRAZlyd8ZfDnfoGYHr4W07spu/auR9Rx671EFUX8Eeuo5m5VjVBvlYCYzfuQkGssTzIGtnnTmQMHDmDNmjU4ePAgrly5ou0tf46OjrjxxhsxbNgwNG7cWNurf2wDVJ7k8lMfhB0MwId7smYLiQpqhwmRfgiN+RABcna/OQjtxkXC69Fg+G2bjfD9FgTM24PQu6DOyTtvehhWbI9XO//AzRsBz76MqQ/5wC3b88/dFQp/dYzEfZjXYwgWJGR7/kuRGOsbhO0PLcGOl3yQtHs53pgxD5F7rd81bm3H4dMVY6CO1pOehNjFryDogyjEyy9Uft+g1z/E9J7Wbt8yx2+fOXEIeH46UleEIOqkFyavt04Vpwcs7/aQR7m1ldGJS/AaPsf4d6OQkA549JyOT2cPgpeT7WfUJ9BklY2Cy7HI+p3jQlKx/A3l+ZtLW2cvvNduLCJbTsaSl07jzbHh2Kc8gWvHMfj0/XHw3B6CsUER1n2tA/HBZ5PhqzXbshyOxLw33svxOzPLsvbvyUFtW+2PqDw+s4W//mgE2V7ndODziWHKZ0PZXd8f0z+Zi0HN1QfZHdu8kS7s2rULYWFh2L9/v66Cm7h69ar6ukJDQ/HPP/9oe4mKw4KE7fOwQDlmuD30pDVYZRO3aB5OP7UJe/ZYg5ttTt7w31zRU5s3N8BjHyJnjsDji+TilCc63yWhaiO2x8ozKPZGIUImB8H2rKnddsaobZd6dvFR5xCe8PAMRCb5qvMMy3P6JskcJyIJ0dPuwYg5u+A1Svl9s0Mx5uZjiBjfHyFb1ENWptxz/JI5qPM0b/fClGvmafaA3wtzERxgDfk+jypla7ZyMiKbhZbj7JTA9aU3Po3Zgz3ZO6kdnY/xbyRh4IxgNQhZdi7A408MweNvnIZfiFJOu7jBsj8co6dFWsOVImHzMkRX7YtJapOFMfCVy6TjR1jny/Yepby+QCifCOWlB1jnvH7BL2smnOyK8/rldU6MgdfzoZgsl4xPRiHkqXnqpWSyL9a86URaWhqCgoKQmJiIdu07oP+AB1C1WnXt3vIXFvoGzp07o65XrVoVEydORLNmzdRtPWNNRHnKqzZCOVZ0m44PZw+Cty282WoB7grFjnkBWkNpCyLHd0LQRk+MWbEB49qqO4H0GMzwHY3llgB8uCsUfvvnocewBXB/fg3WjPay1ox9Vxe+B2Nw6JGV2PS8N/a92wNDFnZAaMxcBOwMQbunI+Axcgk2TPGx/i4ZYFpq7Q7OQ5+BC+Dx0iYseUg7jGm1dtHaa0vQat48RlufW29Y3u0h/5o3KaNblXKg1s8cCceAvmGI6zwdmz4dpAafzJpZrea4yOU4s+bOQ3ncpqzH2Wq0lFcxfeuHGCS/2FYmlWg3ZrXynDKFYrryuA7K41yHY8mOYGsos5VrjSVyLDoFRcM3ZBMWDpZXm1VbljWaQe5/e1Fff9brDFVeZ4D6B7I9ly+mb1qIQXkmw5JhzRuVu7i4ODW4Va1aDU8+/RyaNvNC3br1dLM4OVm/BZxdXHDp0iXMmTOHNXBURFkdFgIDlMPKlhAM8R2C8Fyzh3h11MKUSpuTt/kg9M08kCmcfOHXW1b2I05aWbftjl7KD8Vt24UEacOzJQ6e3SYhUHlMwu59yp54bN+WoBx0e6GnhMUuwzBGakwWj0CnrkMQtCga8Vold/xWZV25jZ3ZI6t3rHqQVBw7rdXOWeWY45dMQ8po5uHdNk/z2aTM2q5rFbEcZ+qMDtkfZ9PSN/NyKKq6WV+DR1/42+a+dvJCG1m3XEBmE7bEfYh4PwRjh/VAjx6d1OAmTifl/2qvVczXr7xOn8w/kG3moNNIuqTuIDtieNMJW42jh0dduLjot7HrbbffhVq1PRjgqBiyOixMDl2CTfMClH37EPZxlPXuEvGxHkS2x2BX0nZEbfdA3x7e8O7oq+yLwvaTsYjZC/je2dkaDJ28MW7tDqz5aDICPOMQOWcs+vRQApp8/NKtBzX/GdfOAbzps2FZl7CI9KCmO9y11WtcikZI3yEIWXYIXgNfxsuhK7Fphr92J1UEDG964+CgreiTq2tl9Og9gAGOrpvlUqp1RbnNvw7AGz7qnLzrEZW9hi5dCWPblFtXX7TW0lTnbnJhayO2v/8jol17oXtb5SSosx+8pN3bql3K/73g11m7ZmOxwOLkCq9ugQhdtUO9dIqkSIR/lwBPH1814EVv2QXXXHMAe9TS7wkV6VnRy7Fdbf8GEcoJidcToZg8VDlx6uwFS8L1tDwrp9dPhWJ4oyKxZUppIskAR8UTj5jvo6zjFwaNQJ8gqXFzw6ChPbNdJs3NA4OeCVT+n21O3nXhCBo4AuEJgO/UMfDV2vO43nWf2jZn+bJIoLeftb1Pk87w91D2zV8OS8tBauNy1bYZ6BMYhuXa61nwhfR0cEPrG5Vw1zFQbdNjiZyA/rbHKL8z5PEJWH7E+uNExVP0cmxX7jXUz1bc4jCEK+U48v2xmLD4tPW+TB5oLOc0B+cj5H3lBOb9CLXZQE7l9PqpUAxvBrD3j9346ssVpb5EKMvhw4e035pTjZrWSVYvnD+r3jLAUdHFInzSBOv4hZGxsLQNQHD4d5jerZDarI6TsXZpMAJan7bOyRscho3pvgh8ZxMW3p+t9XNVJahJ7YDCr5u2Am907219fo+7Omdd8mzQGi0SVmCG9nrWQ55vLSa3lzs9ERi+BtP7ecMSG259zLT52KU8V5tSaGxNJlHUcmxPHcfh0yd94XYuCmFKOZ510B9vTbUN/GHjjVGhgfB2TULM/CDMO1g575Op8nj9VCj2NtWJHTt24OOPP0aTps0x9ZU3tL1WL0weh/PnrKGptLW6sTWmBE3TtrJsiFyHiK9WoHKVqugdMBjVqltbpVosKdj0/RqcO5ugy16o7H1HZsLyTmZi5t6mDG86UVB4+21HDP7c+4e2VXrk0minzl3QunUbbU+WlJQUvBbyEhISTqkdKrxatUF1N3flZxzUAPfHru3qWHAS4IKDg9GggT4m9ePBjMyE5Z3MhOFNRxjerg1venHy5Al88F4YTpz4T9uTt06dOuGpp57StsoXD2ZkJizvZCZmDm9s80ZFVr9+A0x7dSZGjnoCt3XuAu82N8PbO2tp0sR6ufTIEbbuJiIiKi2sedOJgmreLl++hFMnZaK4UuYANGzoCRcXF21H8fz55x94Z/ZMdWiFt956S9tbvlgTQWbC8l5xHDp0SJ0u8ezZs2jevDm6desGf39/VK5cWXtETtK0JSoqClu2bMHhw4dRu3ZtTJ48GS1atNAeUfGYueaN4U0nCgpvr736Eo4dLZvarA63dMLYZydoW8XD8Fb+GN7MjeW9YkhOTsbzzz+vBrfsJJCNGjUKfn45e45GR0fj888/z/Px7777LqpX189Ui/Zk5vDGy6YGcEOTpuq0WaW+VKuGxjdwlm0iovK0cuXKa4KYkH0yLNOMGTNw7NgxdZF12Zff4+W5qOJhzZtOGKHDQmFY81b+WPNmbizvxifHwNGjRyM1VZuJpISkGczChQsNVatUVKx5IyIionL3448/2i24CXkueU6qWBjeiIiIdEAug0mHA3uT59TVJTYqMV421YmCLpt+sXwxYnf9rm3pg1TFPzb6KfX12vCyafnjZVNzY3k3pitwgMXBEScTzmDS6Ee1vfY1e+Ei1PeoA9eMq6hUQaKcmS+bMrzpREHh7ZWXp+DEiePaln6MeuxJdL2ju7bF8KYHei3vJ0/8hxUrlmHrz1tx7NhRpKWlaffkTWbukB5yvr6346mnnkaTZlknCZQ/lndjkdB22cEJV2R6G8XmDd9i8UcfqOv2NvLpZ3BXn3vV9UrKYb9KRrrhQxzDm44wvF0b3i5cOI/4+GPalj64OLugRctW6kHWhuGt/OmxvK9UQlvY7Dm4nGLR9gCOWcUmT/KlZPtmqla1Cj766EPc0rGTdQfli+XdGK4qoe2SoxPSZHDNbD6aFYpft0RrW/Z1Wzc/PD0lSNuyclY+aVWvpsPRoCGO4U1HGN7Y29SeeDArX59/tgCz585Tw9rogCbq0q65O5wrFd7c9sTZFISE/4VPvz2KRg3r45tv1sPZxVW7l/LC8q5/KQ5OynJtXJJD8fjAEUi6cEHbY19uNWrgnfAlOU64hWxVzriqLOnWHQbC8KYjDG8Mb/bEg1n52bsnFg+PGAknxwysCumEvr71tXuKTr6e/Mb/jF/2nUfoW28ioG9/XExOwvPPPYszZ85ojyp9zs7OaNTIE13v6Ir77uuPqtX0Oegpy7t+SW1bshLa0pUlL6dPnkTQmMe1rdIRuuBT1K2f9+fQSQlw1ZXFSLVwDG86wvB2bXjb+8du7N//p7alD3LZtGeve9TBfW0Y3sqfnsr7uGeexuaftuDNx25C0LBW2t7iW7EpHiNm/o5bO/rg8/AlOHV0HwIGDIUlrXy+umrXqomQkGm4u2dvbY9+sLzrk7Rtu+hYSQlw+dvx8xZ8+Hbpfm+OfeFFdLqjm7Z1LYmV1a5eMUxbOIY3HWF4uza8vTB5HM6fu3b07PI27KHAHAcwhrfyp5fyfvlSMrp2vQMulRzw38peqFalknZP8VnSrqLZQ1FISEzD6ogv0apuOhx2vYrklIIOhfYlQfGv+BQs/+ksNu5OUi89vT79FQwYOFh7hD6wvOtPqoMjLjk4FRqHvvq/xVj/ZenOhtB38BA88MhIbStvchm1akY6XDLK7vN1vRjedITh7drw9tuOGPy59w9tSx9kqJB7+/aHu3sNbQ/Dmx7opbzv/3MPHhz6EO5oWws/zr1D23v9Xlq4D7NWHsJDw4bgxaf6odKOiXCtUpqXLh3gVMkZlZxdrmkjtOynM3jh83j1UuqqlV/Aq8X11yraG8u7vkhwS4bjNWUoL3VcKuHyhfM4ePCgOu3VqVOncO7cuczl8uXL6uTzsly5cgVXr1rDlaOjIypVqqROWC9LlSpVUKtWrcylXr16aNy4MVq2bIkqNWriTOoV9ecKIrGgOq7qPsAxvOkIwxvbvNkTD2blQ8rzo48+ioDO9bD2jc7a3usX998ltHlsExwcnfDBa6PR4dIC7Z7S5ehUCdXca6N6DQ/1IGkzY9V/+CDyNO7p3RNhs9/R9pY/lnf9SJPg5uCkbRWuee2aqO1euuHhbGISDp89r20VrnpGOpx1HOAY3nSE4Y3hzZ54MCsfmeHNVwlvr5c8vInpi//C60sOqOttPR1Qu3rhtRnXy1nJaU3qAD1aA94NodbC1a7fBC6uVdT7L1y8glvG71PSXSX8/PPPcK1s3V/eWN71Qdq4JUlwK0KNm02bBnVRpXJlbat0XE5JwZ8nTmtbRaDEAzcdjwfH8KYjDG/XhrfLly/h1MmT2pY+OLu4oGHDRjkuBzC8lb+KHN7kq+r9rw+rAe5sUsGD/NrT3d4OePk+B9So6gSPRl6Zw5X0f/Mgfjt4SR3HzrttO3VfeWN5L39ST5XooMSdYgQ3cWOdmqUeHuT4+veZote8CSUkwD3jii7n0mR40xGGt2vD22uvvoRjR49oW/oxeswz6OzbVdtieNODihzebKQDwx+HE5F8ufTGpbqcmo7t+8/jo3X/4PT5VHg3dMD8QAe4VauMup4t1JOWwHcOIyo2CYsWLUKnTvoYQJjlvfxJjduVfIYDycv5s2fx0dtv4fCBv9V2aV5eXmjSpAnq16+PunXrombNmnB3d89s0yaLtHGzXcaXtm/SBs7WHk6WxMREnD9/HqdPn8ZJ5cT/yJEjiIuLU9vTNW91I55+4UXUrF1b/fmiqJRxVa2B0xuGNx0xa3hLSEjAnDlz0Pn2bug/4AFtr9Wizz5G7O87tS19kJq3p55+Di1a3qjtYXjTAzOEt7J0+rwFAcEx+P1gIkZ0ccRz/kCtejegavUaDG86oLfvd+mgcLEY7dzOKOFq1tRgnDrxn7anbNRr0BBT3piBOko4LKpqOuyByvCmI2YNbyJDhkd0MO4I8gxv5Y/hzf4OHb+Ito9vRiXHDGyY6IjaNd1Rp0EThjcd0NP3u3q51FFahxX9cunc117Fnt92aFtlq92tnTDhlVe1rcI5KP8y96v6unxq5vCmx8vYRES60aJRNfToUAcpacAf8UCa5bJ2D1GWyw4yN0Hx2rmNe+llPPrsc2jT3kfbU7ocHR3QxsdH/Z3yu4tD/m3ybyR94DtBRFSImxpbx5Q7d1HaGBU+ThaZi9S6pRXjcqlNJWdnDLm3N1bOfhN3+d6GCY+NxKwXJ+H5wBF4UNl/p28n+HjfhGaejVCvTm1Ur1oVri7OqOTkpLa7lEXWZZ/cJ4+Rx8rPyM/Kc8hzyXOOemAA7utxJ1aGvYnByn753cUl/0b9DhxiLrxsWkZkkMUlS5bg+PHjaq+5vMgHMSOjeGdu18vJyRG3dLwN9w8aktnwNTk5Ce+/G6Y2di2MDNL72Oin1A4WNrxsWv542bR0HIy/iP+LOoYH2iUj/dIpNGrelpdNdUAv5f0SHGFxLH54E92qWb/7Y/f9hbfmf4plc0Ox568D+CvuMM5euKAsiUhKvojLKRZ1qI86tWpg9JDBaH6Dp/rzcUeO4ZOVX+Hc+QuoUqUyqlR2hXu1aqhVowZq16yB1l7N0LZVS/Qb8yzeDpqorqcrx6CtyonI9XC9mo6qOolwZr5syvBWRubNm4fY2FhtSz8effwpdOnqp65Lj1bp2VpUox57El3v6K5tMbzpAcNb8cjX39lT8Thz4hgsKfkfzVwqV0Wd+o2RfOEszp0+zvCmE3oo73IAveDorN4Wl5yqd8s2XuFjL05DamoaYmL3aHvy1qh+Pfy4bJG6fufwUTh+quCx29q3vhGeys+8Oek5uCnB7qryYn++eH2Hfnm1Na6mFfMCcelgeNORihreXnrpJbXb9jMDgZuaaDvL0YqNwNY/gHvu7YcHBg/T9loDXGJSEWrenF3QomUr9YzRhuGt/DG8FZ189R3e/zvOJ5zA5TQg7qwj0vOoUJCK6ea1M1DNOSOzvDO86YMeynsqHHHxOmvdpDRlD2+/792HIc9N1rYK9uUHc9Tbwc9MVG8L8/XH76JJo4YlDm+i2tV0uOig9o3hTUcqanh78cUX1eFA3nse6Oxd/ucsby3JwNdbrg1vJcHwVv4Y3oruVPxhHIvbh//97YDX11zFxZT8vwqruDrgxb6OuLetNcAxvOmDHsp7soOTOhXW9cgd3kSrnn21tYK1v8k6TNPuv/5Wbwvzx7erkZqWZpfwJlNmydRZ5c3M4Y0dFojIlE7/dwRnLzkgZLU1uNVqXR8ePp7XLLW9G+ByaoYS8NLxX2L5n3iRvhRnQN6iqOxa+HBRcgLx1Ydz1SX71Y/8VCnCcxaHvf/NVHx8B8rR2cQMfLo+AyfPFn4GdORkBpb+kIH5azIQtSNDOYPK+2ekHjXmzwwsXJeBRZEZ2BNX9LMrGan7h+8j8dWXKwpd1q2JwKVL19nilaicyQUHy+WLiI13gEUJZg1ub4Y73xmMbqH3X7N0n/sAGt91I66kA78fuf7aCqp4ZA5Te5eId6cFoWXTJgWGsvt6ZLU17ntX1npu8hw3NmuKd195UdtjH/Jvln87lR9eNi0jeV02XbA2A59FAg/eBUwalvcHQd4dCWELv1HCVbZ3qnFdYPYzQNMGWT+XdCkDQR8DO3PVovfqBLwyCnCulPXYvC6bHjp4AKEziz5o47CHAnF3z97aFi+b6gEvmxZNhnKi8vvPG/D9X46YuvIKbvBvjVsn99TuvdbuD39C3No9mNbPAf1vceRlU50o7/JucXDCpRLWQt1RDXDMI6hdUc4Wzicmqr1Nk5UT5Uu23qY1a+KWNq0zw50cwn//cx/Onr+gTp1VtbKremlUepvWdHdThxIRltTUzMumacrB5JdL6u7rVjXjKlzL+dIpL5tSuUjTyn1aAcNGff9rBhasswa39i2Ae32BGsqH/dhpJfB9gBw1cK+HW4ObcyXg7o5At3bypQD8sAP4cLX2oAI0a9Ycfe+7H37d7y506enfB51uU14MEZFJ2WPEv3P55J9KlZzgUbsWbmzeFB3btkG3W29Brzu6KOveOWrlZF3u91fuk8fIeqtmTeFRq2ZmcMstv99ZHBztsHwxvOnc0h+st0N6APMnOyDkUQf839SsAPeTNvrI0VMZ6rp8pKV2b8YYB4Q944CpI633Sy1bYZwqVcKAgQ/ikcDHC12GDn8E7u41tJ8kIjIfe9Q7/ZUCHLKU/gUw+Q2yHEzJwAGLuqtEyrfOjRjedO5QvPX2fj85w7Ku16vlgK43W9cPavfbHtesIXBLq6yzsntvB0b0AkYXrQMTEREVUUYelzuLS0LQ8TTltrRbMCnPL4N7/HfFOiNESdnj307Xj+FN52zjTrnmmsnEtm27P7/HSZX6sw844OHeRfugJSScxr//HC50OX48Xm1rQURkVsWdy7QgpV35dlX5vk614ww+9vy3U/ExvFVgl5Rvg/jT1kU6MxRGAtnUlybizdenFrq8Ou0F/Lp9m/aTRETmY88T2KRSvA4przM9PV2dxsteePJevhjeKqgrVzIw5BXggWnWpf9LQMKFgj9s1apVQ716DVC1arVClxo1a6FOHQ/tJ4nMp5KTteZB5gkmKqnzpRjeZBgokYTrmwmC9IffOhWUg6MDartrG4rLFiW8ndc28lGjRk289uYsvDNvQaHLrNnvo0VL6wjfREYgB7DkxHNIOn8GSRfOanuLp1Kj7qjU+jGkNLofz459CkFTJqF9ex/tXjKb7L0+S+rMldJr95Z25Yratu6CHcObPf/tVHwMbzpX2cV6ey7ZemtzThsOz3Z/9sfJ518qAxa/7IDN70kNgfW+yvYdZJvIMFIuX8Sfv/2Iv2O34cCeGBz8Y7t2T/E43dALldo9h0uNHkRT30cwYuQoOOUzHANVfPYcolfC1Yk067o9yeVNCW9nMirZtZ2a/YcnpuJwelWhretCamqqtmYfFy5c0NbKV1RUFC5duqT2/vSsa/0A/bof2H0IaN0E6NY+7w9V7EHrkCCy+LUHXF0cEL3bOrivhLTR9wEN6zjAvRrwxf+AxIsyaTzQ3ssBV9Iz8M5K4M9/gDo1gKcGKGldO1vashvYfwRo2eomtGmjdV0todOnT+GXbVtQtWpV+Pv7a3vLV82aNbU1c9BLeT9+/DjWrFmjlMtKqF/TFX8dTS63paqrE87F70WS8rf5bJsDNv7liK1xDuryq/LZiD9zFTW8PNCoq5f26q918td/ce6vU0hJTcG+v/ZjW8w2bP1lG/b++Sd82reHo8xerwMs72UrVSKMHWugLl5Vvs+V7++8Bu29XjIwb+rVq/gXrrhqx/DmqByAXMs5wNm7vLvaeRqx0sQZFspIXjMsyMwJ89cCVSsrhbC6uiuTBLUJQxyw798MPDlL+QBeUUJZJcCtKnAm0fqYO9oBYWMdMocQ+WSdTLdlXXdXHndF+SK4lGLdfiUQCOiS9cHNa4aF5OQkvP9uGBITtV9QABcXFzw2+ik0adpc28MZFvRAbzMs6EGnm2rg05Hp2Hf8MoZ9kHfDomZ926LDuLu0rWv9sXArDn75u7aV07IVy9CurfJh1AGW97J10cEJqXae59NT+Z73qmyfkCVNBS5evoxjGc5IQK6hCErIJeMqqnGGhXLD8FZG8gpvp85lYPTbcqtu5tCsAbDiVevjfvsrAzOXWGvfhMyaEHC7TKklEw5nfcjlnfz82wyEbwBStApMqZF7dhDQ/46cXwZ5hbdjR4/gtVdfUteLYtRjT6LrHVnz6jG8lT+9hbdGdSrjLp862t7yIVN0dfE8gzMnj2HeZgf8X7T1gNPozpao1+EGuf6Dhrc3g2tN5YwnH6mJKTi+NQ4ZyhnR2b9O4ugP+9X9DwwZjJCpr+im/Q/Le9myx/RYeWknJ/TZpjO8HnJov5SSggtKcT8EqVGybxnl9Fjli+GtjOQV3sRlSwb2/WOtJcuuRSO51Jn1uKtXM9SBeJMuA80bArXc8v8gXpIRtI9JLzjgxsZyGfXax+YV3oQEuMSkItS8ObugRctWOQ5aDG/lT2/hTS9zm15JS8Xfu3/B5UvJeF8LcI4uTvANCUD9W5tojyrc2X0nsPXldbhyKRWDHnxADW56uWQqWN7LlkzOnuRYSduyH6kja19FCUhaj+biksN6isWCZOXAcgCVkW7n4Cbcrl6BtKIrT2YOb/r51jEpqTnreJODGuiyL9mDm3B0dECrG5TH3uhQYHATVSs7wKelA25u7pBncCtI4xuaqG3gCltatrqRvY0oX7ZhNKTdpR5UUk42WrX3RZWq1fHsXRkY4eeEq6npiJkeiVM7j2qPKpjegxuVPft2Acgi/Rb+SFFOxK/j8yPBTSahl+B2qJSCmzxjeQc3s+M3DxHZXf16ddXbg/EX1Vs9cHZ2Rat21gA37k4lwHWzBrhfXl1faIBjcKP8VMrIddnETmTGhdjLStm7UvSQJMHtssWCM2nWGre0UomWpfdvpqLjZdMyEhwcjFOnTsG/k/QO1XaWo1/2Qr20em9Afwx8YKi6Txq3bozaULQOC84u6NnrHnXAXhteNi1/einv4t57euHY8RPY8s4duL1NLW1v+UtLtajDhVy+mIz3Njtg6RbrJdTbX+2Leh1v0B6VJUdwG3QfQkLe1G1wY3kve6lwxEXH0h0upr50YnC+ikr5DEsjh3EZDuRyigXHHFxxVh3PrXSCm6h2NR0udpkhtWTMfNmU4a2MLF++HBs3btS29EEue06a8jJuvMlb3T508ABCZxZ95JhhDwXi7p69tS2GNz3QU3gLX7QQYXPeRYcW7vhxbldUq2z/tkHXSw1wu5UAd0kJcJuUAPezFuCmKwHulqwAd0YJbtu04Na/kxNefWU6nJsP0O7VH5b3sicH0AuOzqV6EdElPQ1NLOdR2dVVXZydndXhRGS+UgltFosFFy9dVpZLSKjtifRK9u1Zmp1EwhpXS6tOr3gY3nSkooY3mVdu8+bNiI+P1/bkdPr0aezbtw/Vq7vhlo63aXtLj0zp0+GWTmiTbYiDdOVL4Jt1q4s8VMi9ffvD3b2GtofhTQ/0FN5SlYD0yIiH8ee+v9C5dU18NrkDWjfJNSZOOcoe4N5VAtwyJcA5uVbC7a8GoK4S4HIEt1sdEXwv4Or7Gio1Y3jTC72Ud5kz1FKKtW+1Ui+izpVL2lbermg1b0nVauKSspQW16vpqKqDWjfB8KYjFTW8FUZ653388cfquGlTX3lD22ssDG/lT2/lPeH0STz55JP4+8AhyJXGbjfXxs3N3OHqXP6XHaW/zZDudVEl+U+kXLqId5QAt1wLcN6Bvti/5Fetxk0Jbn2sQ/Q4d2Z40xO9lHeJMomlWPt2w+WzhQ7LIYfy5IuXkFbJBWdrN9L22pfUtrlfTdNNY3mGNx0xfXhr0gxTQ97U9hrLn3v34J05b6Fu3bqYOXOmtrd88WBW/lIuX8KC+R9j+RdfIDm54NqDsjayV2PMf95bHUZEDXD/UwLc1qyDpK3GTYKbcO06C46Ns5oK6A3Le/m56OCIVAf71r5lXL2Kbf+LwoB2LVGjCMHi8uUUHDtxCl/v2od7Bz2AylWqaPfYh4sSIKvpqLMCw5uOmDW8/fXXX5g1a5baAeDt2fPg4mK8iUijfvgWK1csQfPmzfHyyy9re8sXD2b6kWpJwe7du3DsWDyupJXCJI75UYe00dJXNtLms49vQ3h6VEFaaioSz51Wa07mfPE7/m/Jl3jggX6Y+mjXrJ90qoxKnncjoxQGZbUXlvfyY619s9/gIXt//x0rP/8MR/85jDHDBmPEgL7aPXmTQ/klJbwtXBmBr76LQo1atTBoxEjccXdPu3SwkblM3a9e0dUQFQxvOmLW8JamHMyCgoLU9mbt2ndA/wEPoGo1/bQPKogUobiDf2PZ0nCkpFxWDnoP4N5779XuLV88mNH1OHY8Ho0beWpbxsHyXr5kqiyZMut6SJu1v/7Yg9+3x2DPbztw+sQJ7R6gQf16WL1sCZByCemWy7iqHC8y0tOV796r1rDoVAlQTvgzXKrg/uEPIzHbcbRug4bo0NlXWTrjxjZt4ZRPj9XCyFRYMiWWnjC86YhZw5vYtWsXPvroI7Vzg1FJrduUKVPUDg16wIMZmQnLe/lLUsLblSLWziZduIBdv27HzphtiP11h9qJplKlSnkOgD579mz4+/trW3n7+uuvERISom1lkcO8HFdcXF3hc1tndLy9Czp0ug3VihhWZFw3t3KeCisvDG86YubwJg4cOIC1a9eqt3ImZgTyRVOzZk34+vqiX79+cFW+IPSCBzPKbmXEKoQv+hwpKRZtz/VzcXbGQ488jEeGj9D2lD+W9/KnXj51qISMPAKYHG6P/fsPdv7yixrYDvz5pzq+po18l8olTqkdk9vslztvu+02LFy4UNu6ljz38OHD1VELbNvy3BLa5Db77xGOyu+4qe3N6Oh7O27t0gWNbsh7mjglJMA9Q1+XS20Y3nTE7OGN7IsHM7L579QJ9Ol9D66m2+/Sjxxsv177NbyaeWl7yhfLuz6oc57K5VMtwP137Cg2fL1aCWy/5LgcWpjKlSvnCHBffvklWrVqpa7LXNlCeveL3bt345FHHlHXhYQ2Gf+tqOo38sStt9+OPgMHoV6DhtadSjyQGje9ToXF8KYjDG9kTzyYkc3uvXvw8LCHULtNA/i+WnDj74Jl4GLSJeya/T8k/nkKixYtQqdOnbT7yhfLu36kOTgiWWv/tuyTBVi7coW6XlQS2iS8ZTd48GBMmzYNZ86cUWfsEfXq1UOdOnXUWXzWr1+v7rOR8FbcZjgPBj6KB0ZYQ2B1Jbg563gqLDOHNz3WhBIRlRoHJ0e4ulcuwVIFtT3rwKWK8XqEU9mR0CON/KV+5PDBA9reopNZFHL75ptv8M8//2QGNyHrhw4dwvfff6/tyZLXcxTmH+W1ymuW167n4GZ2rHmjCo01EWQT/99x3HtPH/XA5OBU8uEcMtKtX50RX69GqxYt1fXyxvKuP9IDNXD4cJw9Y73MWRTS5i2/tsMjRozAfffdp21ZrV69Gl988YW2lVNxa98aeHrik0Wf665naV5Y80ZEVMF5NmyECZMnwq2mu9pYu6RLFbeqGPP0k7oJbqRPEoKCg19CrVq1tD2FK2g4D6lhy975QIJZVFSUtnWt4gwNIq9x8sSJhghuZseaN6rQWBNBZsLyrl8yf/XMt97C3j/+0PYULHdnhexkOKZbb71VXd++fTvmzJmjrudWnE4LbW++GS+9+KI6Q45RsOaNiIiISo2EorBZs/DY448XqS2ahK7cw3vYfPfdd9pazvXsihrc5LXIa5LXZqTgZnYMb0RERGVAatKGDhmCBQs+ge/tt2t78yYXxfILcDIsyPHjx3Hs2DHs3btX25ulqMFNXoO8FnlN+dXykT7xsilVaLyMRGbC8m4su/fswZIlSxC7a5e251oylqB0Xsgdru655x414OXuZVqU4ObToYPa8aF9u3baHmMy82VThjeq0HgwIzNheTcmmVFn3bp1+PGnn5By+bK2N0teAc42BlxKSop6KwoKbpWrVMGd3burs+DYBvo1OoY3HWF4I3viwYzMhOXd2CSI/RITg23btuH3nTtx4cIF7Z78a+Bs8gpuNWrUwC0dO6JLly643df3mkF/jY7hTUcY3sieeDAjM2F5rziuXs3AsWNHsX//fvzzz7+Ijz+G0wkJuHz5Mi5dvJg597VMZF+1alVUqVJF7XDg6dkYzZo1RevWrdG48Q1K2Cv5mIZ6xfCmIwxvZE88mJGZsLyTmZg5vLF7CREREZGBMLwRERERGQjDGxEREZGBVPjwVpSRrKliMuN7z/JuXizvZCZmf+8rfHiTrtVkTmZ871nezYvlnczE7O99hQ9v1atX19bIbMz43rO8mxfLO5mJ2d97U9S88QNuPvKem7UmguXdfFjeyUzMWt6zM0WHhTp16lS4kaUpf/Jey3tuVizv5sLyzvJuJmYv7zamCG+ifv36PEMzAXmP5b02O5Z3c2B5t2J5NweW9ywVfoaF3GTut+TkZPU2LS1N20tGJr2ObJdPzF6VnhvLe8XD8p4/lveKpyzLO6fHKoHSDm9EREREuXF6LCIiIiIqFQxvRERERAbC8EZERERkIAxvRERERAbC8EZERERkIAxvRERERAbC8EZERERkIAxvRERERAbC8EZERERkIAxvRERERAbC8EZERERkIAxvRERERAbC8EZERERkIAxvRERERAbC8EZERERkIAxvRERERAbC8EZERERkIAxvRERERAbC8EZERERkIAxvRERERAbC8EZERERkIAxvRERERAbC8EZERERkIAxvRERERAbC8EZERERkIAxvRERERAbC8EZERERkIAxvRERERAbC8EZERERkIAxvRERERAbC8EZERERkIAxvRERERAbC8EZERERkIAxvRERERAbC8EZERERkIAxvRERERAbC8EZERERkIAxvRERERAbC8EZERERkIAxvRERERAbC8EZERERkIAxvRERERAbC8EZERERkIAxvRERERAbC8EZERERkIAxvRERERAbC8EZERERkIAxvRERERAbC8EZERERkIAxvRERERAbC8EZERERkIAxvRERERAbC8EZERERkIAxvRERERAbC8EZERERkIAxvRERERAbC8EZERERkIAxvRERERAbC8EZERERkIA4ZCm1dF5KSkrS10mGxWJCcnKzepqWlaXvJyJydneHq6orq1aurt5SF5b3iYXnPH8t7xVOW5d3NzU1b0z9ThbczZ86oH2yquOQDXqdOHW3L3FjeKz6W9yws7xVfaZd3I4U301w2PXnyJD/YJiDvsbzXZsfybg4s71Ys7+bA8p7FFOFNzshSUlK0Laro5L2W99ysWN7NheWd5d1MzF7ebSp8eLO1gSBzkfdc3nuzYXk3J5Z3MhOzlvfsKnx44wfbvMz43rO8mxfLO5mJ2d97U9S8kTmZtSaCzInlnczE7O99hQ9v7C5uXmZ871nezYvlnczE7O+9KTosEBEREVUUDG9EREREBsLwRkRERGQgDG9EREREBsLwRkRERGQgDG9EREREBsLwRkRERGQgDG9EREREBsLwRkRERGQgDG9ERER2ZUH8lnAEDeuBTu3aoZ26dEKPYQuwT3sEUUkwvBEREdlLehwixvRAn6fDELk3CR6dAzBo8CAMussLOBKPBO1h9pSwJQyj+3dFyGZth13sQ8S4IegRGI54bQ/pB8MbERGRncS+PQIh25Lg1nM6NuzYgQ2fhmJ6yHRMn7cSm7ZOh5/2OHuyHIhGzOEkpGjb9pGAmM37kJCobZKuMLwRERHZQ0IE5i1LAlqOw5LZg+Dpqu3PS3oSYpcFYUjXrMuqfR4PQ9RJ7X5F/KIB6n1BGxMQNX2Idgm2E4bMioHyW+QRCB/YDn3mxKlbkeOszxWk1sAp4WtRrucfH45Y6w9qLIj/PgRDenTKfEyPSZFI2BykrI9FpDzkYBj6yH0DWQOnJwxvRERE9hAbgxjlxvfhQfBysu7KWxKip92DETMjcbpVIIJnz0XwyNawbA/HhIFBiM4RsKA89kHMw0C8NTUQPm4W7Fs8Gq9EWpR7POD3gvKzAR7q43wenYu5ynON8patfYhcHA/vJ0LVfcH3eyB+YxhGTItUIpuwIHp6H/SZFIF9bp0xZqrys1OHoUX6BVi8Ryk/o/wueZhHgPr65r7gp/w20guGNyIiIjuIP7Jfva3jUUjMOfg53lynJLS7QrE2fDKG9/bH8ClLsOolJS4lRSLsy5x1XO5DP8SakOHwHzoZS2YEqPuiY+V3ucKriz+6t3ZX93l29Ie/8lze9WXLD9OjlmD6owHqvuGvz8UYeVlbdkF9lQcX4M0vE4C2k7Fm9YcYN1T5WeX5F74zHJ71vZWf8YWnPK5mG3RXft6/i5fy20gvGN6IiIjswNWtrnqbdMlat5Wf+K3R6iXIgPsD4GbdpfLo1gteym3cAetlUBsfH7UqzcqrjfoYS1JhjdEsiN8WjrCg0Rjg3wNdOwzBAuktYbkA+cmEXbHqa/AbOayQWkLSI4Y3IiIiO/Dw9lEvLUZ/tb5UepUWR/ziR9Qer1FX/PDkC6/h08glGNNcu1NhSTqt3rq5sj7NiBjeiIiI7KHtcIzrrNxuD8HYd2ORlG7dnZvnzR3US5Abv4/SOh5YJe2MgdS5+dycrabtusQjarWMKBeAl2cHIqC3H7zrJ+LYYeu9wtPHV30NkV9H5ngNZAwMb0RERHbhgUHvfIgAN2DfwhHoemtXDBkXgpDpIQh6fAB6dA1BtDys4xgEdwEskRPQPzAMy5UQt3zWCPSfptzrEYgpQ4vXNcCjvto6DZGzQrB83QyEb3GFW211D+bPikTU98sRMuwVRGevZJPXIEFzcxC69g9C+LooRC4Kwejxy7VepR5oLC/j4HyEvB+J8Pcj2NtURxjeiIiI7MXND6GbNmDuSF94VU3Cvs0RiPgyApH7ElH3LmWf+iAl5H20SX2M695wzJg0ATOWxqFuv2AsWTsZPsVsg+Z6z2RM76kkrSMRmDHtByS6K88/IxQBTVwRuzgIE4JXw23KO3jyBu0HVMpjFlhfg+fxSIQFT0DQBz8hsUkb9dIv4I1RoYHwdk1CzPwgzDtYmR0WdMQhQ6Gt60JSkn0rcP/9919tjcyoadOm2po5sLybG8s7mYm9y7ubW/buI/rGmjciIiIiA2F4IyIiIjIQhjciIiIiA2F4IyIiIjIQhjciIiIiA2F4IyIiIjIQhjciIiIiA2F4IyIiIjIQhjciIiIiA2F4IyIisgPLkSiEPT4AXTu0Q7t21qVr/3mI1e4nsheGNyIiopI6HI5H+k5A+PZ4NPYbhEGDZQlAm/QkJGoPMaKELWEY3b8rQjZrO0gXGN6IiIhKKHbFPOyDK4Z/ugMr503H9BBZQrFwfTD8tMcYkeVANGIOJyFF2yZ9YHgjIiIqIZeqMqm5BccSkqw78hAdLJdSByD8iLZDbA5SL68OWBSfazsOccsmoId2CbbTgyGIOml9iIhfNEDdH7QxCdGzhqCTsi7bPcaHIzb7S0hPQuyyIAzparuU2wl9Hg/L+7kWRmCCv+01xiN8YDv0mROnPiZynPXng1gDpwsMb0RERCXkPWwcfJ2UgBbUFQOClyMmwaLdc30SV4zF4+s9MebtUEzu5wXLfiVYDZyB2HTtAZrYt0fgzRN98drsYAR29EDCxjCMGB+BBPVeJdhNuwcjZkbidKtABM+ei+CRrWHZHq48VxCic+XMyHdXwPvjHdizZw0Cm3jA7wXl8QEe6n0+j87FXOXnR3mrm1TOGN6IiIhKqv4gLNy0BJO7eSBu3QyM7tEJPZ5ejrjrzHAJHoFYtXQyhvcOQOCMNVg41FXJYhFYn6v3Q4JfMDbMDkRA7+GYHL4Kwe2Vndsj8ZOkt4Of4811SkK7KxRrw+W5/DF8yhKseslHea5IhH2p1fZpPEZPx5iWyu9RucKriz+6t3ZXtzw7+sNf+Xnv+uomlTOGNyIiInuo5YPAjzZhx9oPMUYJcQlbZmBAYDjictWWFYWXf3dY67ysfLv0VP5vwa4/cgaunt18tTXhAd8eXsptDGL3A/FboyGPDrg/AHJR18ajWy/Io+IOWC+J2nT2YbWaUTC8ERER2ZFrcz+MU0LcytGewN4wzLdDO7GEc2fUWw+P7JHuWkmnJa55wKOWdZsqJoY3IiKiEopePA+x57QNTd261qCVZLFeO/X0Uuu7EPNH1rXU+MP7tbWc4nbGIqtJWhK2/xij3HrC+0bbZU2r2Nh92poifR9+2izP3QEtmiuPvrkD5NEbv4/K9lzKs+2MUV4F4HMza9qMiuGNiIiopPYvwIjunTBkXAhCpocg6PEe6DEzFnALwHA/a+Dyau+rhqnoNx5H2BdRWD5rBEZovTmvsTkID04KR+T3yxEW2N/ay/Ou5zCqpfVum/iFYzFi1nJErQtH0MAhWHBcCW2jxyCgqnJnxzEI7gJYIiegf2AYlishTn5n/2nRgEcgpgwtuBZPeNT3VG8jZ4Vg+boZCN+iblI5Y3gjIiIqoQ7DghHQ1g1xmyMQ8WUEIpXc5t0vGEvWh8LP1uCs8zh8OtEfHpdiEf7GBCyI74V3Xg/Q7szJ6/mFmOy+Hq9MUgLTziR4D56LDWE5266JgNffQa/4BZgQHIbIIx7wn7gEq5611ah5YNBHmzB3pBIa94ZjxqQJmLE0DnXlda2dDB8n7WEFcL1nMqb3VELekQjMmPYDEq39F6icOWQotHVdSErK1Xe5hP79919tjcyoadOm2po5sLybG8t7BSDjvI2LhNfEDVjzqLXWKy8yNpuMwRYwbw9C79J2moy9y7ubW+5orF+seSMiIiIyEIY3IiIiIgNheCMiIiIyELZ5owqNbYDITFjeyUzY5o2IiIiIDIE1b1ShsSaCzITl3VzS0tIwe/ZsrF271u7HztykVqp///6YNGkSnJ2dtb3lizVvREREZCgS3JYuXVrqwU3I75DfJb+Tyh9r3qhCY00EmQnLu7l07drVesxcNAto11rbW0p27wcem6LWTm3dulXbWb5Y80ZERESGklnZUdrBTbS3/o6yqOWjwjG8ERERERkIL5tShcbLSGQmLO/6tWnTJoSHh2Pv3r1ISUnR9haNj48PlixZom1ladeunXVlxzrrbWnr1E+92bNnj3pb3sx82ZThjSo0HszITFje9Wnu3Ln47LPPtK3rk1dgyje8aSGrxPJ5Xoa38sfwRhUaD2ZkJizv+vO///0Pzz//PBwdHeHTviOaNfOCi4uLdm/hvlhprXFjeLsWw5uOMLyRPfFgRmbC8q4/o0aNwm+//YZbOnTCjTcWv2PBdYW30sLwphvssEBERFRKpI2bkBo3obP6EjIo1rxRhcaaCDITlnf9sdWODR0yAj9EfYuzZ8/AxcUVtWvXwQ2Nm6B+/YaoWrWqGupkxoTLly8px8FEnDt/FufPn8d//8WrP8/LptdizRsRERGVKgluIjXVghMnjuPXHb/gm/WrsXLVUqz6chm+XrMK332/Hlu3RWPfvr2ZwY0oN9a8UYXGmggyE5Z3/cle82Zrv3bkq6fx/a+H8eXmv7Fj339IuHAZlZwcUL2KCxrUqYaWnrXg07IebrmxPgZP/Vr9GbZ5u5aZa94Y3qhC48GMzITlXX9sAavn3fdg4/++Q41qrjj/3Xh1n40chh0cHLStnBy6haq3DG/XYnjTEYY3sicezMhMWN7147vvvsP8+fNx4MABbY/VuMEd8d74XtpW4a4rvLHN23VhmzciIiKT2rBhA6ZMmZIjuEmNmwS3WWN7aHuIrh9r3qhCY00EmQnLuz7cf//9OHToEEIfbYegRdZaqowtQeqtja1GrbD9vGyaP9a8ERERkV3YQuVzA1qpt0T2xvBGRERkR82aNVNv31uTs71bdlKzlrvWTeS3nyg7hjciIiI7euqpp9Teo7ZLpiIl9Yq2VnS2n8lvLtTMy3y791tvS5P2O4x0abEiY5s3qtDYBojMhOVdP77//nu1t+nBgwdx9epV7A5/DO1a1NXuLZo9h06hfeAiNGnSBOvXr9f2ZnnrrbewdOlSbasAbVoC82cCVSpbty+nAE++BPx50LpdDCNGjEBQkD5qBtnmjYiIiOymd+/e+Oqrr3Dfffep299sLX5Q+ubnQ+pthw4d1NvcJk2apIapQkOHhLS3PtI2FLJezOAmv+Phhx/GxIkTtT1UnljzRhUaayLITFje9Wfbtm0YM2YMGtaphv3LnoB7NVftnoIlXrTgpoc+wYkzF7FgwQJ06dJFu6d44uLiMGzYMFy+fBl45XnrztfeRZUqVbB8+XK0aNHCus+AWPNGREREdieh65ZbbsF/Sgh78u3vcPVq4fUl8hh5rAQ3+dnrDW7Cy8sLU6dOtW68/bF1Ubz88suGDm5mx/BGRERUil577TVUr14dKzbuw0PT16m1avlJUu57WHmMPFZ+Rn62pPr376+OPYcU5fcqi6wPGDBAu5eMiJdNqULjZSQyE5Z3/dqxYwfGjRuH5ORkdfL5cQ/cin53tESrxrXU+w8cO6e2i3vvy9/UGjcJbu+//z5uvfVW9f6SSklJwWOPPaauf/bZZ6hcWeu8YGBmvmzK8EYVGg9mZCYs7/r2zz//oF+/wucd7dixo1rjZrb3s7jMHN542ZSIiKgM2AbvFaP8m6Jlw2pwqeQAZycHbS+wcOFChIeHM7hRgRjeiIiISpnUEsplUJtFQT1x4LP+sKwdjNR1g7W9UOdEvXTpkrZFlDdeNqUKjZeRyExY3vXl/Pnz+Pbbb/HNN9+ok7lnP9yeWPss6teupq6fPHsRDfpnBTt3d3cMHjwYDz30EOrXr6/tLT75fStWrMCyZctw5MgRdbDg6yUzRshgwc8//zx69eql7S1fZr5syvBGFRoPZmQmLO/68Ndff6ljs23atAlpaWnqPqfK1eFxa19cPvUPEg/EoH+3lpj/Qh/IBdMxb2/A2i0HUb15Bzg6OSPx4K/qz1SqVEkd7HfkyJFo27atuq84Zs2ahcWLF2tb9uHo6Ij/+7//Q/v27bU95YfhTUcY3sieeDAjM2F5L19yOP3444/VabHS09Ph4OiEmm3vRL3bB6GOT284uVTGpRNx2PVWf6RfStR+ysqpijs6vPQ1qjZoiaTDu3AsaiHO/BaJjKtX1FovGetNxmu74YYbtJ8omHSOkOFAJGw999xEVKlcBW/OmI527Xww/+NPtEcVndTavfvuHKz6ciWGDx+O4OBg7Z7yY+bwxjZvREREdvDGG2/gww8/RPrVDDTqORqdQ2Nw87jPUe+2/mpwE1UbeKHDi2tQ26cXHF2qqousd3jRGtyEW/MO8H7ifXSaEQ3P3k/CsXJ1bN26VZ0pQS6/FoXM7CCB6447/NC1yx04fjxe3d+8eXP1trgkBHo2tgbHklx+JftgeCMiIiqhL7/8EitXrlTCWGW0fS4cLYa+Apca9bR7c6raoAXaPvMp7nh/v7rIetWG1uCWXeXanvAa/DJum/Ez6tzSB4mJiXjuuedw7tw57RH5kwnxhVdz6ywKR48dVW+bN/dSb6/HP4fj1FuZtYHKF8MbERFRCUhzn7lz56rrrUbOQu22d6rr9uJcrSa8n/wINW7qioSEBHzySeGXPaXXqrjhhibq7bFjR9RbrxKEt7jDh9VbTqtV/hjeiIiISmDNmjVqrViN1negXufSmXZK2s95DQ1R17/++mtYLPlPsSVs4a3xDTeobfGOHrXVvF3fZVN5jn/+sda8MbyVP4Y3IiKiEti8ebN627D7w+ptaane2BvVm7ZXa/p+/PFHbe+1zpw5ow5TUq1addSqWQvnzp/DxYvJaoP8OnU8tEdZpaamYs7cMPTqfbey9MDsObPUfbnJc0pArVmzJjw8cj4HlT2GNyIiohL4+++/1Vv3Vp3VWxE9pom6XC+p6dr5RgB+n9kfGdk6CEjPVbFu3Tr1Ni+29m7SM1V6qh6z1bo181K3s3v/g/fw5Zcr1XB38eJFfPXVKrz//rvavVkOs72brjC8ERERlcCFCxfUWxe34tVIXZHhQvIZrSsj/QouHvkDyYd34fy+aG0vUPe2/nBwrIQtW7bk23Eh85JpY2t4PHrU2t4tr84KGzZEqrfrvlmvLuJbbV92tvDWsuW1HSuo7DG8ERERlYBt6AwHx6IfUmOCbse28Tcj7ZI1+BXkv5+WaWtKQHT3QK223XHlyhUleG3Q9uaU2VlBG9rjqNZZIa/2bjmyo7aRu3ZOHP6HnRX0hOGNiIiojFWq6q7eWhKslzQLcjb2B6ReOKVtAXVvf0C9ze/SadZlU62naWZnhWtr3u69N0C97XdfX/Trd5+63qePdV92tpo3hjd9YHgjIiIqY5XrNFZvU84cU28LIrMsnNi6UtsC6vj0glNlN/zxxx/qTAq5xcVZg5a0eVN7mmbWvF0b3p595jkMHjwE1atXVxdZl33ZyXPwsqm+MLwRERGVElvHhdzL2d0b1fuT/tmt3hbmZPQKJURZL8/KbA0etwaooUomvc9OxoGz9TStKT1Nz0lP04taT9M62qOyuLi4YOKEyfj+u/+pi6zLvuykp6n0cJWepnk9B5U9hjciIiI7c2t+i7aWH2v7smMbPsDh1aHqel5kcnpPT0+kJBzBliebZYa/kz9/od4v86i2a9cuc+nRo4e639bTNHutW15t2YqCl0z1h+GNiIioBCpXts5bqvYe1XR4aQ38Fhy5ZrE5t+F5vPt8T7g4O+HYtx/gzK4ftHtyksD1wAPWNm7FcYPW0zT7MCHXi5dM9YfhjYiIqATat2+v3p7c9qV6WxQ1q1fGcw92wqyxd6nbx35YoN7m5f7779fWgC9XrSlw6eV/j/q4xkXoaVpUcax50x2GNyIiohIYNWqUWkN2+KsZiN/4WY4auMKMvPdm9Tb5n1j1Ni9169aFu7u1d+pff+1Xb/NjG9PN1tM0a1qs66t5k7Zuv/++U11v1aqVekvlzyFDWjzqiBQUe/r333+1NTKjpk2bamvmwPJubizv5ePhhx/G7t1F63hgdD4+PliyZIm2Vb7sXd6lU4dRsOaNiIioBMwS3ERsbP41hFR2WPNGFRprIshMWN7Lh/TyFF9MzWqbVhENfeNr9XbPnj3qbXljzRsRERERGQJr3qhCY00EmQnLe/mw1byZBWveyh9r3oiIiEpAGvGbhZn+rXrGmjeq0FgTQWbC8l7+bLVws0Z2U2+NbsriLeqtXmrbsjNzzRvDG1VoPJiRmbC8l7+K1nlBb50UsjNzeONlUyIiIiIDYXgjIiIiMhCGNyIiIiIDYZs3qtDYBojMhOW9/FXUYUPY5k1fWPNGRERkJxVxKA0OD6I/rHmjCo01EWQmLO9kJqx5IyIiIiJDYHgjIiIiMhCGNyIiIiIDYXgjIiIiMhCGNyIiIiIDqfDhzdnZWVsjszHje8/ybl4s72QmZn/vK3x4c3V11dbIbMz43rO8mxfLO5mJ2d/7Ch/eqlevrq2R2ZjxvWd5Ny+WdzITs7/3pqh54wfcfOQ9N2tNBMu7+bC8k5mYtbxnZ4oOC3Xq1EHlypW1Laro5L2W99ysWN7NheWd5d1MzF7ebUwR3kT9+vV5hmYC8h7Le212LO/mwPJuxfJuDizvWSr83Ka5WSwWJCcnq7dpaWnaXjIy6XVku3xi9qr03FjeKx6W9/yxvFc8ZVnejTS3qenCGxEREVFunJieiIiIiEoFwxsRERGRgTC8ERERERkIwxsRERGRgTC8ERERERkIwxsRERGRgTC8ERERERkIwxsRERGRgTC8ERERERkIwxsRERGRgTC8ERERERkIwxsRERGRgTC8ERERERkIwxsRERGRgTC8ERERERmI7sKbk5OTtkZERERU+oyWPXQX3pydnbU1IiIiotJntOyhy/Dm4uKibRERERGVHskcRgtvDhkKbV1X0tLS1CU9PV3bQ0RERGQfcqlUQpsRr/jpNrwRERER0bXY25SIiIjIQBjeiIiIiAyE4Y2IiIjIQBjeiIiIiAyE4Y2IiIjIQBjeiIiIiAyE4Y2IiIjIQBjeiIiIiAyE4Y2IiIjIQBjeiIiIiAyE4Y2IiIjIQBjeiIiIiAyE4Y2IiIjIQBjeiIiIiAyE4Y2IiIjIQBjeiIiIiAyE4Y2IiIjIQBjeiP6/3TqgAQAAQBhk/9Tm+AYpAIAQeQMACJE3AIAQeQMACJE3AIAQeQMACJE3AICM7Wm6mQ4O2SynAAAAAElFTkSuQmCC;fillColor=#FAE5C7;strokeColor=#0F8B8D;fontColor=#143642;" vertex="1" parent="1">
          <mxGeometry x="-2270" y="550" width="623" height="724" as="geometry" />
        </mxCell>
        <mxCell id="MP24_qXbwDW_fQga7Mwu-6" value="Cycle Information" style="swimlane;horizontal=0;whiteSpace=wrap;html=1;labelBackgroundColor=none;fillColor=#FAE5C7;strokeColor=#0F8B8D;fontColor=#143642;" vertex="1" parent="1">
          <mxGeometry x="-950" y="-820" width="1740" height="810" as="geometry" />
        </mxCell>
        <mxCell id="MP24_qXbwDW_fQga7Mwu-7" value="Client Portion" style="swimlane;whiteSpace=wrap;html=1;movable=1;resizable=1;rotatable=1;deletable=1;editable=1;locked=0;connectable=1;labelBackgroundColor=none;fillColor=#FAE5C7;strokeColor=#0F8B8D;fontColor=#143642;" vertex="1" parent="MP24_qXbwDW_fQga7Mwu-6">
          <mxGeometry x="40" y="20" width="800" height="775" as="geometry" />
        </mxCell>
        <mxCell id="MP24_qXbwDW_fQga7Mwu-8" style="edgeStyle=orthogonalEdgeStyle;rounded=0;orthogonalLoop=1;jettySize=auto;html=1;entryX=1;entryY=0.5;entryDx=0;entryDy=0;labelBackgroundColor=none;strokeColor=#A8201A;fontColor=default;" edge="1" parent="MP24_qXbwDW_fQga7Mwu-7" source="MP24_qXbwDW_fQga7Mwu-9" target="MP24_qXbwDW_fQga7Mwu-19">
          <mxGeometry relative="1" as="geometry" />
        </mxCell>
        <mxCell id="MP24_qXbwDW_fQga7Mwu-9" value="Client Sends Request" style="ellipse;shape=cloud;whiteSpace=wrap;html=1;movable=1;resizable=1;rotatable=1;deletable=1;editable=1;locked=0;connectable=1;labelBackgroundColor=none;fillColor=#FAE5C7;strokeColor=#0F8B8D;fontColor=#143642;" vertex="1" parent="MP24_qXbwDW_fQga7Mwu-7">
          <mxGeometry x="580" y="110" width="190" height="125" as="geometry" />
        </mxCell>
        <mxCell id="MP24_qXbwDW_fQga7Mwu-10" value="" style="edgeStyle=orthogonalEdgeStyle;rounded=0;orthogonalLoop=1;jettySize=auto;html=1;labelBackgroundColor=none;strokeColor=#A8201A;fontColor=default;" edge="1" parent="MP24_qXbwDW_fQga7Mwu-7" source="MP24_qXbwDW_fQga7Mwu-12" target="MP24_qXbwDW_fQga7Mwu-21">
          <mxGeometry relative="1" as="geometry" />
        </mxCell>
        <mxCell id="MP24_qXbwDW_fQga7Mwu-11" value="" style="edgeStyle=orthogonalEdgeStyle;rounded=0;orthogonalLoop=1;jettySize=auto;html=1;labelBackgroundColor=none;strokeColor=#A8201A;fontColor=default;" edge="1" parent="MP24_qXbwDW_fQga7Mwu-7" source="MP24_qXbwDW_fQga7Mwu-12" target="MP24_qXbwDW_fQga7Mwu-24">
          <mxGeometry relative="1" as="geometry" />
        </mxCell>
        <mxCell id="MP24_qXbwDW_fQga7Mwu-12" value="Cycle Information Page Entered" style="ellipse;whiteSpace=wrap;html=1;labelBackgroundColor=none;fillColor=#FAE5C7;strokeColor=#0F8B8D;fontColor=#143642;" vertex="1" parent="MP24_qXbwDW_fQga7Mwu-7">
          <mxGeometry x="10" y="132.5" width="120" height="80" as="geometry" />
        </mxCell>
        <mxCell id="MP24_qXbwDW_fQga7Mwu-13" value="" style="edgeStyle=orthogonalEdgeStyle;rounded=0;orthogonalLoop=1;jettySize=auto;html=1;exitX=0.25;exitY=0.25;exitDx=0;exitDy=0;exitPerimeter=0;labelBackgroundColor=none;strokeColor=#A8201A;fontColor=default;" edge="1" parent="MP24_qXbwDW_fQga7Mwu-7" source="MP24_qXbwDW_fQga7Mwu-15" target="MP24_qXbwDW_fQga7Mwu-23">
          <mxGeometry relative="1" as="geometry">
            <Array as="points">
              <mxPoint x="630" y="509" />
            </Array>
          </mxGeometry>
        </mxCell>
        <mxCell id="MP24_qXbwDW_fQga7Mwu-14" value="" style="edgeStyle=orthogonalEdgeStyle;rounded=0;orthogonalLoop=1;jettySize=auto;html=1;labelBackgroundColor=none;strokeColor=#A8201A;fontColor=default;" edge="1" parent="MP24_qXbwDW_fQga7Mwu-7" source="MP24_qXbwDW_fQga7Mwu-15" target="MP24_qXbwDW_fQga7Mwu-26">
          <mxGeometry relative="1" as="geometry" />
        </mxCell>
        <mxCell id="MP24_qXbwDW_fQga7Mwu-15" value="Client Sends Request" style="ellipse;shape=cloud;whiteSpace=wrap;html=1;labelBackgroundColor=none;fillColor=#FAE5C7;strokeColor=#0F8B8D;fontColor=#143642;" vertex="1" parent="MP24_qXbwDW_fQga7Mwu-7">
          <mxGeometry x="580" y="477.5" width="190" height="125" as="geometry" />
        </mxCell>
        <mxCell id="MP24_qXbwDW_fQga7Mwu-16" value="Client Request Recieved" style="ellipse;shape=cloud;whiteSpace=wrap;html=1;labelBackgroundColor=none;fillColor=#FAE5C7;strokeColor=#0F8B8D;fontColor=#143642;" vertex="1" parent="MP24_qXbwDW_fQga7Mwu-7">
          <mxGeometry x="800" y="470" width="190" height="125" as="geometry" />
        </mxCell>
        <mxCell id="MP24_qXbwDW_fQga7Mwu-17" style="edgeStyle=orthogonalEdgeStyle;rounded=0;orthogonalLoop=1;jettySize=auto;html=1;exitX=0.098;exitY=0.688;exitDx=0;exitDy=0;exitPerimeter=0;entryX=0.96;entryY=0.7;entryDx=0;entryDy=0;entryPerimeter=0;labelBackgroundColor=none;strokeColor=#A8201A;fontColor=default;" edge="1" parent="MP24_qXbwDW_fQga7Mwu-7" source="MP24_qXbwDW_fQga7Mwu-16" target="MP24_qXbwDW_fQga7Mwu-15">
          <mxGeometry relative="1" as="geometry">
            <Array as="points">
              <mxPoint x="819" y="557.5" />
              <mxPoint x="780" y="557.5" />
              <mxPoint x="780" y="565.5" />
            </Array>
          </mxGeometry>
        </mxCell>
        <mxCell id="MP24_qXbwDW_fQga7Mwu-18" style="edgeStyle=orthogonalEdgeStyle;rounded=0;orthogonalLoop=1;jettySize=auto;html=1;exitX=0.88;exitY=0.25;exitDx=0;exitDy=0;exitPerimeter=0;entryX=0.07;entryY=0.4;entryDx=0;entryDy=0;entryPerimeter=0;labelBackgroundColor=none;strokeColor=#A8201A;fontColor=default;" edge="1" parent="MP24_qXbwDW_fQga7Mwu-7" source="MP24_qXbwDW_fQga7Mwu-15" target="MP24_qXbwDW_fQga7Mwu-16">
          <mxGeometry relative="1" as="geometry" />
        </mxCell>
        <mxCell id="MP24_qXbwDW_fQga7Mwu-19" value="Set Initial Graph and Populate Timer List With Names" style="whiteSpace=wrap;html=1;labelBackgroundColor=none;fillColor=#FAE5C7;strokeColor=#0F8B8D;fontColor=#143642;" vertex="1" parent="MP24_qXbwDW_fQga7Mwu-7">
          <mxGeometry x="410" y="142.5" width="120" height="60" as="geometry" />
        </mxCell>
        <mxCell id="MP24_qXbwDW_fQga7Mwu-20" value="HTTP Get Initial Population Data" style="edgeStyle=orthogonalEdgeStyle;rounded=0;orthogonalLoop=1;jettySize=auto;html=1;entryX=0.625;entryY=0.2;entryDx=0;entryDy=0;entryPerimeter=0;labelBackgroundColor=none;strokeColor=#A8201A;fontColor=default;" edge="1" parent="MP24_qXbwDW_fQga7Mwu-7" source="MP24_qXbwDW_fQga7Mwu-12" target="MP24_qXbwDW_fQga7Mwu-9">
          <mxGeometry relative="1" as="geometry">
            <Array as="points">
              <mxPoint x="70" y="60" />
              <mxPoint x="699" y="60" />
            </Array>
          </mxGeometry>
        </mxCell>
        <mxCell id="MP24_qXbwDW_fQga7Mwu-21" value="User Selects A Time Period Button" style="whiteSpace=wrap;html=1;labelBackgroundColor=none;fillColor=#FAE5C7;strokeColor=#0F8B8D;fontColor=#143642;" vertex="1" parent="MP24_qXbwDW_fQga7Mwu-7">
          <mxGeometry x="160" y="250" width="120" height="60" as="geometry" />
        </mxCell>
        <mxCell id="MP24_qXbwDW_fQga7Mwu-22" value="HTTP Request for New Data for New Time Period" style="edgeStyle=orthogonalEdgeStyle;rounded=0;orthogonalLoop=1;jettySize=auto;html=1;entryX=0.625;entryY=0.2;entryDx=0;entryDy=0;entryPerimeter=0;labelBackgroundColor=none;strokeColor=#A8201A;fontColor=default;" edge="1" parent="MP24_qXbwDW_fQga7Mwu-7" source="MP24_qXbwDW_fQga7Mwu-21" target="MP24_qXbwDW_fQga7Mwu-15">
          <mxGeometry relative="1" as="geometry" />
        </mxCell>
        <mxCell id="MP24_qXbwDW_fQga7Mwu-23" value="Graph BCMP To BCMP Graph" style="whiteSpace=wrap;html=1;labelBackgroundColor=none;fillColor=#FAE5C7;strokeColor=#0F8B8D;fontColor=#143642;" vertex="1" parent="MP24_qXbwDW_fQga7Mwu-7">
          <mxGeometry x="410" y="310" width="120" height="60" as="geometry" />
        </mxCell>
        <mxCell id="MP24_qXbwDW_fQga7Mwu-24" value="User Selects a Timer From The Drop Down" style="whiteSpace=wrap;html=1;labelBackgroundColor=none;fillColor=#FAE5C7;strokeColor=#0F8B8D;fontColor=#143642;" vertex="1" parent="MP24_qXbwDW_fQga7Mwu-7">
          <mxGeometry x="10" y="302.5" width="120" height="60" as="geometry" />
        </mxCell>
        <mxCell id="MP24_qXbwDW_fQga7Mwu-25" style="edgeStyle=orthogonalEdgeStyle;rounded=0;orthogonalLoop=1;jettySize=auto;html=1;entryX=0.16;entryY=0.55;entryDx=0;entryDy=0;entryPerimeter=0;labelBackgroundColor=none;strokeColor=#A8201A;fontColor=default;" edge="1" parent="MP24_qXbwDW_fQga7Mwu-7" source="MP24_qXbwDW_fQga7Mwu-24" target="MP24_qXbwDW_fQga7Mwu-15">
          <mxGeometry relative="1" as="geometry">
            <Array as="points">
              <mxPoint x="70" y="546" />
            </Array>
          </mxGeometry>
        </mxCell>
        <mxCell id="MP24_qXbwDW_fQga7Mwu-26" value="Display Timers BarGraph&amp;nbsp;&lt;div&gt;(Full Range)&lt;/div&gt;" style="whiteSpace=wrap;html=1;labelBackgroundColor=none;fillColor=#FAE5C7;strokeColor=#0F8B8D;fontColor=#143642;" vertex="1" parent="MP24_qXbwDW_fQga7Mwu-7">
          <mxGeometry x="615" y="630" width="120" height="60" as="geometry" />
        </mxCell>
        <mxCell id="MP24_qXbwDW_fQga7Mwu-27" style="edgeStyle=orthogonalEdgeStyle;rounded=0;orthogonalLoop=1;jettySize=auto;html=1;entryX=0;entryY=0.5;entryDx=0;entryDy=0;exitX=0.625;exitY=0.2;exitDx=0;exitDy=0;exitPerimeter=0;labelBackgroundColor=none;strokeColor=#A8201A;fontColor=default;" edge="1" parent="MP24_qXbwDW_fQga7Mwu-6" source="MP24_qXbwDW_fQga7Mwu-28" target="MP24_qXbwDW_fQga7Mwu-31">
          <mxGeometry relative="1" as="geometry">
            <Array as="points">
              <mxPoint x="960" y="148" />
              <mxPoint x="960" y="90" />
            </Array>
          </mxGeometry>
        </mxCell>
        <mxCell id="MP24_qXbwDW_fQga7Mwu-28" value="Client Request Recieved" style="ellipse;shape=cloud;whiteSpace=wrap;html=1;labelBackgroundColor=none;fillColor=#FAE5C7;strokeColor=#0F8B8D;fontColor=#143642;" vertex="1" parent="MP24_qXbwDW_fQga7Mwu-6">
          <mxGeometry x="840" y="122.5" width="190" height="125" as="geometry" />
        </mxCell>
        <mxCell id="MP24_qXbwDW_fQga7Mwu-29" value="Server Portion" style="swimlane;whiteSpace=wrap;html=1;labelBackgroundColor=none;fillColor=#FAE5C7;strokeColor=#0F8B8D;fontColor=#143642;" vertex="1" parent="MP24_qXbwDW_fQga7Mwu-6">
          <mxGeometry x="840" y="20" width="880" height="770" as="geometry" />
        </mxCell>
        <mxCell id="MP24_qXbwDW_fQga7Mwu-30" style="edgeStyle=orthogonalEdgeStyle;rounded=0;orthogonalLoop=1;jettySize=auto;html=1;entryX=0;entryY=0.5;entryDx=0;entryDy=0;labelBackgroundColor=none;strokeColor=#A8201A;fontColor=default;" edge="1" parent="MP24_qXbwDW_fQga7Mwu-29" source="MP24_qXbwDW_fQga7Mwu-31" target="MP24_qXbwDW_fQga7Mwu-34">
          <mxGeometry relative="1" as="geometry" />
        </mxCell>
        <mxCell id="MP24_qXbwDW_fQga7Mwu-31" value="Clear Pass/Fail Data Logs And Timer Data" style="rounded=0;whiteSpace=wrap;html=1;labelBackgroundColor=none;fillColor=#FAE5C7;strokeColor=#0F8B8D;fontColor=#143642;" vertex="1" parent="MP24_qXbwDW_fQga7Mwu-29">
          <mxGeometry x="220" y="40" width="120" height="60" as="geometry" />
        </mxCell>
        <mxCell id="MP24_qXbwDW_fQga7Mwu-32" style="edgeStyle=orthogonalEdgeStyle;rounded=0;orthogonalLoop=1;jettySize=auto;html=1;labelBackgroundColor=none;strokeColor=#A8201A;fontColor=default;" edge="1" parent="MP24_qXbwDW_fQga7Mwu-29" source="MP24_qXbwDW_fQga7Mwu-34" target="MP24_qXbwDW_fQga7Mwu-37">
          <mxGeometry relative="1" as="geometry" />
        </mxCell>
        <mxCell id="MP24_qXbwDW_fQga7Mwu-33" style="edgeStyle=orthogonalEdgeStyle;rounded=0;orthogonalLoop=1;jettySize=auto;html=1;entryX=0;entryY=0.5;entryDx=0;entryDy=0;labelBackgroundColor=none;strokeColor=#A8201A;fontColor=default;" edge="1" parent="MP24_qXbwDW_fQga7Mwu-29" source="MP24_qXbwDW_fQga7Mwu-34" target="MP24_qXbwDW_fQga7Mwu-41">
          <mxGeometry relative="1" as="geometry">
            <Array as="points">
              <mxPoint x="430" y="235" />
            </Array>
          </mxGeometry>
        </mxCell>
        <mxCell id="MP24_qXbwDW_fQga7Mwu-34" value="Loop Directories" style="triangle;whiteSpace=wrap;html=1;labelBackgroundColor=none;fillColor=#FAE5C7;strokeColor=#0F8B8D;fontColor=#143642;" vertex="1" parent="MP24_qXbwDW_fQga7Mwu-29">
          <mxGeometry x="390" y="30" width="100" height="80" as="geometry" />
        </mxCell>
        <mxCell id="MP24_qXbwDW_fQga7Mwu-35" style="edgeStyle=orthogonalEdgeStyle;rounded=0;orthogonalLoop=1;jettySize=auto;html=1;entryX=0;entryY=0.5;entryDx=0;entryDy=0;labelBackgroundColor=none;strokeColor=#A8201A;fontColor=default;" edge="1" parent="MP24_qXbwDW_fQga7Mwu-29" source="MP24_qXbwDW_fQga7Mwu-37">
          <mxGeometry relative="1" as="geometry">
            <Array as="points">
              <mxPoint x="730" y="70" />
              <mxPoint x="730" y="70" />
            </Array>
            <mxPoint x="780" y="70" as="targetPoint" />
          </mxGeometry>
        </mxCell>
        <mxCell id="MP24_qXbwDW_fQga7Mwu-36" style="edgeStyle=orthogonalEdgeStyle;rounded=0;orthogonalLoop=1;jettySize=auto;html=1;entryX=0.5;entryY=0;entryDx=0;entryDy=0;labelBackgroundColor=none;strokeColor=#A8201A;fontColor=default;" edge="1" parent="MP24_qXbwDW_fQga7Mwu-29" source="MP24_qXbwDW_fQga7Mwu-37" target="MP24_qXbwDW_fQga7Mwu-41">
          <mxGeometry relative="1" as="geometry" />
        </mxCell>
        <mxCell id="MP24_qXbwDW_fQga7Mwu-37" value="Loop Files" style="triangle;whiteSpace=wrap;html=1;labelBackgroundColor=none;fillColor=#FAE5C7;strokeColor=#0F8B8D;fontColor=#143642;" vertex="1" parent="MP24_qXbwDW_fQga7Mwu-29">
          <mxGeometry x="590" y="30" width="90" height="80" as="geometry" />
        </mxCell>
        <mxCell id="MP24_qXbwDW_fQga7Mwu-38" style="edgeStyle=orthogonalEdgeStyle;rounded=0;orthogonalLoop=1;jettySize=auto;html=1;entryX=1;entryY=0.5;entryDx=0;entryDy=0;labelBackgroundColor=none;strokeColor=#A8201A;fontColor=default;" edge="1" parent="MP24_qXbwDW_fQga7Mwu-29" target="MP24_qXbwDW_fQga7Mwu-41">
          <mxGeometry relative="1" as="geometry">
            <Array as="points">
              <mxPoint x="820" y="235" />
            </Array>
            <mxPoint x="820" y="92" as="sourcePoint" />
          </mxGeometry>
        </mxCell>
        <mxCell id="MP24_qXbwDW_fQga7Mwu-39" value="" style="edgeStyle=orthogonalEdgeStyle;rounded=0;orthogonalLoop=1;jettySize=auto;html=1;labelBackgroundColor=none;strokeColor=#A8201A;fontColor=default;" edge="1" parent="MP24_qXbwDW_fQga7Mwu-29" source="MP24_qXbwDW_fQga7Mwu-41" target="MP24_qXbwDW_fQga7Mwu-44">
          <mxGeometry relative="1" as="geometry" />
        </mxCell>
        <mxCell id="MP24_qXbwDW_fQga7Mwu-40" style="edgeStyle=orthogonalEdgeStyle;rounded=0;orthogonalLoop=1;jettySize=auto;html=1;entryX=0.5;entryY=0;entryDx=0;entryDy=0;labelBackgroundColor=none;strokeColor=#A8201A;fontColor=default;" edge="1" parent="MP24_qXbwDW_fQga7Mwu-29" source="MP24_qXbwDW_fQga7Mwu-41" target="MP24_qXbwDW_fQga7Mwu-47">
          <mxGeometry relative="1" as="geometry" />
        </mxCell>
        <mxCell id="MP24_qXbwDW_fQga7Mwu-41" value="Check For BCMP Messages and TIMER|" style="rhombus;whiteSpace=wrap;html=1;labelBackgroundColor=none;fillColor=#FAE5C7;strokeColor=#0F8B8D;fontColor=#143642;" vertex="1" parent="MP24_qXbwDW_fQga7Mwu-29">
          <mxGeometry x="550" y="160" width="170" height="150" as="geometry" />
        </mxCell>
        <mxCell id="MP24_qXbwDW_fQga7Mwu-42" style="edgeStyle=orthogonalEdgeStyle;rounded=0;orthogonalLoop=1;jettySize=auto;html=1;entryX=1;entryY=0.5;entryDx=0;entryDy=0;labelBackgroundColor=none;strokeColor=#A8201A;fontColor=default;" edge="1" parent="MP24_qXbwDW_fQga7Mwu-29" source="MP24_qXbwDW_fQga7Mwu-44" target="MP24_qXbwDW_fQga7Mwu-49">
          <mxGeometry relative="1" as="geometry" />
        </mxCell>
        <mxCell id="MP24_qXbwDW_fQga7Mwu-43" style="edgeStyle=orthogonalEdgeStyle;rounded=0;orthogonalLoop=1;jettySize=auto;html=1;entryX=1;entryY=0.25;entryDx=0;entryDy=0;exitX=0.25;exitY=1;exitDx=0;exitDy=0;labelBackgroundColor=none;strokeColor=#A8201A;fontColor=default;" edge="1" parent="MP24_qXbwDW_fQga7Mwu-29" source="MP24_qXbwDW_fQga7Mwu-44" target="MP24_qXbwDW_fQga7Mwu-52">
          <mxGeometry relative="1" as="geometry">
            <Array as="points">
              <mxPoint x="540" y="518" />
            </Array>
          </mxGeometry>
        </mxCell>
        <mxCell id="MP24_qXbwDW_fQga7Mwu-44" value="Create BCMP Difference File" style="whiteSpace=wrap;html=1;labelBackgroundColor=none;fillColor=#FAE5C7;strokeColor=#0F8B8D;fontColor=#143642;" vertex="1" parent="MP24_qXbwDW_fQga7Mwu-29">
          <mxGeometry x="510" y="350" width="120" height="60" as="geometry" />
        </mxCell>
        <mxCell id="MP24_qXbwDW_fQga7Mwu-45" style="edgeStyle=orthogonalEdgeStyle;rounded=0;orthogonalLoop=1;jettySize=auto;html=1;entryX=1;entryY=0.5;entryDx=0;entryDy=0;labelBackgroundColor=none;strokeColor=#A8201A;fontColor=default;" edge="1" parent="MP24_qXbwDW_fQga7Mwu-29" source="MP24_qXbwDW_fQga7Mwu-47" target="MP24_qXbwDW_fQga7Mwu-50">
          <mxGeometry relative="1" as="geometry">
            <Array as="points">
              <mxPoint x="700" y="450" />
            </Array>
          </mxGeometry>
        </mxCell>
        <mxCell id="MP24_qXbwDW_fQga7Mwu-46" style="edgeStyle=orthogonalEdgeStyle;rounded=0;orthogonalLoop=1;jettySize=auto;html=1;exitX=0.75;exitY=1;exitDx=0;exitDy=0;entryX=1;entryY=0.75;entryDx=0;entryDy=0;labelBackgroundColor=none;strokeColor=#A8201A;fontColor=default;" edge="1" parent="MP24_qXbwDW_fQga7Mwu-29" source="MP24_qXbwDW_fQga7Mwu-47" target="MP24_qXbwDW_fQga7Mwu-54">
          <mxGeometry relative="1" as="geometry" />
        </mxCell>
        <mxCell id="MP24_qXbwDW_fQga7Mwu-47" value="Create Timer Log Files and Time Name File" style="whiteSpace=wrap;html=1;labelBackgroundColor=none;fillColor=#FAE5C7;strokeColor=#0F8B8D;fontColor=#143642;" vertex="1" parent="MP24_qXbwDW_fQga7Mwu-29">
          <mxGeometry x="640" y="350" width="120" height="60" as="geometry" />
        </mxCell>
        <mxCell id="MP24_qXbwDW_fQga7Mwu-48" value="Loop All Lines" style="triangle;whiteSpace=wrap;html=1;labelBackgroundColor=none;fillColor=#FAE5C7;strokeColor=#0F8B8D;fontColor=#143642;" vertex="1" parent="MP24_qXbwDW_fQga7Mwu-29">
          <mxGeometry x="780" y="30" width="90" height="80" as="geometry" />
        </mxCell>
        <mxCell id="MP24_qXbwDW_fQga7Mwu-49" value="Gather Default 24 Hour Period BCMP Data" style="rounded=0;whiteSpace=wrap;html=1;labelBackgroundColor=none;fillColor=#FAE5C7;strokeColor=#0F8B8D;fontColor=#143642;" vertex="1" parent="MP24_qXbwDW_fQga7Mwu-29">
          <mxGeometry x="300" y="350" width="120" height="60" as="geometry" />
        </mxCell>
        <mxCell id="MP24_qXbwDW_fQga7Mwu-50" value="Gather List Of Timer Names" style="rounded=0;whiteSpace=wrap;html=1;labelBackgroundColor=none;fillColor=#FAE5C7;strokeColor=#0F8B8D;fontColor=#143642;" vertex="1" parent="MP24_qXbwDW_fQga7Mwu-29">
          <mxGeometry x="300" y="420" width="120" height="60" as="geometry" />
        </mxCell>
        <mxCell id="MP24_qXbwDW_fQga7Mwu-51" style="edgeStyle=orthogonalEdgeStyle;rounded=0;orthogonalLoop=1;jettySize=auto;html=1;entryX=0.75;entryY=1;entryDx=0;entryDy=0;exitX=1;exitY=0.75;exitDx=0;exitDy=0;labelBackgroundColor=none;strokeColor=#A8201A;fontColor=default;" edge="1" parent="MP24_qXbwDW_fQga7Mwu-29" source="MP24_qXbwDW_fQga7Mwu-52" target="MP24_qXbwDW_fQga7Mwu-44">
          <mxGeometry relative="1" as="geometry" />
        </mxCell>
        <mxCell id="MP24_qXbwDW_fQga7Mwu-52" value="Grab new Time Data From File" style="whiteSpace=wrap;html=1;labelBackgroundColor=none;fillColor=#FAE5C7;strokeColor=#0F8B8D;fontColor=#143642;" vertex="1" parent="MP24_qXbwDW_fQga7Mwu-29">
          <mxGeometry x="305" y="502.5" width="120" height="60" as="geometry" />
        </mxCell>
        <mxCell id="MP24_qXbwDW_fQga7Mwu-53" style="edgeStyle=orthogonalEdgeStyle;rounded=0;orthogonalLoop=1;jettySize=auto;html=1;exitX=1;exitY=0.25;exitDx=0;exitDy=0;entryX=0.25;entryY=1;entryDx=0;entryDy=0;labelBackgroundColor=none;strokeColor=#A8201A;fontColor=default;" edge="1" parent="MP24_qXbwDW_fQga7Mwu-29" source="MP24_qXbwDW_fQga7Mwu-54" target="MP24_qXbwDW_fQga7Mwu-47">
          <mxGeometry relative="1" as="geometry" />
        </mxCell>
        <mxCell id="MP24_qXbwDW_fQga7Mwu-54" value="Grab Specific Timer full Timeline" style="whiteSpace=wrap;html=1;labelBackgroundColor=none;fillColor=#FAE5C7;strokeColor=#0F8B8D;fontColor=#143642;" vertex="1" parent="MP24_qXbwDW_fQga7Mwu-29">
          <mxGeometry x="305" y="600" width="120" height="60" as="geometry" />
        </mxCell>
        <mxCell id="MP24_qXbwDW_fQga7Mwu-55" style="edgeStyle=orthogonalEdgeStyle;rounded=0;orthogonalLoop=1;jettySize=auto;html=1;exitX=0.098;exitY=0.688;exitDx=0;exitDy=0;exitPerimeter=0;entryX=0.96;entryY=0.7;entryDx=0;entryDy=0;entryPerimeter=0;labelBackgroundColor=none;strokeColor=#A8201A;fontColor=default;" edge="1" parent="MP24_qXbwDW_fQga7Mwu-6" source="MP24_qXbwDW_fQga7Mwu-28" target="MP24_qXbwDW_fQga7Mwu-9">
          <mxGeometry relative="1" as="geometry">
            <Array as="points">
              <mxPoint x="859" y="210" />
              <mxPoint x="820" y="210" />
              <mxPoint x="820" y="218" />
            </Array>
          </mxGeometry>
        </mxCell>
        <mxCell id="MP24_qXbwDW_fQga7Mwu-56" style="edgeStyle=orthogonalEdgeStyle;rounded=0;orthogonalLoop=1;jettySize=auto;html=1;exitX=0.88;exitY=0.25;exitDx=0;exitDy=0;exitPerimeter=0;entryX=0.07;entryY=0.4;entryDx=0;entryDy=0;entryPerimeter=0;labelBackgroundColor=none;strokeColor=#A8201A;fontColor=default;" edge="1" parent="MP24_qXbwDW_fQga7Mwu-6" source="MP24_qXbwDW_fQga7Mwu-9" target="MP24_qXbwDW_fQga7Mwu-28">
          <mxGeometry relative="1" as="geometry" />
        </mxCell>
        <mxCell id="MP24_qXbwDW_fQga7Mwu-57" style="edgeStyle=orthogonalEdgeStyle;rounded=0;orthogonalLoop=1;jettySize=auto;html=1;entryX=0.8;entryY=0.8;entryDx=0;entryDy=0;entryPerimeter=0;labelBackgroundColor=none;strokeColor=#A8201A;fontColor=default;" edge="1" parent="MP24_qXbwDW_fQga7Mwu-6" source="MP24_qXbwDW_fQga7Mwu-49" target="MP24_qXbwDW_fQga7Mwu-28">
          <mxGeometry relative="1" as="geometry" />
        </mxCell>
        <mxCell id="MP24_qXbwDW_fQga7Mwu-58" style="edgeStyle=orthogonalEdgeStyle;rounded=0;orthogonalLoop=1;jettySize=auto;html=1;entryX=0.31;entryY=0.8;entryDx=0;entryDy=0;entryPerimeter=0;labelBackgroundColor=none;strokeColor=#A8201A;fontColor=default;" edge="1" parent="MP24_qXbwDW_fQga7Mwu-6" source="MP24_qXbwDW_fQga7Mwu-50" target="MP24_qXbwDW_fQga7Mwu-28">
          <mxGeometry relative="1" as="geometry" />
        </mxCell>
        <mxCell id="MP24_qXbwDW_fQga7Mwu-59" value="" style="edgeStyle=orthogonalEdgeStyle;rounded=0;orthogonalLoop=1;jettySize=auto;html=1;exitX=0.88;exitY=0.25;exitDx=0;exitDy=0;exitPerimeter=0;labelBackgroundColor=none;strokeColor=#A8201A;fontColor=default;" edge="1" parent="MP24_qXbwDW_fQga7Mwu-6" source="MP24_qXbwDW_fQga7Mwu-16" target="MP24_qXbwDW_fQga7Mwu-52">
          <mxGeometry relative="1" as="geometry" />
        </mxCell>
        <mxCell id="MP24_qXbwDW_fQga7Mwu-60" style="edgeStyle=orthogonalEdgeStyle;rounded=0;orthogonalLoop=1;jettySize=auto;html=1;exitX=0.96;exitY=0.7;exitDx=0;exitDy=0;exitPerimeter=0;entryX=0;entryY=0.5;entryDx=0;entryDy=0;labelBackgroundColor=none;strokeColor=#A8201A;fontColor=default;" edge="1" parent="MP24_qXbwDW_fQga7Mwu-6" source="MP24_qXbwDW_fQga7Mwu-16" target="MP24_qXbwDW_fQga7Mwu-54">
          <mxGeometry relative="1" as="geometry" />
        </mxCell>
        <mxCell id="MP24_qXbwDW_fQga7Mwu-61" style="edgeStyle=orthogonalEdgeStyle;rounded=0;orthogonalLoop=1;jettySize=auto;html=1;entryX=0.8;entryY=0.8;entryDx=0;entryDy=0;entryPerimeter=0;labelBackgroundColor=none;strokeColor=#A8201A;fontColor=default;" edge="1" parent="MP24_qXbwDW_fQga7Mwu-6" source="MP24_qXbwDW_fQga7Mwu-52" target="MP24_qXbwDW_fQga7Mwu-16">
          <mxGeometry relative="1" as="geometry">
            <Array as="points">
              <mxPoint x="1205" y="610" />
              <mxPoint x="1110" y="610" />
              <mxPoint x="1110" y="710" />
              <mxPoint x="992" y="710" />
            </Array>
          </mxGeometry>
        </mxCell>
        <mxCell id="MP24_qXbwDW_fQga7Mwu-62" style="edgeStyle=orthogonalEdgeStyle;rounded=0;orthogonalLoop=1;jettySize=auto;html=1;entryX=0.31;entryY=0.8;entryDx=0;entryDy=0;entryPerimeter=0;labelBackgroundColor=none;strokeColor=#A8201A;fontColor=default;" edge="1" parent="MP24_qXbwDW_fQga7Mwu-6" source="MP24_qXbwDW_fQga7Mwu-54" target="MP24_qXbwDW_fQga7Mwu-16">
          <mxGeometry relative="1" as="geometry">
            <Array as="points">
              <mxPoint x="1205" y="740" />
              <mxPoint x="899" y="740" />
            </Array>
          </mxGeometry>
        </mxCell>
        <mxCell id="MP24_qXbwDW_fQga7Mwu-63" value="&lt;h1 style=&quot;margin-top: 0px;&quot;&gt;General Flow&lt;/h1&gt;&lt;p&gt;&lt;/p&gt;&lt;ol&gt;&lt;li&gt;User enters the page and tells the server to generate data to a cache for retrieving at a later point.&lt;/li&gt;&lt;li&gt;The 1 Day checkbox is selected by default.&lt;/li&gt;&lt;li&gt;The timer name dropdown menu is populated from this data as well as an initial line graph with all built part times.&lt;/li&gt;&lt;li&gt;The user can select any timer to view its data in bargraph format as well as choose any day range which affects both graphs.&lt;/li&gt;&lt;/ol&gt;&lt;p&gt;&lt;/p&gt;" style="text;html=1;whiteSpace=wrap;overflow=hidden;rounded=0;labelBackgroundColor=none;fontColor=#143642;" vertex="1" parent="1">
          <mxGeometry x="810" y="-820" width="740" height="120" as="geometry" />
        </mxCell>
        <mxCell id="MP24_qXbwDW_fQga7Mwu-64" value="Graphs And Charts" style="swimlane;horizontal=0;whiteSpace=wrap;html=1;labelBackgroundColor=none;fillColor=#FAE5C7;strokeColor=#0F8B8D;fontColor=#143642;" vertex="1" parent="1">
          <mxGeometry x="-950" y="810" width="1740" height="790" as="geometry" />
        </mxCell>
        <mxCell id="MP24_qXbwDW_fQga7Mwu-65" value="Client Portion" style="swimlane;whiteSpace=wrap;html=1;labelBackgroundColor=none;fillColor=#FAE5C7;strokeColor=#0F8B8D;fontColor=#143642;" vertex="1" parent="MP24_qXbwDW_fQga7Mwu-64">
          <mxGeometry x="40" y="20" width="800" height="750" as="geometry" />
        </mxCell>
        <mxCell id="MP24_qXbwDW_fQga7Mwu-67" value="Client Sends Request" style="ellipse;shape=cloud;whiteSpace=wrap;html=1;labelBackgroundColor=none;fillColor=#FAE5C7;strokeColor=#0F8B8D;fontColor=#143642;" vertex="1" parent="MP24_qXbwDW_fQga7Mwu-65">
          <mxGeometry x="580" y="110" width="190" height="125" as="geometry" />
        </mxCell>
        <mxCell id="MP24_qXbwDW_fQga7Mwu-68" value="" style="edgeStyle=orthogonalEdgeStyle;rounded=0;orthogonalLoop=1;jettySize=auto;html=1;entryX=0;entryY=0.5;entryDx=0;entryDy=0;labelBackgroundColor=none;strokeColor=#A8201A;fontColor=default;" edge="1" parent="MP24_qXbwDW_fQga7Mwu-65" source="MP24_qXbwDW_fQga7Mwu-69" target="MP24_qXbwDW_fQga7Mwu-71">
          <mxGeometry relative="1" as="geometry">
            <Array as="points">
              <mxPoint x="70" y="180" />
            </Array>
          </mxGeometry>
        </mxCell>
        <mxCell id="MP24_qXbwDW_fQga7Mwu-103" style="edgeStyle=orthogonalEdgeStyle;rounded=0;orthogonalLoop=1;jettySize=auto;html=1;entryX=0;entryY=0.5;entryDx=0;entryDy=0;labelBackgroundColor=none;strokeColor=#A8201A;fontColor=default;" edge="1" parent="MP24_qXbwDW_fQga7Mwu-65" source="MP24_qXbwDW_fQga7Mwu-69" target="MP24_qXbwDW_fQga7Mwu-101">
          <mxGeometry relative="1" as="geometry" />
        </mxCell>
        <mxCell id="MP24_qXbwDW_fQga7Mwu-117" style="edgeStyle=orthogonalEdgeStyle;rounded=0;orthogonalLoop=1;jettySize=auto;html=1;entryX=0;entryY=0.5;entryDx=0;entryDy=0;labelBackgroundColor=none;strokeColor=#A8201A;fontColor=default;" edge="1" parent="MP24_qXbwDW_fQga7Mwu-65" source="MP24_qXbwDW_fQga7Mwu-69" target="MP24_qXbwDW_fQga7Mwu-116">
          <mxGeometry relative="1" as="geometry">
            <Array as="points">
              <mxPoint x="70" y="480" />
            </Array>
          </mxGeometry>
        </mxCell>
        <mxCell id="MP24_qXbwDW_fQga7Mwu-69" value="Page Entered" style="ellipse;whiteSpace=wrap;html=1;labelBackgroundColor=none;fillColor=#FAE5C7;strokeColor=#0F8B8D;fontColor=#143642;" vertex="1" parent="MP24_qXbwDW_fQga7Mwu-65">
          <mxGeometry x="10" y="347.5" width="120" height="80" as="geometry" />
        </mxCell>
        <mxCell id="MP24_qXbwDW_fQga7Mwu-70" value="" style="edgeStyle=orthogonalEdgeStyle;rounded=0;orthogonalLoop=1;jettySize=auto;html=1;labelBackgroundColor=none;strokeColor=#A8201A;fontColor=default;" edge="1" parent="MP24_qXbwDW_fQga7Mwu-65" source="MP24_qXbwDW_fQga7Mwu-71" target="MP24_qXbwDW_fQga7Mwu-72">
          <mxGeometry relative="1" as="geometry" />
        </mxCell>
        <mxCell id="MP24_qXbwDW_fQga7Mwu-71" value="User opens the page" style="whiteSpace=wrap;html=1;labelBackgroundColor=none;fillColor=#FAE5C7;strokeColor=#0F8B8D;fontColor=#143642;" vertex="1" parent="MP24_qXbwDW_fQga7Mwu-65">
          <mxGeometry x="170" y="150" width="120" height="60" as="geometry" />
        </mxCell>
        <mxCell id="MP24_qXbwDW_fQga7Mwu-72" value="HTTPGet Is Created And &quot;Initial&quot;, &quot;&quot;, &quot;&quot;, etc... is sent" style="whiteSpace=wrap;html=1;labelBackgroundColor=none;fillColor=#FAE5C7;strokeColor=#0F8B8D;fontColor=#143642;" vertex="1" parent="MP24_qXbwDW_fQga7Mwu-65">
          <mxGeometry x="380" y="150" width="120" height="60" as="geometry" />
        </mxCell>
        <mxCell id="MP24_qXbwDW_fQga7Mwu-73" style="edgeStyle=orthogonalEdgeStyle;rounded=0;orthogonalLoop=1;jettySize=auto;html=1;entryX=0.16;entryY=0.55;entryDx=0;entryDy=0;entryPerimeter=0;labelBackgroundColor=none;strokeColor=#A8201A;fontColor=default;" edge="1" parent="MP24_qXbwDW_fQga7Mwu-65" source="MP24_qXbwDW_fQga7Mwu-72" target="MP24_qXbwDW_fQga7Mwu-67">
          <mxGeometry relative="1" as="geometry" />
        </mxCell>
        <mxCell id="MP24_qXbwDW_fQga7Mwu-74" value="Returned list is parsed and added to selection box." style="whiteSpace=wrap;html=1;labelBackgroundColor=none;fillColor=#FAE5C7;strokeColor=#0F8B8D;fontColor=#143642;" vertex="1" parent="MP24_qXbwDW_fQga7Mwu-65">
          <mxGeometry x="625" y="440" width="120" height="60" as="geometry" />
        </mxCell>
        <mxCell id="MP24_qXbwDW_fQga7Mwu-101" value="User Selects a start and end date." style="whiteSpace=wrap;html=1;labelBackgroundColor=none;fillColor=#FAE5C7;strokeColor=#0F8B8D;fontColor=#143642;" vertex="1" parent="MP24_qXbwDW_fQga7Mwu-65">
          <mxGeometry x="190" y="357.5" width="120" height="60" as="geometry" />
        </mxCell>
        <mxCell id="MP24_qXbwDW_fQga7Mwu-105" style="edgeStyle=orthogonalEdgeStyle;rounded=0;orthogonalLoop=1;jettySize=auto;html=1;entryX=0.5;entryY=0;entryDx=0;entryDy=0;labelBackgroundColor=none;strokeColor=#A8201A;fontColor=default;" edge="1" parent="MP24_qXbwDW_fQga7Mwu-65" source="MP24_qXbwDW_fQga7Mwu-102" target="MP24_qXbwDW_fQga7Mwu-74">
          <mxGeometry relative="1" as="geometry" />
        </mxCell>
        <mxCell id="MP24_qXbwDW_fQga7Mwu-102" value="Client Sends Request" style="ellipse;shape=cloud;whiteSpace=wrap;html=1;labelBackgroundColor=none;fillColor=#FAE5C7;strokeColor=#0F8B8D;fontColor=#143642;" vertex="1" parent="MP24_qXbwDW_fQga7Mwu-65">
          <mxGeometry x="590" y="280" width="190" height="125" as="geometry" />
        </mxCell>
        <mxCell id="MP24_qXbwDW_fQga7Mwu-104" style="edgeStyle=orthogonalEdgeStyle;rounded=0;orthogonalLoop=1;jettySize=auto;html=1;entryX=0.16;entryY=0.55;entryDx=0;entryDy=0;entryPerimeter=0;labelBackgroundColor=none;strokeColor=#A8201A;fontColor=default;" edge="1" parent="MP24_qXbwDW_fQga7Mwu-65" source="MP24_qXbwDW_fQga7Mwu-101" target="MP24_qXbwDW_fQga7Mwu-102">
          <mxGeometry relative="1" as="geometry" />
        </mxCell>
        <mxCell id="MP24_qXbwDW_fQga7Mwu-116" value="User Selects A Graph For Display" style="whiteSpace=wrap;html=1;labelBackgroundColor=none;fillColor=#FAE5C7;strokeColor=#0F8B8D;fontColor=#143642;" vertex="1" parent="MP24_qXbwDW_fQga7Mwu-65">
          <mxGeometry x="190" y="450" width="120" height="60" as="geometry" />
        </mxCell>
        <mxCell id="MP24_qXbwDW_fQga7Mwu-125" value="" style="edgeStyle=orthogonalEdgeStyle;rounded=0;orthogonalLoop=1;jettySize=auto;html=1;labelBackgroundColor=none;strokeColor=#A8201A;fontColor=default;" edge="1" parent="MP24_qXbwDW_fQga7Mwu-65" source="MP24_qXbwDW_fQga7Mwu-122" target="MP24_qXbwDW_fQga7Mwu-124">
          <mxGeometry relative="1" as="geometry" />
        </mxCell>
        <mxCell id="MP24_qXbwDW_fQga7Mwu-122" value="Determine Graph Type&lt;div&gt;Bar,Line,Multi&lt;/div&gt;" style="whiteSpace=wrap;html=1;labelBackgroundColor=none;fillColor=#FAE5C7;strokeColor=#0F8B8D;fontColor=#143642;" vertex="1" parent="MP24_qXbwDW_fQga7Mwu-65">
          <mxGeometry x="440" y="600" width="120" height="60" as="geometry" />
        </mxCell>
        <mxCell id="MP24_qXbwDW_fQga7Mwu-127" value="" style="edgeStyle=orthogonalEdgeStyle;rounded=0;orthogonalLoop=1;jettySize=auto;html=1;labelBackgroundColor=none;strokeColor=#A8201A;fontColor=default;" edge="1" parent="MP24_qXbwDW_fQga7Mwu-65" source="MP24_qXbwDW_fQga7Mwu-124" target="MP24_qXbwDW_fQga7Mwu-126">
          <mxGeometry relative="1" as="geometry" />
        </mxCell>
        <mxCell id="MP24_qXbwDW_fQga7Mwu-124" value="Process each by delimeter or occurance" style="whiteSpace=wrap;html=1;labelBackgroundColor=none;fillColor=#FAE5C7;strokeColor=#0F8B8D;fontColor=#143642;" vertex="1" parent="MP24_qXbwDW_fQga7Mwu-65">
          <mxGeometry x="270" y="600" width="120" height="60" as="geometry" />
        </mxCell>
        <mxCell id="MP24_qXbwDW_fQga7Mwu-126" value="Destroy and create new graph" style="whiteSpace=wrap;html=1;labelBackgroundColor=none;fillColor=#FAE5C7;strokeColor=#0F8B8D;fontColor=#143642;" vertex="1" parent="MP24_qXbwDW_fQga7Mwu-65">
          <mxGeometry x="100" y="600" width="120" height="60" as="geometry" />
        </mxCell>
        <mxCell id="MP24_qXbwDW_fQga7Mwu-75" value="HTTPGet Initial" style="edgeStyle=orthogonalEdgeStyle;rounded=0;orthogonalLoop=1;jettySize=auto;html=1;exitX=0.88;exitY=0.25;exitDx=0;exitDy=0;exitPerimeter=0;entryX=0;entryY=0.5;entryDx=0;entryDy=0;labelBackgroundColor=none;strokeColor=#A8201A;fontColor=default;" edge="1" parent="MP24_qXbwDW_fQga7Mwu-64" source="MP24_qXbwDW_fQga7Mwu-76" target="MP24_qXbwDW_fQga7Mwu-86">
          <mxGeometry x="-0.2981" relative="1" as="geometry">
            <mxPoint as="offset" />
            <mxPoint x="1170" y="152.5" as="targetPoint" />
            <Array as="points">
              <mxPoint x="1007" y="160" />
            </Array>
          </mxGeometry>
        </mxCell>
        <mxCell id="MP24_qXbwDW_fQga7Mwu-76" value="Client Request Recieved" style="ellipse;shape=cloud;whiteSpace=wrap;html=1;labelBackgroundColor=none;fillColor=#FAE5C7;strokeColor=#0F8B8D;fontColor=#143642;" vertex="1" parent="MP24_qXbwDW_fQga7Mwu-64">
          <mxGeometry x="840" y="122.5" width="190" height="125" as="geometry" />
        </mxCell>
        <mxCell id="MP24_qXbwDW_fQga7Mwu-80" value="" style="endArrow=none;dashed=1;html=1;dashPattern=1 3;strokeWidth=2;rounded=0;labelBackgroundColor=none;strokeColor=#A8201A;fontColor=default;" edge="1" parent="MP24_qXbwDW_fQga7Mwu-64" target="MP24_qXbwDW_fQga7Mwu-81">
          <mxGeometry width="50" height="50" relative="1" as="geometry">
            <mxPoint x="1065" y="150" as="sourcePoint" />
            <mxPoint x="1070" y="150" as="targetPoint" />
          </mxGeometry>
        </mxCell>
        <mxCell id="MP24_qXbwDW_fQga7Mwu-81" value="string taskType&lt;div&gt;string startTime&lt;/div&gt;&lt;div&gt;string endTime&lt;/div&gt;&lt;div&gt;string dataName&lt;/div&gt;" style="text;html=1;align=center;verticalAlign=middle;whiteSpace=wrap;rounded=0;labelBackgroundColor=none;fontColor=#143642;" vertex="1" parent="MP24_qXbwDW_fQga7Mwu-64">
          <mxGeometry x="950" y="50" width="230" height="50" as="geometry" />
        </mxCell>
        <mxCell id="MP24_qXbwDW_fQga7Mwu-94" value="Server Portion" style="swimlane;whiteSpace=wrap;html=1;labelBackgroundColor=none;fillColor=#FAE5C7;strokeColor=#0F8B8D;fontColor=#143642;" vertex="1" parent="MP24_qXbwDW_fQga7Mwu-64">
          <mxGeometry x="840" y="20" width="880" height="750" as="geometry" />
        </mxCell>
        <mxCell id="MP24_qXbwDW_fQga7Mwu-84" style="edgeStyle=orthogonalEdgeStyle;rounded=0;orthogonalLoop=1;jettySize=auto;html=1;labelBackgroundColor=none;strokeColor=#A8201A;fontColor=default;" edge="1" parent="MP24_qXbwDW_fQga7Mwu-94" source="MP24_qXbwDW_fQga7Mwu-86" target="MP24_qXbwDW_fQga7Mwu-89">
          <mxGeometry relative="1" as="geometry" />
        </mxCell>
        <mxCell id="MP24_qXbwDW_fQga7Mwu-85" style="edgeStyle=orthogonalEdgeStyle;rounded=0;orthogonalLoop=1;jettySize=auto;html=1;entryX=0;entryY=0.5;entryDx=0;entryDy=0;labelBackgroundColor=none;strokeColor=#A8201A;fontColor=default;" edge="1" parent="MP24_qXbwDW_fQga7Mwu-94" source="MP24_qXbwDW_fQga7Mwu-86" target="MP24_qXbwDW_fQga7Mwu-93">
          <mxGeometry relative="1" as="geometry">
            <Array as="points">
              <mxPoint x="390" y="305" />
            </Array>
          </mxGeometry>
        </mxCell>
        <mxCell id="MP24_qXbwDW_fQga7Mwu-86" value="Loop Directories" style="triangle;whiteSpace=wrap;html=1;labelBackgroundColor=none;fillColor=#FAE5C7;strokeColor=#0F8B8D;fontColor=#143642;" vertex="1" parent="MP24_qXbwDW_fQga7Mwu-94">
          <mxGeometry x="350" y="100" width="100" height="80" as="geometry" />
        </mxCell>
        <mxCell id="MP24_qXbwDW_fQga7Mwu-87" style="edgeStyle=orthogonalEdgeStyle;rounded=0;orthogonalLoop=1;jettySize=auto;html=1;entryX=0;entryY=0.5;entryDx=0;entryDy=0;labelBackgroundColor=none;strokeColor=#A8201A;fontColor=default;" edge="1" parent="MP24_qXbwDW_fQga7Mwu-94" source="MP24_qXbwDW_fQga7Mwu-89" target="MP24_qXbwDW_fQga7Mwu-91">
          <mxGeometry relative="1" as="geometry">
            <Array as="points">
              <mxPoint x="690" y="140" />
              <mxPoint x="690" y="140" />
            </Array>
          </mxGeometry>
        </mxCell>
        <mxCell id="MP24_qXbwDW_fQga7Mwu-88" style="edgeStyle=orthogonalEdgeStyle;rounded=0;orthogonalLoop=1;jettySize=auto;html=1;entryX=0.5;entryY=0;entryDx=0;entryDy=0;labelBackgroundColor=none;strokeColor=#A8201A;fontColor=default;" edge="1" parent="MP24_qXbwDW_fQga7Mwu-94" source="MP24_qXbwDW_fQga7Mwu-89" target="MP24_qXbwDW_fQga7Mwu-93">
          <mxGeometry relative="1" as="geometry" />
        </mxCell>
        <mxCell id="MP24_qXbwDW_fQga7Mwu-89" value="Loop Files" style="triangle;whiteSpace=wrap;html=1;labelBackgroundColor=none;fillColor=#FAE5C7;strokeColor=#0F8B8D;fontColor=#143642;" vertex="1" parent="MP24_qXbwDW_fQga7Mwu-94">
          <mxGeometry x="550" y="100" width="90" height="80" as="geometry" />
        </mxCell>
        <mxCell id="MP24_qXbwDW_fQga7Mwu-90" style="edgeStyle=orthogonalEdgeStyle;rounded=0;orthogonalLoop=1;jettySize=auto;html=1;entryX=1;entryY=0.5;entryDx=0;entryDy=0;labelBackgroundColor=none;strokeColor=#A8201A;fontColor=default;" edge="1" parent="MP24_qXbwDW_fQga7Mwu-94" source="MP24_qXbwDW_fQga7Mwu-91" target="MP24_qXbwDW_fQga7Mwu-93">
          <mxGeometry relative="1" as="geometry">
            <Array as="points">
              <mxPoint x="780" y="305" />
            </Array>
          </mxGeometry>
        </mxCell>
        <mxCell id="MP24_qXbwDW_fQga7Mwu-91" value="Loop All Lines" style="triangle;whiteSpace=wrap;html=1;labelBackgroundColor=none;fillColor=#FAE5C7;strokeColor=#0F8B8D;fontColor=#143642;" vertex="1" parent="MP24_qXbwDW_fQga7Mwu-94">
          <mxGeometry x="740" y="100" width="90" height="80" as="geometry" />
        </mxCell>
        <mxCell id="MP24_qXbwDW_fQga7Mwu-93" value="Check For GRAPHDATA|&lt;div&gt;and precreate all data&lt;/div&gt;" style="rhombus;whiteSpace=wrap;html=1;labelBackgroundColor=none;fillColor=#FAE5C7;strokeColor=#0F8B8D;fontColor=#143642;" vertex="1" parent="MP24_qXbwDW_fQga7Mwu-94">
          <mxGeometry x="510" y="230" width="170" height="150" as="geometry" />
        </mxCell>
        <mxCell id="MP24_qXbwDW_fQga7Mwu-110" value="HTTPGet graphNames, startDate,endDate, &quot;&quot;" style="edgeStyle=orthogonalEdgeStyle;rounded=0;orthogonalLoop=1;jettySize=auto;html=1;entryX=0;entryY=0.5;entryDx=0;entryDy=0;exitX=0.875;exitY=0.5;exitDx=0;exitDy=0;exitPerimeter=0;labelBackgroundColor=none;strokeColor=#A8201A;fontColor=default;" edge="1" parent="MP24_qXbwDW_fQga7Mwu-94" source="MP24_qXbwDW_fQga7Mwu-106" target="MP24_qXbwDW_fQga7Mwu-109">
          <mxGeometry relative="1" as="geometry" />
        </mxCell>
        <mxCell id="MP24_qXbwDW_fQga7Mwu-106" value="Client Request Recieved" style="ellipse;shape=cloud;whiteSpace=wrap;html=1;labelBackgroundColor=none;fillColor=#FAE5C7;strokeColor=#0F8B8D;fontColor=#143642;" vertex="1" parent="MP24_qXbwDW_fQga7Mwu-94">
          <mxGeometry x="20" y="280" width="190" height="125" as="geometry" />
        </mxCell>
        <mxCell id="MP24_qXbwDW_fQga7Mwu-109" value="Check precrated logs for&amp;nbsp;&lt;div&gt;request and add to an array&amp;nbsp;&lt;/div&gt;&lt;div&gt;for use then return it&lt;/div&gt;" style="triangle;whiteSpace=wrap;html=1;align=left;labelBackgroundColor=none;fillColor=#FAE5C7;strokeColor=#0F8B8D;fontColor=#143642;" vertex="1" parent="MP24_qXbwDW_fQga7Mwu-94">
          <mxGeometry x="580" y="410" width="200" height="120" as="geometry" />
        </mxCell>
        <mxCell id="MP24_qXbwDW_fQga7Mwu-111" style="edgeStyle=orthogonalEdgeStyle;rounded=0;orthogonalLoop=1;jettySize=auto;html=1;entryX=0.96;entryY=0.7;entryDx=0;entryDy=0;entryPerimeter=0;labelBackgroundColor=none;strokeColor=#A8201A;fontColor=default;" edge="1" parent="MP24_qXbwDW_fQga7Mwu-94" source="MP24_qXbwDW_fQga7Mwu-109" target="MP24_qXbwDW_fQga7Mwu-106">
          <mxGeometry relative="1" as="geometry">
            <Array as="points">
              <mxPoint x="680" y="550" />
              <mxPoint x="202" y="550" />
            </Array>
          </mxGeometry>
        </mxCell>
        <mxCell id="MP24_qXbwDW_fQga7Mwu-112" value="Client Sends Request" style="ellipse;shape=cloud;whiteSpace=wrap;html=1;labelBackgroundColor=none;fillColor=#FAE5C7;strokeColor=#0F8B8D;fontColor=#143642;" vertex="1" parent="MP24_qXbwDW_fQga7Mwu-94">
          <mxGeometry x="-210" y="567.5" width="190" height="125" as="geometry" />
        </mxCell>
        <mxCell id="MP24_qXbwDW_fQga7Mwu-119" style="edgeStyle=orthogonalEdgeStyle;rounded=0;orthogonalLoop=1;jettySize=auto;html=1;exitX=0.875;exitY=0.5;exitDx=0;exitDy=0;exitPerimeter=0;entryX=0;entryY=0.5;entryDx=0;entryDy=0;labelBackgroundColor=none;strokeColor=#A8201A;fontColor=default;" edge="1" parent="MP24_qXbwDW_fQga7Mwu-94" source="MP24_qXbwDW_fQga7Mwu-113" target="MP24_qXbwDW_fQga7Mwu-120">
          <mxGeometry relative="1" as="geometry">
            <mxPoint x="320" y="622.5" as="targetPoint" />
          </mxGeometry>
        </mxCell>
        <mxCell id="MP24_qXbwDW_fQga7Mwu-113" value="Client Request Recieved" style="ellipse;shape=cloud;whiteSpace=wrap;html=1;labelBackgroundColor=none;fillColor=#FAE5C7;strokeColor=#0F8B8D;fontColor=#143642;" vertex="1" parent="MP24_qXbwDW_fQga7Mwu-94">
          <mxGeometry x="10" y="560" width="190" height="125" as="geometry" />
        </mxCell>
        <mxCell id="MP24_qXbwDW_fQga7Mwu-114" style="edgeStyle=orthogonalEdgeStyle;rounded=0;orthogonalLoop=1;jettySize=auto;html=1;exitX=0.098;exitY=0.688;exitDx=0;exitDy=0;exitPerimeter=0;entryX=0.96;entryY=0.7;entryDx=0;entryDy=0;entryPerimeter=0;labelBackgroundColor=none;strokeColor=#A8201A;fontColor=default;" edge="1" parent="MP24_qXbwDW_fQga7Mwu-94" source="MP24_qXbwDW_fQga7Mwu-113" target="MP24_qXbwDW_fQga7Mwu-112">
          <mxGeometry relative="1" as="geometry">
            <Array as="points">
              <mxPoint x="29" y="647.5" />
              <mxPoint x="-10" y="647.5" />
              <mxPoint x="-10" y="655.5" />
            </Array>
          </mxGeometry>
        </mxCell>
        <mxCell id="MP24_qXbwDW_fQga7Mwu-115" style="edgeStyle=orthogonalEdgeStyle;rounded=0;orthogonalLoop=1;jettySize=auto;html=1;exitX=0.88;exitY=0.25;exitDx=0;exitDy=0;exitPerimeter=0;entryX=0.07;entryY=0.4;entryDx=0;entryDy=0;entryPerimeter=0;labelBackgroundColor=none;strokeColor=#A8201A;fontColor=default;" edge="1" parent="MP24_qXbwDW_fQga7Mwu-94" source="MP24_qXbwDW_fQga7Mwu-112" target="MP24_qXbwDW_fQga7Mwu-113">
          <mxGeometry relative="1" as="geometry" />
        </mxCell>
        <mxCell id="MP24_qXbwDW_fQga7Mwu-120" value="Create an array with all of that graphs data and return it." style="triangle;whiteSpace=wrap;html=1;align=left;labelBackgroundColor=none;fillColor=#FAE5C7;strokeColor=#0F8B8D;fontColor=#143642;" vertex="1" parent="MP24_qXbwDW_fQga7Mwu-94">
          <mxGeometry x="310" y="562.5" width="200" height="120" as="geometry" />
        </mxCell>
        <mxCell id="MP24_qXbwDW_fQga7Mwu-121" style="edgeStyle=orthogonalEdgeStyle;rounded=0;orthogonalLoop=1;jettySize=auto;html=1;entryX=0.8;entryY=0.8;entryDx=0;entryDy=0;entryPerimeter=0;labelBackgroundColor=none;strokeColor=#A8201A;fontColor=default;" edge="1" parent="MP24_qXbwDW_fQga7Mwu-94" source="MP24_qXbwDW_fQga7Mwu-120" target="MP24_qXbwDW_fQga7Mwu-113">
          <mxGeometry relative="1" as="geometry">
            <Array as="points">
              <mxPoint x="530" y="623" />
              <mxPoint x="530" y="700" />
              <mxPoint x="162" y="700" />
            </Array>
          </mxGeometry>
        </mxCell>
        <mxCell id="MP24_qXbwDW_fQga7Mwu-96" style="edgeStyle=orthogonalEdgeStyle;rounded=0;orthogonalLoop=1;jettySize=auto;html=1;exitX=0.098;exitY=0.688;exitDx=0;exitDy=0;exitPerimeter=0;entryX=0.96;entryY=0.7;entryDx=0;entryDy=0;entryPerimeter=0;labelBackgroundColor=none;strokeColor=#A8201A;fontColor=default;" edge="1" parent="MP24_qXbwDW_fQga7Mwu-64" source="MP24_qXbwDW_fQga7Mwu-76" target="MP24_qXbwDW_fQga7Mwu-67">
          <mxGeometry relative="1" as="geometry">
            <Array as="points">
              <mxPoint x="859" y="210" />
              <mxPoint x="820" y="210" />
              <mxPoint x="820" y="218" />
            </Array>
          </mxGeometry>
        </mxCell>
        <mxCell id="MP24_qXbwDW_fQga7Mwu-97" style="edgeStyle=orthogonalEdgeStyle;rounded=0;orthogonalLoop=1;jettySize=auto;html=1;exitX=0.88;exitY=0.25;exitDx=0;exitDy=0;exitPerimeter=0;entryX=0.07;entryY=0.4;entryDx=0;entryDy=0;entryPerimeter=0;labelBackgroundColor=none;strokeColor=#A8201A;fontColor=default;" edge="1" parent="MP24_qXbwDW_fQga7Mwu-64" source="MP24_qXbwDW_fQga7Mwu-67" target="MP24_qXbwDW_fQga7Mwu-76">
          <mxGeometry relative="1" as="geometry" />
        </mxCell>
        <mxCell id="MP24_qXbwDW_fQga7Mwu-107" style="edgeStyle=orthogonalEdgeStyle;rounded=0;orthogonalLoop=1;jettySize=auto;html=1;exitX=0.88;exitY=0.25;exitDx=0;exitDy=0;exitPerimeter=0;entryX=0.25;entryY=0.25;entryDx=0;entryDy=0;entryPerimeter=0;labelBackgroundColor=none;strokeColor=#A8201A;fontColor=default;" edge="1" parent="MP24_qXbwDW_fQga7Mwu-64" source="MP24_qXbwDW_fQga7Mwu-102" target="MP24_qXbwDW_fQga7Mwu-106">
          <mxGeometry relative="1" as="geometry">
            <Array as="points">
              <mxPoint x="797" y="320" />
              <mxPoint x="908" y="320" />
            </Array>
          </mxGeometry>
        </mxCell>
        <mxCell id="MP24_qXbwDW_fQga7Mwu-108" style="edgeStyle=orthogonalEdgeStyle;rounded=0;orthogonalLoop=1;jettySize=auto;html=1;exitX=0.13;exitY=0.77;exitDx=0;exitDy=0;exitPerimeter=0;entryX=0.96;entryY=0.7;entryDx=0;entryDy=0;entryPerimeter=0;labelBackgroundColor=none;strokeColor=#A8201A;fontColor=default;" edge="1" parent="MP24_qXbwDW_fQga7Mwu-64" source="MP24_qXbwDW_fQga7Mwu-106" target="MP24_qXbwDW_fQga7Mwu-102">
          <mxGeometry relative="1" as="geometry" />
        </mxCell>
        <mxCell id="MP24_qXbwDW_fQga7Mwu-118" style="edgeStyle=orthogonalEdgeStyle;rounded=0;orthogonalLoop=1;jettySize=auto;html=1;entryX=0.25;entryY=0.25;entryDx=0;entryDy=0;entryPerimeter=0;labelBackgroundColor=none;strokeColor=#A8201A;fontColor=default;" edge="1" parent="MP24_qXbwDW_fQga7Mwu-64" source="MP24_qXbwDW_fQga7Mwu-116" target="MP24_qXbwDW_fQga7Mwu-112">
          <mxGeometry relative="1" as="geometry">
            <Array as="points">
              <mxPoint x="480" y="500" />
              <mxPoint x="480" y="570" />
              <mxPoint x="678" y="570" />
            </Array>
          </mxGeometry>
        </mxCell>
        <mxCell id="MP24_qXbwDW_fQga7Mwu-123" value="" style="edgeStyle=orthogonalEdgeStyle;rounded=0;orthogonalLoop=1;jettySize=auto;html=1;labelBackgroundColor=none;strokeColor=#A8201A;fontColor=default;" edge="1" parent="MP24_qXbwDW_fQga7Mwu-64" source="MP24_qXbwDW_fQga7Mwu-112" target="MP24_qXbwDW_fQga7Mwu-122">
          <mxGeometry relative="1" as="geometry" />
        </mxCell>
        <mxCell id="MP24_qXbwDW_fQga7Mwu-98" value="&lt;h1 style=&quot;margin-top: 0px;&quot;&gt;General Flow&lt;/h1&gt;&lt;p&gt;&lt;/p&gt;&lt;ol&gt;&lt;li&gt;User enters the page and data is premade into predefined files on the server&lt;/li&gt;&lt;li&gt;The user then selects a date range.&lt;/li&gt;&lt;li&gt;&lt;span style=&quot;background-color: transparent; color: light-dark(rgb(0, 0, 0), rgb(255, 255, 255));&quot;&gt;All the options that were found and unique for GraphData are displayed.&lt;/span&gt;&lt;/li&gt;&lt;li&gt;&lt;span style=&quot;background-color: transparent; color: light-dark(rgb(0, 0, 0), rgb(255, 255, 255));&quot;&gt;The user then selects which datatype they want.&lt;/span&gt;&lt;/li&gt;&lt;li&gt;&lt;span style=&quot;background-color: transparent; color: light-dark(rgb(0, 0, 0), rgb(255, 255, 255));&quot;&gt;The Frontend then processes the data by checking the message and counts up occurances or parses out traditional X-Y data. In the case of a Multigraph type it will draw a graph for each dataset returned This tells it the following:&lt;/span&gt;&lt;/li&gt;&lt;ol&gt;&lt;li&gt;&lt;span style=&quot;background-color: transparent; color: light-dark(rgb(0, 0, 0), rgb(255, 255, 255));&quot;&gt;Graph Type&lt;/span&gt;&lt;/li&gt;&lt;li&gt;&lt;span style=&quot;background-color: transparent; color: light-dark(rgb(0, 0, 0), rgb(255, 255, 255));&quot;&gt;ValueName&lt;/span&gt;&lt;/li&gt;&lt;li&gt;&lt;span style=&quot;background-color: transparent; color: light-dark(rgb(0, 0, 0), rgb(255, 255, 255));&quot;&gt;Time&lt;/span&gt;&lt;/li&gt;&lt;li&gt;&lt;span style=&quot;background-color: transparent; color: light-dark(rgb(0, 0, 0), rgb(255, 255, 255));&quot;&gt;X/Y Values&lt;/span&gt;&lt;/li&gt;&lt;/ol&gt;&lt;li&gt;The Frontend destroys the old graph and renders the new one.&lt;/li&gt;&lt;/ol&gt;&lt;p&gt;&lt;/p&gt;" style="text;html=1;whiteSpace=wrap;overflow=hidden;rounded=0;labelBackgroundColor=none;fontColor=#143642;" vertex="1" parent="1">
          <mxGeometry x="800" y="810" width="740" height="270" as="geometry" />
        </mxCell>
        <mxCell id="MP24_qXbwDW_fQga7Mwu-128" value="Log Search Function" style="swimlane;horizontal=0;whiteSpace=wrap;html=1;labelBackgroundColor=none;fillColor=#FAE5C7;strokeColor=#0F8B8D;fontColor=#143642;" vertex="1" parent="1">
          <mxGeometry x="-950" y="2410" width="1740" height="790" as="geometry" />
        </mxCell>
        <mxCell id="MP24_qXbwDW_fQga7Mwu-129" value="Client Portion" style="swimlane;whiteSpace=wrap;html=1;labelBackgroundColor=none;fillColor=#FAE5C7;strokeColor=#0F8B8D;fontColor=#143642;" vertex="1" parent="MP24_qXbwDW_fQga7Mwu-128">
          <mxGeometry x="40" y="20" width="800" height="750" as="geometry" />
        </mxCell>
        <mxCell id="MP24_qXbwDW_fQga7Mwu-164" value="" style="edgeStyle=orthogonalEdgeStyle;rounded=0;orthogonalLoop=1;jettySize=auto;html=1;labelBackgroundColor=none;strokeColor=#A8201A;fontColor=default;" edge="1" parent="MP24_qXbwDW_fQga7Mwu-129" source="MP24_qXbwDW_fQga7Mwu-131" target="MP24_qXbwDW_fQga7Mwu-138">
          <mxGeometry relative="1" as="geometry" />
        </mxCell>
        <mxCell id="MP24_qXbwDW_fQga7Mwu-131" value="Client Sends Request" style="ellipse;shape=cloud;whiteSpace=wrap;html=1;labelBackgroundColor=none;fillColor=#FAE5C7;strokeColor=#0F8B8D;fontColor=#143642;" vertex="1" parent="MP24_qXbwDW_fQga7Mwu-129">
          <mxGeometry x="580" y="110" width="190" height="125" as="geometry" />
        </mxCell>
        <mxCell id="MP24_qXbwDW_fQga7Mwu-132" value="" style="edgeStyle=orthogonalEdgeStyle;rounded=0;orthogonalLoop=1;jettySize=auto;html=1;labelBackgroundColor=none;strokeColor=#A8201A;fontColor=default;" edge="1" parent="MP24_qXbwDW_fQga7Mwu-129" source="MP24_qXbwDW_fQga7Mwu-133" target="MP24_qXbwDW_fQga7Mwu-135">
          <mxGeometry relative="1" as="geometry" />
        </mxCell>
        <mxCell id="MP24_qXbwDW_fQga7Mwu-166" value="" style="edgeStyle=orthogonalEdgeStyle;rounded=0;orthogonalLoop=1;jettySize=auto;html=1;labelBackgroundColor=none;strokeColor=#A8201A;fontColor=default;" edge="1" parent="MP24_qXbwDW_fQga7Mwu-129" source="MP24_qXbwDW_fQga7Mwu-133" target="MP24_qXbwDW_fQga7Mwu-165">
          <mxGeometry relative="1" as="geometry">
            <Array as="points">
              <mxPoint x="70" y="430" />
            </Array>
          </mxGeometry>
        </mxCell>
        <mxCell id="MP24_qXbwDW_fQga7Mwu-133" value="File Browser Page Entered" style="ellipse;whiteSpace=wrap;html=1;labelBackgroundColor=none;fillColor=#FAE5C7;strokeColor=#0F8B8D;fontColor=#143642;" vertex="1" parent="MP24_qXbwDW_fQga7Mwu-129">
          <mxGeometry x="10" y="140" width="120" height="80" as="geometry" />
        </mxCell>
        <mxCell id="MP24_qXbwDW_fQga7Mwu-134" value="" style="edgeStyle=orthogonalEdgeStyle;rounded=0;orthogonalLoop=1;jettySize=auto;html=1;labelBackgroundColor=none;strokeColor=#A8201A;fontColor=default;" edge="1" parent="MP24_qXbwDW_fQga7Mwu-129" source="MP24_qXbwDW_fQga7Mwu-135" target="MP24_qXbwDW_fQga7Mwu-136">
          <mxGeometry relative="1" as="geometry" />
        </mxCell>
        <mxCell id="MP24_qXbwDW_fQga7Mwu-135" value="User Enters The Page" style="whiteSpace=wrap;html=1;labelBackgroundColor=none;fillColor=#FAE5C7;strokeColor=#0F8B8D;fontColor=#143642;" vertex="1" parent="MP24_qXbwDW_fQga7Mwu-129">
          <mxGeometry x="210" y="150" width="120" height="60" as="geometry" />
        </mxCell>
        <mxCell id="MP24_qXbwDW_fQga7Mwu-136" value="HTTPGet Is Created And Sent" style="whiteSpace=wrap;html=1;labelBackgroundColor=none;fillColor=#FAE5C7;strokeColor=#0F8B8D;fontColor=#143642;" vertex="1" parent="MP24_qXbwDW_fQga7Mwu-129">
          <mxGeometry x="410" y="150" width="120" height="60" as="geometry" />
        </mxCell>
        <mxCell id="MP24_qXbwDW_fQga7Mwu-137" style="edgeStyle=orthogonalEdgeStyle;rounded=0;orthogonalLoop=1;jettySize=auto;html=1;entryX=0.16;entryY=0.55;entryDx=0;entryDy=0;entryPerimeter=0;labelBackgroundColor=none;strokeColor=#A8201A;fontColor=default;" edge="1" parent="MP24_qXbwDW_fQga7Mwu-129" source="MP24_qXbwDW_fQga7Mwu-136" target="MP24_qXbwDW_fQga7Mwu-131">
          <mxGeometry relative="1" as="geometry" />
        </mxCell>
        <mxCell id="MP24_qXbwDW_fQga7Mwu-138" value="Append graphics based on file/folder and render" style="whiteSpace=wrap;html=1;labelBackgroundColor=none;fillColor=#FAE5C7;strokeColor=#0F8B8D;fontColor=#143642;" vertex="1" parent="MP24_qXbwDW_fQga7Mwu-129">
          <mxGeometry x="615" y="310" width="120" height="60" as="geometry" />
        </mxCell>
        <mxCell id="MP24_qXbwDW_fQga7Mwu-165" value="User navigates with&amp;nbsp;&lt;div&gt;double click/ back/ forward/ home/ navigation bar&lt;/div&gt;" style="whiteSpace=wrap;html=1;labelBackgroundColor=none;fillColor=#FAE5C7;strokeColor=#0F8B8D;fontColor=#143642;" vertex="1" parent="MP24_qXbwDW_fQga7Mwu-129">
          <mxGeometry x="300" y="400" width="150" height="60" as="geometry" />
        </mxCell>
        <mxCell id="MP24_qXbwDW_fQga7Mwu-185" value="" style="edgeStyle=orthogonalEdgeStyle;rounded=0;orthogonalLoop=1;jettySize=auto;html=1;labelBackgroundColor=none;strokeColor=#A8201A;fontColor=default;" edge="1" parent="MP24_qXbwDW_fQga7Mwu-129" source="MP24_qXbwDW_fQga7Mwu-167" target="MP24_qXbwDW_fQga7Mwu-184">
          <mxGeometry relative="1" as="geometry" />
        </mxCell>
        <mxCell id="MP24_qXbwDW_fQga7Mwu-186" value="Folder" style="edgeStyle=orthogonalEdgeStyle;rounded=0;orthogonalLoop=1;jettySize=auto;html=1;labelBackgroundColor=none;strokeColor=#A8201A;fontColor=default;" edge="1" parent="MP24_qXbwDW_fQga7Mwu-129" source="MP24_qXbwDW_fQga7Mwu-167" target="MP24_qXbwDW_fQga7Mwu-184">
          <mxGeometry x="0.6863" relative="1" as="geometry">
            <mxPoint as="offset" />
          </mxGeometry>
        </mxCell>
        <mxCell id="MP24_qXbwDW_fQga7Mwu-188" value="File" style="edgeStyle=orthogonalEdgeStyle;rounded=0;orthogonalLoop=1;jettySize=auto;html=1;entryX=1;entryY=0.5;entryDx=0;entryDy=0;labelBackgroundColor=none;strokeColor=#A8201A;fontColor=default;" edge="1" parent="MP24_qXbwDW_fQga7Mwu-129" source="MP24_qXbwDW_fQga7Mwu-167" target="MP24_qXbwDW_fQga7Mwu-187">
          <mxGeometry relative="1" as="geometry">
            <Array as="points">
              <mxPoint x="675" y="560" />
              <mxPoint x="500" y="560" />
            </Array>
          </mxGeometry>
        </mxCell>
        <mxCell id="MP24_qXbwDW_fQga7Mwu-167" value="Client Sends Request" style="ellipse;shape=cloud;whiteSpace=wrap;html=1;labelBackgroundColor=none;fillColor=#FAE5C7;strokeColor=#0F8B8D;fontColor=#143642;" vertex="1" parent="MP24_qXbwDW_fQga7Mwu-129">
          <mxGeometry x="580" y="367.5" width="190" height="125" as="geometry" />
        </mxCell>
        <mxCell id="MP24_qXbwDW_fQga7Mwu-168" style="edgeStyle=orthogonalEdgeStyle;rounded=0;orthogonalLoop=1;jettySize=auto;html=1;entryX=0.16;entryY=0.55;entryDx=0;entryDy=0;entryPerimeter=0;exitX=1;exitY=0.5;exitDx=0;exitDy=0;labelBackgroundColor=none;strokeColor=#A8201A;fontColor=default;" edge="1" parent="MP24_qXbwDW_fQga7Mwu-129" target="MP24_qXbwDW_fQga7Mwu-167" source="MP24_qXbwDW_fQga7Mwu-165">
          <mxGeometry relative="1" as="geometry">
            <mxPoint x="530" y="437.5" as="sourcePoint" />
          </mxGeometry>
        </mxCell>
        <mxCell id="MP24_qXbwDW_fQga7Mwu-184" value="Update the File Explorer GUI" style="whiteSpace=wrap;html=1;labelBackgroundColor=none;fillColor=#FAE5C7;strokeColor=#0F8B8D;fontColor=#143642;" vertex="1" parent="MP24_qXbwDW_fQga7Mwu-129">
          <mxGeometry x="615" y="620" width="120" height="60" as="geometry" />
        </mxCell>
        <mxCell id="MP24_qXbwDW_fQga7Mwu-187" value="Decode the Blob and serve it to the frontend user as a download" style="whiteSpace=wrap;html=1;labelBackgroundColor=none;fillColor=#FAE5C7;strokeColor=#0F8B8D;fontColor=#143642;" vertex="1" parent="MP24_qXbwDW_fQga7Mwu-129">
          <mxGeometry x="380" y="530" width="120" height="60" as="geometry" />
        </mxCell>
        <mxCell id="MP24_qXbwDW_fQga7Mwu-139" value="HTTPGet" style="edgeStyle=orthogonalEdgeStyle;rounded=0;orthogonalLoop=1;jettySize=auto;html=1;exitX=0.88;exitY=0.25;exitDx=0;exitDy=0;exitPerimeter=0;entryX=0;entryY=0.25;entryDx=0;entryDy=0;labelBackgroundColor=none;strokeColor=#A8201A;fontColor=default;" edge="1" parent="MP24_qXbwDW_fQga7Mwu-128" source="MP24_qXbwDW_fQga7Mwu-140" target="MP24_qXbwDW_fQga7Mwu-142">
          <mxGeometry x="-0.2981" relative="1" as="geometry">
            <mxPoint as="offset" />
          </mxGeometry>
        </mxCell>
        <mxCell id="MP24_qXbwDW_fQga7Mwu-140" value="Client Request Recieved" style="ellipse;shape=cloud;whiteSpace=wrap;html=1;labelBackgroundColor=none;fillColor=#FAE5C7;strokeColor=#0F8B8D;fontColor=#143642;" vertex="1" parent="MP24_qXbwDW_fQga7Mwu-128">
          <mxGeometry x="840" y="122.5" width="190" height="125" as="geometry" />
        </mxCell>
        <mxCell id="MP24_qXbwDW_fQga7Mwu-144" value="" style="endArrow=none;dashed=1;html=1;dashPattern=1 3;strokeWidth=2;rounded=0;labelBackgroundColor=none;strokeColor=#A8201A;fontColor=default;" edge="1" parent="MP24_qXbwDW_fQga7Mwu-128" target="MP24_qXbwDW_fQga7Mwu-145">
          <mxGeometry width="50" height="50" relative="1" as="geometry">
            <mxPoint x="1065" y="150" as="sourcePoint" />
            <mxPoint x="1070" y="150" as="targetPoint" />
          </mxGeometry>
        </mxCell>
        <mxCell id="MP24_qXbwDW_fQga7Mwu-145" value="&lt;div&gt;Controller - File Explorer&lt;/div&gt;string FolderLocation" style="text;html=1;align=center;verticalAlign=middle;whiteSpace=wrap;rounded=0;labelBackgroundColor=none;fontColor=#143642;" vertex="1" parent="MP24_qXbwDW_fQga7Mwu-128">
          <mxGeometry x="950" y="50" width="230" height="50" as="geometry" />
        </mxCell>
        <mxCell id="MP24_qXbwDW_fQga7Mwu-158" value="Server Portion" style="swimlane;whiteSpace=wrap;html=1;labelBackgroundColor=none;fillColor=#FAE5C7;strokeColor=#0F8B8D;fontColor=#143642;" vertex="1" parent="MP24_qXbwDW_fQga7Mwu-128">
          <mxGeometry x="840" y="20" width="880" height="750" as="geometry" />
        </mxCell>
        <mxCell id="MP24_qXbwDW_fQga7Mwu-142" value="Grab C:/ directory information and add it to an array" style="whiteSpace=wrap;html=1;labelBackgroundColor=none;fillColor=#FAE5C7;strokeColor=#0F8B8D;fontColor=#143642;" vertex="1" parent="MP24_qXbwDW_fQga7Mwu-158">
          <mxGeometry x="330" y="120" width="120" height="60" as="geometry" />
        </mxCell>
        <mxCell id="MP24_qXbwDW_fQga7Mwu-173" value="HTTPGet" style="edgeStyle=orthogonalEdgeStyle;rounded=0;orthogonalLoop=1;jettySize=auto;html=1;exitX=0.875;exitY=0.5;exitDx=0;exitDy=0;exitPerimeter=0;entryX=0;entryY=0.5;entryDx=0;entryDy=0;labelBackgroundColor=none;strokeColor=#A8201A;fontColor=default;" edge="1" parent="MP24_qXbwDW_fQga7Mwu-158" source="MP24_qXbwDW_fQga7Mwu-169" target="MP24_qXbwDW_fQga7Mwu-174">
          <mxGeometry relative="1" as="geometry">
            <mxPoint x="305" y="422.5" as="targetPoint" />
          </mxGeometry>
        </mxCell>
        <mxCell id="MP24_qXbwDW_fQga7Mwu-169" value="Client Request Recieved" style="ellipse;shape=cloud;whiteSpace=wrap;html=1;labelBackgroundColor=none;fillColor=#FAE5C7;strokeColor=#0F8B8D;fontColor=#143642;" vertex="1" parent="MP24_qXbwDW_fQga7Mwu-158">
          <mxGeometry y="360" width="190" height="125" as="geometry" />
        </mxCell>
        <mxCell id="MP24_qXbwDW_fQga7Mwu-170" style="edgeStyle=orthogonalEdgeStyle;rounded=0;orthogonalLoop=1;jettySize=auto;html=1;exitX=0.098;exitY=0.688;exitDx=0;exitDy=0;exitPerimeter=0;entryX=0.96;entryY=0.7;entryDx=0;entryDy=0;entryPerimeter=0;labelBackgroundColor=none;strokeColor=#A8201A;fontColor=default;" edge="1" parent="MP24_qXbwDW_fQga7Mwu-158" source="MP24_qXbwDW_fQga7Mwu-169">
          <mxGeometry relative="1" as="geometry">
            <Array as="points">
              <mxPoint x="19" y="447.5" />
              <mxPoint x="-20" y="447.5" />
              <mxPoint x="-20" y="455.5" />
            </Array>
            <mxPoint x="-38" y="455.5" as="targetPoint" />
          </mxGeometry>
        </mxCell>
        <mxCell id="MP24_qXbwDW_fQga7Mwu-171" style="edgeStyle=orthogonalEdgeStyle;rounded=0;orthogonalLoop=1;jettySize=auto;html=1;exitX=0.88;exitY=0.25;exitDx=0;exitDy=0;exitPerimeter=0;entryX=0.07;entryY=0.4;entryDx=0;entryDy=0;entryPerimeter=0;labelBackgroundColor=none;strokeColor=#A8201A;fontColor=default;" edge="1" parent="MP24_qXbwDW_fQga7Mwu-158" target="MP24_qXbwDW_fQga7Mwu-169">
          <mxGeometry relative="1" as="geometry">
            <mxPoint x="-53" y="398.5" as="sourcePoint" />
          </mxGeometry>
        </mxCell>
        <mxCell id="MP24_qXbwDW_fQga7Mwu-177" value="Folder" style="edgeStyle=orthogonalEdgeStyle;rounded=0;orthogonalLoop=1;jettySize=auto;html=1;labelBackgroundColor=none;strokeColor=#A8201A;fontColor=default;" edge="1" parent="MP24_qXbwDW_fQga7Mwu-158" source="MP24_qXbwDW_fQga7Mwu-174" target="MP24_qXbwDW_fQga7Mwu-176">
          <mxGeometry relative="1" as="geometry" />
        </mxCell>
        <mxCell id="MP24_qXbwDW_fQga7Mwu-179" value="File" style="edgeStyle=orthogonalEdgeStyle;rounded=0;orthogonalLoop=1;jettySize=auto;html=1;labelBackgroundColor=none;strokeColor=#A8201A;fontColor=default;" edge="1" parent="MP24_qXbwDW_fQga7Mwu-158" source="MP24_qXbwDW_fQga7Mwu-174" target="MP24_qXbwDW_fQga7Mwu-178">
          <mxGeometry relative="1" as="geometry" />
        </mxCell>
        <mxCell id="MP24_qXbwDW_fQga7Mwu-174" value="Request Type" style="triangle;whiteSpace=wrap;html=1;align=left;labelBackgroundColor=none;fillColor=#FAE5C7;strokeColor=#0F8B8D;fontColor=#143642;" vertex="1" parent="MP24_qXbwDW_fQga7Mwu-158">
          <mxGeometry x="320" y="382.5" width="150" height="80" as="geometry" />
        </mxCell>
        <mxCell id="MP24_qXbwDW_fQga7Mwu-176" value="Create a directory array and return it" style="whiteSpace=wrap;html=1;align=left;labelBackgroundColor=none;fillColor=#FAE5C7;strokeColor=#0F8B8D;fontColor=#143642;" vertex="1" parent="MP24_qXbwDW_fQga7Mwu-158">
          <mxGeometry x="565" y="392.5" width="120" height="60" as="geometry" />
        </mxCell>
        <mxCell id="MP24_qXbwDW_fQga7Mwu-178" value="Turn the file into a blob and feed a blob back to the frontend" style="whiteSpace=wrap;html=1;align=left;labelBackgroundColor=none;fillColor=#FAE5C7;strokeColor=#0F8B8D;fontColor=#143642;" vertex="1" parent="MP24_qXbwDW_fQga7Mwu-158">
          <mxGeometry x="335" y="552.5" width="120" height="60" as="geometry" />
        </mxCell>
        <mxCell id="MP24_qXbwDW_fQga7Mwu-180" value="" style="endArrow=none;dashed=1;html=1;dashPattern=1 3;strokeWidth=2;rounded=0;labelBackgroundColor=none;strokeColor=#A8201A;fontColor=default;" edge="1" parent="MP24_qXbwDW_fQga7Mwu-158" target="MP24_qXbwDW_fQga7Mwu-181">
          <mxGeometry width="50" height="50" relative="1" as="geometry">
            <mxPoint x="245" y="420" as="sourcePoint" />
            <mxPoint x="250" y="420" as="targetPoint" />
          </mxGeometry>
        </mxCell>
        <mxCell id="MP24_qXbwDW_fQga7Mwu-181" value="&lt;div&gt;Controller - File Explorer&lt;/div&gt;string folderLocation&lt;div&gt;Or&amp;nbsp;&lt;/div&gt;&lt;div&gt;Controller - Download&lt;/div&gt;&lt;div&gt;string filePath&lt;/div&gt;" style="text;html=1;align=center;verticalAlign=middle;whiteSpace=wrap;rounded=0;labelBackgroundColor=none;fontColor=#143642;" vertex="1" parent="MP24_qXbwDW_fQga7Mwu-158">
          <mxGeometry x="130" y="295" width="230" height="75" as="geometry" />
        </mxCell>
        <mxCell id="MP24_qXbwDW_fQga7Mwu-182" style="edgeStyle=orthogonalEdgeStyle;rounded=0;orthogonalLoop=1;jettySize=auto;html=1;entryX=0.55;entryY=0.95;entryDx=0;entryDy=0;entryPerimeter=0;labelBackgroundColor=none;strokeColor=#A8201A;fontColor=default;" edge="1" parent="MP24_qXbwDW_fQga7Mwu-158" source="MP24_qXbwDW_fQga7Mwu-176" target="MP24_qXbwDW_fQga7Mwu-169">
          <mxGeometry relative="1" as="geometry">
            <Array as="points">
              <mxPoint x="625" y="680" />
              <mxPoint x="105" y="680" />
            </Array>
          </mxGeometry>
        </mxCell>
        <mxCell id="MP24_qXbwDW_fQga7Mwu-183" style="edgeStyle=orthogonalEdgeStyle;rounded=0;orthogonalLoop=1;jettySize=auto;html=1;entryX=0.55;entryY=0.95;entryDx=0;entryDy=0;entryPerimeter=0;labelBackgroundColor=none;strokeColor=#A8201A;fontColor=default;" edge="1" parent="MP24_qXbwDW_fQga7Mwu-158" source="MP24_qXbwDW_fQga7Mwu-178" target="MP24_qXbwDW_fQga7Mwu-169">
          <mxGeometry relative="1" as="geometry">
            <Array as="points">
              <mxPoint x="395" y="680" />
              <mxPoint x="105" y="680" />
            </Array>
          </mxGeometry>
        </mxCell>
        <mxCell id="MP24_qXbwDW_fQga7Mwu-160" style="edgeStyle=orthogonalEdgeStyle;rounded=0;orthogonalLoop=1;jettySize=auto;html=1;exitX=0.098;exitY=0.688;exitDx=0;exitDy=0;exitPerimeter=0;entryX=0.96;entryY=0.7;entryDx=0;entryDy=0;entryPerimeter=0;labelBackgroundColor=none;strokeColor=#A8201A;fontColor=default;" edge="1" parent="MP24_qXbwDW_fQga7Mwu-128" source="MP24_qXbwDW_fQga7Mwu-140" target="MP24_qXbwDW_fQga7Mwu-131">
          <mxGeometry relative="1" as="geometry">
            <Array as="points">
              <mxPoint x="859" y="210" />
              <mxPoint x="820" y="210" />
              <mxPoint x="820" y="218" />
            </Array>
          </mxGeometry>
        </mxCell>
        <mxCell id="MP24_qXbwDW_fQga7Mwu-161" style="edgeStyle=orthogonalEdgeStyle;rounded=0;orthogonalLoop=1;jettySize=auto;html=1;exitX=0.88;exitY=0.25;exitDx=0;exitDy=0;exitPerimeter=0;entryX=0.07;entryY=0.4;entryDx=0;entryDy=0;entryPerimeter=0;labelBackgroundColor=none;strokeColor=#A8201A;fontColor=default;" edge="1" parent="MP24_qXbwDW_fQga7Mwu-128" source="MP24_qXbwDW_fQga7Mwu-131" target="MP24_qXbwDW_fQga7Mwu-140">
          <mxGeometry relative="1" as="geometry" />
        </mxCell>
        <mxCell id="MP24_qXbwDW_fQga7Mwu-163" value="Return" style="edgeStyle=orthogonalEdgeStyle;rounded=0;orthogonalLoop=1;jettySize=auto;html=1;entryX=0.96;entryY=0.7;entryDx=0;entryDy=0;entryPerimeter=0;labelBackgroundColor=none;strokeColor=#A8201A;fontColor=default;" edge="1" parent="MP24_qXbwDW_fQga7Mwu-128" source="MP24_qXbwDW_fQga7Mwu-142" target="MP24_qXbwDW_fQga7Mwu-140">
          <mxGeometry x="0.4708" relative="1" as="geometry">
            <Array as="points">
              <mxPoint x="1230" y="210" />
            </Array>
            <mxPoint as="offset" />
          </mxGeometry>
        </mxCell>
        <mxCell id="MP24_qXbwDW_fQga7Mwu-162" value="&lt;h1 style=&quot;margin-top: 0px;&quot;&gt;General Flow&lt;/h1&gt;&lt;p&gt;&lt;/p&gt;&lt;ol&gt;&lt;li&gt;User enters the page,then grab C:/ and display all its options&lt;/li&gt;&lt;li&gt;User browses around the PC till they see a file they want/need&lt;/li&gt;&lt;li&gt;&lt;span style=&quot;background-color: transparent; color: light-dark(rgb(0, 0, 0), rgb(255, 255, 255));&quot;&gt;User double clicks the file and gets a download as a result(For engineering evaulation generally/logs)&lt;/span&gt;&lt;/li&gt;&lt;/ol&gt;&lt;p&gt;&lt;/p&gt;" style="text;html=1;whiteSpace=wrap;overflow=hidden;rounded=0;labelBackgroundColor=none;fontColor=#143642;" vertex="1" parent="1">
          <mxGeometry x="800" y="2410" width="740" height="120" as="geometry" />
        </mxCell>
        <mxCell id="MP24_qXbwDW_fQga7Mwu-189" value="Station Information" style="swimlane;horizontal=0;whiteSpace=wrap;html=1;labelBackgroundColor=none;fillColor=#FAE5C7;strokeColor=#0F8B8D;fontColor=#143642;" vertex="1" parent="1">
          <mxGeometry x="-950" y="3210" width="1740" height="790" as="geometry" />
        </mxCell>
        <mxCell id="MP24_qXbwDW_fQga7Mwu-190" value="Client Portion" style="swimlane;whiteSpace=wrap;html=1;labelBackgroundColor=none;fillColor=#FAE5C7;strokeColor=#0F8B8D;fontColor=#143642;" vertex="1" parent="MP24_qXbwDW_fQga7Mwu-189">
          <mxGeometry x="40" y="20" width="800" height="750" as="geometry" />
        </mxCell>
        <mxCell id="MP24_qXbwDW_fQga7Mwu-249" value="" style="edgeStyle=orthogonalEdgeStyle;rounded=0;orthogonalLoop=1;jettySize=auto;html=1;labelBackgroundColor=none;strokeColor=#A8201A;fontColor=default;" edge="1" parent="MP24_qXbwDW_fQga7Mwu-190" source="MP24_qXbwDW_fQga7Mwu-192" target="MP24_qXbwDW_fQga7Mwu-248">
          <mxGeometry relative="1" as="geometry" />
        </mxCell>
        <mxCell id="MP24_qXbwDW_fQga7Mwu-192" value="Client Sends Request" style="ellipse;shape=cloud;whiteSpace=wrap;html=1;labelBackgroundColor=none;fillColor=#FAE5C7;strokeColor=#0F8B8D;fontColor=#143642;" vertex="1" parent="MP24_qXbwDW_fQga7Mwu-190">
          <mxGeometry x="580" y="110" width="190" height="125" as="geometry" />
        </mxCell>
        <mxCell id="MP24_qXbwDW_fQga7Mwu-193" value="" style="edgeStyle=orthogonalEdgeStyle;rounded=0;orthogonalLoop=1;jettySize=auto;html=1;labelBackgroundColor=none;strokeColor=#A8201A;fontColor=default;" edge="1" parent="MP24_qXbwDW_fQga7Mwu-190" source="MP24_qXbwDW_fQga7Mwu-195" target="MP24_qXbwDW_fQga7Mwu-197">
          <mxGeometry relative="1" as="geometry" />
        </mxCell>
        <mxCell id="MP24_qXbwDW_fQga7Mwu-195" value="Page is Entered" style="ellipse;whiteSpace=wrap;html=1;labelBackgroundColor=none;fillColor=#FAE5C7;strokeColor=#0F8B8D;fontColor=#143642;" vertex="1" parent="MP24_qXbwDW_fQga7Mwu-190">
          <mxGeometry x="10" y="140" width="120" height="80" as="geometry" />
        </mxCell>
        <mxCell id="MP24_qXbwDW_fQga7Mwu-196" value="" style="edgeStyle=orthogonalEdgeStyle;rounded=0;orthogonalLoop=1;jettySize=auto;html=1;labelBackgroundColor=none;strokeColor=#A8201A;fontColor=default;" edge="1" parent="MP24_qXbwDW_fQga7Mwu-190" source="MP24_qXbwDW_fQga7Mwu-197" target="MP24_qXbwDW_fQga7Mwu-198">
          <mxGeometry relative="1" as="geometry" />
        </mxCell>
        <mxCell id="MP24_qXbwDW_fQga7Mwu-197" value="User Enters The Page" style="whiteSpace=wrap;html=1;labelBackgroundColor=none;fillColor=#FAE5C7;strokeColor=#0F8B8D;fontColor=#143642;" vertex="1" parent="MP24_qXbwDW_fQga7Mwu-190">
          <mxGeometry x="210" y="150" width="120" height="60" as="geometry" />
        </mxCell>
        <mxCell id="MP24_qXbwDW_fQga7Mwu-198" value="HTTPGet Is Created And Sent" style="whiteSpace=wrap;html=1;labelBackgroundColor=none;fillColor=#FAE5C7;strokeColor=#0F8B8D;fontColor=#143642;" vertex="1" parent="MP24_qXbwDW_fQga7Mwu-190">
          <mxGeometry x="410" y="150" width="120" height="60" as="geometry" />
        </mxCell>
        <mxCell id="MP24_qXbwDW_fQga7Mwu-199" style="edgeStyle=orthogonalEdgeStyle;rounded=0;orthogonalLoop=1;jettySize=auto;html=1;entryX=0.16;entryY=0.55;entryDx=0;entryDy=0;entryPerimeter=0;labelBackgroundColor=none;strokeColor=#A8201A;fontColor=default;" edge="1" parent="MP24_qXbwDW_fQga7Mwu-190" source="MP24_qXbwDW_fQga7Mwu-198" target="MP24_qXbwDW_fQga7Mwu-192">
          <mxGeometry relative="1" as="geometry" />
        </mxCell>
        <mxCell id="MP24_qXbwDW_fQga7Mwu-248" value="Convert the Base64 string back into an image and render it" style="whiteSpace=wrap;html=1;labelBackgroundColor=none;fillColor=#FAE5C7;strokeColor=#0F8B8D;fontColor=#143642;" vertex="1" parent="MP24_qXbwDW_fQga7Mwu-190">
          <mxGeometry x="615" y="270" width="120" height="60" as="geometry" />
        </mxCell>
        <mxCell id="MP24_qXbwDW_fQga7Mwu-250" value="Populate our text below our image" style="whiteSpace=wrap;html=1;labelBackgroundColor=none;fillColor=#FAE5C7;strokeColor=#0F8B8D;fontColor=#143642;" vertex="1" parent="MP24_qXbwDW_fQga7Mwu-190">
          <mxGeometry x="605" y="625" width="120" height="60" as="geometry" />
        </mxCell>
        <mxCell id="MP24_qXbwDW_fQga7Mwu-209" value="HTTPGet" style="edgeStyle=orthogonalEdgeStyle;rounded=0;orthogonalLoop=1;jettySize=auto;html=1;exitX=0.88;exitY=0.25;exitDx=0;exitDy=0;exitPerimeter=0;entryX=0;entryY=0.25;entryDx=0;entryDy=0;labelBackgroundColor=none;strokeColor=#A8201A;fontColor=default;" edge="1" parent="MP24_qXbwDW_fQga7Mwu-189" source="MP24_qXbwDW_fQga7Mwu-210" target="MP24_qXbwDW_fQga7Mwu-214">
          <mxGeometry x="-0.2981" relative="1" as="geometry">
            <mxPoint as="offset" />
          </mxGeometry>
        </mxCell>
        <mxCell id="MP24_qXbwDW_fQga7Mwu-210" value="Client Request Recieved" style="ellipse;shape=cloud;whiteSpace=wrap;html=1;labelBackgroundColor=none;fillColor=#FAE5C7;strokeColor=#0F8B8D;fontColor=#143642;" vertex="1" parent="MP24_qXbwDW_fQga7Mwu-189">
          <mxGeometry x="840" y="122.5" width="190" height="125" as="geometry" />
        </mxCell>
        <mxCell id="MP24_qXbwDW_fQga7Mwu-211" value="" style="endArrow=none;dashed=1;html=1;dashPattern=1 3;strokeWidth=2;rounded=0;labelBackgroundColor=none;strokeColor=#A8201A;fontColor=default;" edge="1" parent="MP24_qXbwDW_fQga7Mwu-189" target="MP24_qXbwDW_fQga7Mwu-212">
          <mxGeometry width="50" height="50" relative="1" as="geometry">
            <mxPoint x="1065" y="150" as="sourcePoint" />
            <mxPoint x="1070" y="150" as="targetPoint" />
          </mxGeometry>
        </mxCell>
        <mxCell id="MP24_qXbwDW_fQga7Mwu-212" value="&lt;div&gt;Controller - Desktop Image&lt;/div&gt;" style="text;html=1;align=center;verticalAlign=middle;whiteSpace=wrap;rounded=0;labelBackgroundColor=none;fontColor=#143642;" vertex="1" parent="MP24_qXbwDW_fQga7Mwu-189">
          <mxGeometry x="950" y="50" width="230" height="50" as="geometry" />
        </mxCell>
        <mxCell id="MP24_qXbwDW_fQga7Mwu-213" value="Server Portion" style="swimlane;whiteSpace=wrap;html=1;labelBackgroundColor=none;fillColor=#FAE5C7;strokeColor=#0F8B8D;fontColor=#143642;" vertex="1" parent="MP24_qXbwDW_fQga7Mwu-189">
          <mxGeometry x="840" y="20" width="880" height="750" as="geometry" />
        </mxCell>
        <mxCell id="MP24_qXbwDW_fQga7Mwu-245" value="" style="edgeStyle=orthogonalEdgeStyle;rounded=0;orthogonalLoop=1;jettySize=auto;html=1;labelBackgroundColor=none;strokeColor=#A8201A;fontColor=default;" edge="1" parent="MP24_qXbwDW_fQga7Mwu-213" source="MP24_qXbwDW_fQga7Mwu-214" target="MP24_qXbwDW_fQga7Mwu-244">
          <mxGeometry relative="1" as="geometry" />
        </mxCell>
        <mxCell id="MP24_qXbwDW_fQga7Mwu-214" value="Grabs an image of the PC" style="whiteSpace=wrap;html=1;labelBackgroundColor=none;fillColor=#FAE5C7;strokeColor=#0F8B8D;fontColor=#143642;" vertex="1" parent="MP24_qXbwDW_fQga7Mwu-213">
          <mxGeometry x="330" y="120" width="120" height="60" as="geometry" />
        </mxCell>
        <mxCell id="MP24_qXbwDW_fQga7Mwu-240" value="HTTPGet" style="edgeStyle=orthogonalEdgeStyle;rounded=0;orthogonalLoop=1;jettySize=auto;html=1;exitX=0.88;exitY=0.25;exitDx=0;exitDy=0;exitPerimeter=0;labelBackgroundColor=none;strokeColor=#A8201A;fontColor=default;" edge="1" parent="MP24_qXbwDW_fQga7Mwu-213" source="MP24_qXbwDW_fQga7Mwu-233">
          <mxGeometry relative="1" as="geometry">
            <mxPoint x="340" y="411.66666666666697" as="targetPoint" />
          </mxGeometry>
        </mxCell>
        <mxCell id="MP24_qXbwDW_fQga7Mwu-234" style="edgeStyle=orthogonalEdgeStyle;rounded=0;orthogonalLoop=1;jettySize=auto;html=1;exitX=0.098;exitY=0.688;exitDx=0;exitDy=0;exitPerimeter=0;entryX=0.96;entryY=0.7;entryDx=0;entryDy=0;entryPerimeter=0;labelBackgroundColor=none;strokeColor=#A8201A;fontColor=default;" edge="1" parent="MP24_qXbwDW_fQga7Mwu-213" source="MP24_qXbwDW_fQga7Mwu-233" target="MP24_qXbwDW_fQga7Mwu-232">
          <mxGeometry relative="1" as="geometry">
            <Array as="points">
              <mxPoint x="9" y="467.5" />
              <mxPoint x="-30" y="467.5" />
              <mxPoint x="-30" y="475.5" />
            </Array>
          </mxGeometry>
        </mxCell>
        <mxCell id="MP24_qXbwDW_fQga7Mwu-235" style="edgeStyle=orthogonalEdgeStyle;rounded=0;orthogonalLoop=1;jettySize=auto;html=1;exitX=0.88;exitY=0.25;exitDx=0;exitDy=0;exitPerimeter=0;entryX=0.07;entryY=0.4;entryDx=0;entryDy=0;entryPerimeter=0;labelBackgroundColor=none;strokeColor=#A8201A;fontColor=default;" edge="1" parent="MP24_qXbwDW_fQga7Mwu-213" source="MP24_qXbwDW_fQga7Mwu-232" target="MP24_qXbwDW_fQga7Mwu-233">
          <mxGeometry relative="1" as="geometry" />
        </mxCell>
        <mxCell id="MP24_qXbwDW_fQga7Mwu-232" value="Client Sends Request" style="ellipse;shape=cloud;whiteSpace=wrap;html=1;labelBackgroundColor=none;fillColor=#FAE5C7;strokeColor=#0F8B8D;fontColor=#143642;" vertex="1" parent="MP24_qXbwDW_fQga7Mwu-213">
          <mxGeometry x="-230" y="387.5" width="190" height="125" as="geometry" />
        </mxCell>
        <mxCell id="MP24_qXbwDW_fQga7Mwu-241" value="Reads a file another program currently creates and parse out our data into an array" style="whiteSpace=wrap;html=1;labelBackgroundColor=none;fillColor=#FAE5C7;strokeColor=#0F8B8D;fontColor=#143642;" vertex="1" parent="MP24_qXbwDW_fQga7Mwu-213">
          <mxGeometry x="340" y="387.5" width="120" height="60" as="geometry" />
        </mxCell>
        <mxCell id="MP24_qXbwDW_fQga7Mwu-233" value="Client Request Recieved" style="ellipse;shape=cloud;whiteSpace=wrap;html=1;labelBackgroundColor=none;fillColor=#FAE5C7;strokeColor=#0F8B8D;fontColor=#143642;" vertex="1" parent="MP24_qXbwDW_fQga7Mwu-213">
          <mxGeometry x="-10" y="380" width="190" height="125" as="geometry" />
        </mxCell>
        <mxCell id="MP24_qXbwDW_fQga7Mwu-242" value="" style="endArrow=none;dashed=1;html=1;dashPattern=1 3;strokeWidth=2;rounded=0;labelBackgroundColor=none;strokeColor=#A8201A;fontColor=default;" edge="1" parent="MP24_qXbwDW_fQga7Mwu-213" target="MP24_qXbwDW_fQga7Mwu-243">
          <mxGeometry width="50" height="50" relative="1" as="geometry">
            <mxPoint x="245" y="410" as="sourcePoint" />
            <mxPoint x="250" y="410" as="targetPoint" />
          </mxGeometry>
        </mxCell>
        <mxCell id="MP24_qXbwDW_fQga7Mwu-243" value="Controller - SystemInfo" style="text;html=1;align=center;verticalAlign=middle;whiteSpace=wrap;rounded=0;labelBackgroundColor=none;fontColor=#143642;" vertex="1" parent="MP24_qXbwDW_fQga7Mwu-213">
          <mxGeometry x="130" y="310" width="230" height="50" as="geometry" />
        </mxCell>
        <mxCell id="MP24_qXbwDW_fQga7Mwu-244" value="Converts the Image into a Base64 string&lt;div&gt;and returns it&lt;/div&gt;" style="whiteSpace=wrap;html=1;labelBackgroundColor=none;fillColor=#FAE5C7;strokeColor=#0F8B8D;fontColor=#143642;" vertex="1" parent="MP24_qXbwDW_fQga7Mwu-213">
          <mxGeometry x="530" y="120" width="120" height="60" as="geometry" />
        </mxCell>
        <mxCell id="MP24_qXbwDW_fQga7Mwu-247" style="edgeStyle=orthogonalEdgeStyle;rounded=0;orthogonalLoop=1;jettySize=auto;html=1;entryX=0.96;entryY=0.7;entryDx=0;entryDy=0;entryPerimeter=0;labelBackgroundColor=none;strokeColor=#A8201A;fontColor=default;" edge="1" parent="MP24_qXbwDW_fQga7Mwu-213" source="MP24_qXbwDW_fQga7Mwu-241" target="MP24_qXbwDW_fQga7Mwu-233">
          <mxGeometry relative="1" as="geometry">
            <Array as="points">
              <mxPoint x="400" y="520" />
              <mxPoint x="260" y="520" />
              <mxPoint x="260" y="468" />
            </Array>
          </mxGeometry>
        </mxCell>
        <mxCell id="MP24_qXbwDW_fQga7Mwu-228" style="edgeStyle=orthogonalEdgeStyle;rounded=0;orthogonalLoop=1;jettySize=auto;html=1;exitX=0.098;exitY=0.688;exitDx=0;exitDy=0;exitPerimeter=0;entryX=0.96;entryY=0.7;entryDx=0;entryDy=0;entryPerimeter=0;labelBackgroundColor=none;strokeColor=#A8201A;fontColor=default;" edge="1" parent="MP24_qXbwDW_fQga7Mwu-189" source="MP24_qXbwDW_fQga7Mwu-210" target="MP24_qXbwDW_fQga7Mwu-192">
          <mxGeometry relative="1" as="geometry">
            <Array as="points">
              <mxPoint x="859" y="210" />
              <mxPoint x="820" y="210" />
              <mxPoint x="820" y="218" />
            </Array>
          </mxGeometry>
        </mxCell>
        <mxCell id="MP24_qXbwDW_fQga7Mwu-229" style="edgeStyle=orthogonalEdgeStyle;rounded=0;orthogonalLoop=1;jettySize=auto;html=1;exitX=0.88;exitY=0.25;exitDx=0;exitDy=0;exitPerimeter=0;entryX=0.07;entryY=0.4;entryDx=0;entryDy=0;entryPerimeter=0;labelBackgroundColor=none;strokeColor=#A8201A;fontColor=default;" edge="1" parent="MP24_qXbwDW_fQga7Mwu-189" source="MP24_qXbwDW_fQga7Mwu-192" target="MP24_qXbwDW_fQga7Mwu-210">
          <mxGeometry relative="1" as="geometry" />
        </mxCell>
        <mxCell id="MP24_qXbwDW_fQga7Mwu-246" style="edgeStyle=orthogonalEdgeStyle;rounded=0;orthogonalLoop=1;jettySize=auto;html=1;labelBackgroundColor=none;strokeColor=#A8201A;fontColor=default;" edge="1" parent="MP24_qXbwDW_fQga7Mwu-189" source="MP24_qXbwDW_fQga7Mwu-244">
          <mxGeometry relative="1" as="geometry">
            <mxPoint x="1020" y="200" as="targetPoint" />
            <Array as="points">
              <mxPoint x="1430" y="240" />
              <mxPoint x="1080" y="240" />
              <mxPoint x="1080" y="200" />
            </Array>
          </mxGeometry>
        </mxCell>
        <mxCell id="MP24_qXbwDW_fQga7Mwu-251" value="" style="edgeStyle=orthogonalEdgeStyle;rounded=0;orthogonalLoop=1;jettySize=auto;html=1;labelBackgroundColor=none;strokeColor=#A8201A;fontColor=default;" edge="1" parent="MP24_qXbwDW_fQga7Mwu-189" source="MP24_qXbwDW_fQga7Mwu-232" target="MP24_qXbwDW_fQga7Mwu-250">
          <mxGeometry relative="1" as="geometry" />
        </mxCell>
        <mxCell id="MP24_qXbwDW_fQga7Mwu-252" style="edgeStyle=orthogonalEdgeStyle;rounded=0;orthogonalLoop=1;jettySize=auto;html=1;entryX=0.16;entryY=0.55;entryDx=0;entryDy=0;entryPerimeter=0;labelBackgroundColor=none;strokeColor=#A8201A;fontColor=default;" edge="1" parent="MP24_qXbwDW_fQga7Mwu-189" source="MP24_qXbwDW_fQga7Mwu-198" target="MP24_qXbwDW_fQga7Mwu-232">
          <mxGeometry relative="1" as="geometry">
            <Array as="points">
              <mxPoint x="510" y="476" />
            </Array>
          </mxGeometry>
        </mxCell>
        <mxCell id="MP24_qXbwDW_fQga7Mwu-231" value="&lt;h1 style=&quot;margin-top: 0px;&quot;&gt;General Flow&lt;/h1&gt;&lt;p&gt;&lt;/p&gt;&lt;ol&gt;&lt;li&gt;User enters the page and an image and information is displayed for them - Mostly used for Engineering Debug&lt;/li&gt;&lt;/ol&gt;&lt;p&gt;&lt;/p&gt;" style="text;html=1;whiteSpace=wrap;overflow=hidden;rounded=0;labelBackgroundColor=none;fontColor=#143642;" vertex="1" parent="1">
          <mxGeometry x="800" y="3210" width="740" height="120" as="geometry" />
        </mxCell>
        <mxCell id="MP24_qXbwDW_fQga7Mwu-253" value="Contact Support" style="swimlane;horizontal=0;whiteSpace=wrap;html=1;labelBackgroundColor=none;fillColor=#FAE5C7;strokeColor=#0F8B8D;fontColor=#143642;" vertex="1" parent="1">
          <mxGeometry x="-950" y="4010" width="1740" height="790" as="geometry" />
        </mxCell>
        <mxCell id="MP24_qXbwDW_fQga7Mwu-254" value="Client Portion" style="swimlane;whiteSpace=wrap;html=1;labelBackgroundColor=none;fillColor=#FAE5C7;strokeColor=#0F8B8D;fontColor=#143642;" vertex="1" parent="MP24_qXbwDW_fQga7Mwu-253">
          <mxGeometry x="40" y="20" width="800" height="750" as="geometry" />
        </mxCell>
        <mxCell id="MP24_qXbwDW_fQga7Mwu-255" value="" style="edgeStyle=orthogonalEdgeStyle;rounded=0;orthogonalLoop=1;jettySize=auto;html=1;labelBackgroundColor=none;strokeColor=#A8201A;fontColor=default;" edge="1" parent="MP24_qXbwDW_fQga7Mwu-254" source="MP24_qXbwDW_fQga7Mwu-256" target="MP24_qXbwDW_fQga7Mwu-263">
          <mxGeometry relative="1" as="geometry" />
        </mxCell>
        <mxCell id="MP24_qXbwDW_fQga7Mwu-256" value="Client Sends Request" style="ellipse;shape=cloud;whiteSpace=wrap;html=1;labelBackgroundColor=none;fillColor=#FAE5C7;strokeColor=#0F8B8D;fontColor=#143642;" vertex="1" parent="MP24_qXbwDW_fQga7Mwu-254">
          <mxGeometry x="580" y="110" width="190" height="125" as="geometry" />
        </mxCell>
        <mxCell id="MP24_qXbwDW_fQga7Mwu-257" value="" style="edgeStyle=orthogonalEdgeStyle;rounded=0;orthogonalLoop=1;jettySize=auto;html=1;labelBackgroundColor=none;strokeColor=#A8201A;fontColor=default;" edge="1" parent="MP24_qXbwDW_fQga7Mwu-254" source="MP24_qXbwDW_fQga7Mwu-258" target="MP24_qXbwDW_fQga7Mwu-260">
          <mxGeometry relative="1" as="geometry" />
        </mxCell>
        <mxCell id="MP24_qXbwDW_fQga7Mwu-258" value="Page is Entered" style="ellipse;whiteSpace=wrap;html=1;labelBackgroundColor=none;fillColor=#FAE5C7;strokeColor=#0F8B8D;fontColor=#143642;" vertex="1" parent="MP24_qXbwDW_fQga7Mwu-254">
          <mxGeometry x="10" y="140" width="120" height="80" as="geometry" />
        </mxCell>
        <mxCell id="MP24_qXbwDW_fQga7Mwu-259" value="" style="edgeStyle=orthogonalEdgeStyle;rounded=0;orthogonalLoop=1;jettySize=auto;html=1;labelBackgroundColor=none;strokeColor=#A8201A;fontColor=default;" edge="1" parent="MP24_qXbwDW_fQga7Mwu-254" source="MP24_qXbwDW_fQga7Mwu-260" target="MP24_qXbwDW_fQga7Mwu-261">
          <mxGeometry relative="1" as="geometry" />
        </mxCell>
        <mxCell id="MP24_qXbwDW_fQga7Mwu-260" value="User Enters The Page and fills out their request" style="whiteSpace=wrap;html=1;labelBackgroundColor=none;fillColor=#FAE5C7;strokeColor=#0F8B8D;fontColor=#143642;" vertex="1" parent="MP24_qXbwDW_fQga7Mwu-254">
          <mxGeometry x="210" y="150" width="120" height="60" as="geometry" />
        </mxCell>
        <mxCell id="MP24_qXbwDW_fQga7Mwu-261" value="HTTPGet Is Created And Sent" style="whiteSpace=wrap;html=1;labelBackgroundColor=none;fillColor=#FAE5C7;strokeColor=#0F8B8D;fontColor=#143642;" vertex="1" parent="MP24_qXbwDW_fQga7Mwu-254">
          <mxGeometry x="410" y="150" width="120" height="60" as="geometry" />
        </mxCell>
        <mxCell id="MP24_qXbwDW_fQga7Mwu-262" style="edgeStyle=orthogonalEdgeStyle;rounded=0;orthogonalLoop=1;jettySize=auto;html=1;entryX=0.16;entryY=0.55;entryDx=0;entryDy=0;entryPerimeter=0;labelBackgroundColor=none;strokeColor=#A8201A;fontColor=default;" edge="1" parent="MP24_qXbwDW_fQga7Mwu-254" source="MP24_qXbwDW_fQga7Mwu-261" target="MP24_qXbwDW_fQga7Mwu-256">
          <mxGeometry relative="1" as="geometry" />
        </mxCell>
        <mxCell id="MP24_qXbwDW_fQga7Mwu-263" value="Return to main Selection Page" style="whiteSpace=wrap;html=1;labelBackgroundColor=none;fillColor=#FAE5C7;strokeColor=#0F8B8D;fontColor=#143642;" vertex="1" parent="MP24_qXbwDW_fQga7Mwu-254">
          <mxGeometry x="615" y="270" width="120" height="60" as="geometry" />
        </mxCell>
        <mxCell id="MP24_qXbwDW_fQga7Mwu-265" value="HTTPGet" style="edgeStyle=orthogonalEdgeStyle;rounded=0;orthogonalLoop=1;jettySize=auto;html=1;exitX=0.875;exitY=0.5;exitDx=0;exitDy=0;exitPerimeter=0;entryX=0;entryY=0.5;entryDx=0;entryDy=0;labelBackgroundColor=none;strokeColor=#A8201A;fontColor=default;" edge="1" parent="MP24_qXbwDW_fQga7Mwu-253" source="MP24_qXbwDW_fQga7Mwu-266" target="MP24_qXbwDW_fQga7Mwu-271">
          <mxGeometry x="-0.2981" relative="1" as="geometry">
            <mxPoint as="offset" />
            <Array as="points" />
          </mxGeometry>
        </mxCell>
        <mxCell id="MP24_qXbwDW_fQga7Mwu-266" value="Client Request Recieved" style="ellipse;shape=cloud;whiteSpace=wrap;html=1;labelBackgroundColor=none;fillColor=#FAE5C7;strokeColor=#0F8B8D;fontColor=#143642;" vertex="1" parent="MP24_qXbwDW_fQga7Mwu-253">
          <mxGeometry x="840" y="122.5" width="190" height="125" as="geometry" />
        </mxCell>
        <mxCell id="MP24_qXbwDW_fQga7Mwu-267" value="" style="endArrow=none;dashed=1;html=1;dashPattern=1 3;strokeWidth=2;rounded=0;labelBackgroundColor=none;strokeColor=#A8201A;fontColor=default;" edge="1" parent="MP24_qXbwDW_fQga7Mwu-253" target="MP24_qXbwDW_fQga7Mwu-268">
          <mxGeometry width="50" height="50" relative="1" as="geometry">
            <mxPoint x="1065" y="180" as="sourcePoint" />
            <mxPoint x="1070" y="150" as="targetPoint" />
          </mxGeometry>
        </mxCell>
        <mxCell id="MP24_qXbwDW_fQga7Mwu-268" value="&lt;div&gt;Controller - EmailController&lt;/div&gt;" style="text;html=1;align=center;verticalAlign=middle;whiteSpace=wrap;rounded=0;labelBackgroundColor=none;fontColor=#143642;" vertex="1" parent="MP24_qXbwDW_fQga7Mwu-253">
          <mxGeometry x="950" y="50" width="230" height="50" as="geometry" />
        </mxCell>
        <mxCell id="MP24_qXbwDW_fQga7Mwu-269" value="Server Portion" style="swimlane;whiteSpace=wrap;html=1;labelBackgroundColor=none;fillColor=#FAE5C7;strokeColor=#0F8B8D;fontColor=#143642;" vertex="1" parent="MP24_qXbwDW_fQga7Mwu-253">
          <mxGeometry x="840" y="20" width="880" height="750" as="geometry" />
        </mxCell>
        <mxCell id="MP24_qXbwDW_fQga7Mwu-271" value="Data is parsed out and sent over a SMTP server to our support engineer" style="whiteSpace=wrap;html=1;labelBackgroundColor=none;fillColor=#FAE5C7;strokeColor=#0F8B8D;fontColor=#143642;" vertex="1" parent="MP24_qXbwDW_fQga7Mwu-269">
          <mxGeometry x="350" y="135" width="120" height="60" as="geometry" />
        </mxCell>
        <mxCell id="MP24_qXbwDW_fQga7Mwu-282" style="edgeStyle=orthogonalEdgeStyle;rounded=0;orthogonalLoop=1;jettySize=auto;html=1;exitX=0.098;exitY=0.688;exitDx=0;exitDy=0;exitPerimeter=0;entryX=0.96;entryY=0.7;entryDx=0;entryDy=0;entryPerimeter=0;labelBackgroundColor=none;strokeColor=#A8201A;fontColor=default;" edge="1" parent="MP24_qXbwDW_fQga7Mwu-253" source="MP24_qXbwDW_fQga7Mwu-266" target="MP24_qXbwDW_fQga7Mwu-256">
          <mxGeometry relative="1" as="geometry">
            <Array as="points">
              <mxPoint x="859" y="210" />
              <mxPoint x="820" y="210" />
              <mxPoint x="820" y="218" />
            </Array>
          </mxGeometry>
        </mxCell>
        <mxCell id="MP24_qXbwDW_fQga7Mwu-283" style="edgeStyle=orthogonalEdgeStyle;rounded=0;orthogonalLoop=1;jettySize=auto;html=1;exitX=0.88;exitY=0.25;exitDx=0;exitDy=0;exitPerimeter=0;entryX=0.07;entryY=0.4;entryDx=0;entryDy=0;entryPerimeter=0;labelBackgroundColor=none;strokeColor=#A8201A;fontColor=default;" edge="1" parent="MP24_qXbwDW_fQga7Mwu-253" source="MP24_qXbwDW_fQga7Mwu-256" target="MP24_qXbwDW_fQga7Mwu-266">
          <mxGeometry relative="1" as="geometry" />
        </mxCell>
        <mxCell id="MP24_qXbwDW_fQga7Mwu-287" value="&lt;h1 style=&quot;margin-top: 0px;&quot;&gt;General Flow&lt;/h1&gt;&lt;p&gt;&lt;/p&gt;&lt;ol&gt;&lt;li&gt;User enters the page and fills out their support inquiry.&lt;/li&gt;&lt;/ol&gt;&lt;p&gt;&lt;/p&gt;" style="text;html=1;whiteSpace=wrap;overflow=hidden;rounded=0;labelBackgroundColor=none;fontColor=#143642;" vertex="1" parent="1">
          <mxGeometry x="800" y="4010" width="740" height="120" as="geometry" />
        </mxCell>
        <mxCell id="MP24_qXbwDW_fQga7Mwu-293" value="" style="endArrow=none;dashed=1;html=1;dashPattern=1 3;strokeWidth=2;rounded=0;entryX=0;entryY=0.5;entryDx=0;entryDy=0;exitX=0.193;exitY=0.249;exitDx=0;exitDy=0;exitPerimeter=0;labelBackgroundColor=none;strokeColor=#A8201A;fontColor=default;" edge="1" parent="1" source="MP24_qXbwDW_fQga7Mwu-5" target="MP24_qXbwDW_fQga7Mwu-6">
          <mxGeometry width="50" height="50" relative="1" as="geometry">
            <mxPoint x="-1350" y="270" as="sourcePoint" />
            <mxPoint x="-1300" y="220" as="targetPoint" />
            <Array as="points">
              <mxPoint x="-2150" y="-415" />
            </Array>
          </mxGeometry>
        </mxCell>
        <mxCell id="MP24_qXbwDW_fQga7Mwu-294" value="" style="endArrow=none;dashed=1;html=1;dashPattern=1 3;strokeWidth=2;rounded=0;entryX=0;entryY=0.5;entryDx=0;entryDy=0;exitX=0.193;exitY=0.249;exitDx=0;exitDy=0;exitPerimeter=0;labelBackgroundColor=none;strokeColor=#A8201A;fontColor=default;" edge="1" parent="1" target="QFYjU4arNapdDsSCycNz-12">
          <mxGeometry width="50" height="50" relative="1" as="geometry">
            <mxPoint x="-1960" y="725" as="sourcePoint" />
            <mxPoint x="-760" y="-420" as="targetPoint" />
            <Array as="points">
              <mxPoint x="-1960" y="398" />
            </Array>
          </mxGeometry>
        </mxCell>
        <mxCell id="MP24_qXbwDW_fQga7Mwu-295" value="" style="endArrow=none;dashed=1;html=1;dashPattern=1 3;strokeWidth=2;rounded=0;entryX=0;entryY=0.5;entryDx=0;entryDy=0;exitX=0.193;exitY=0.249;exitDx=0;exitDy=0;exitPerimeter=0;labelBackgroundColor=none;strokeColor=#A8201A;fontColor=default;" edge="1" parent="1" target="MP24_qXbwDW_fQga7Mwu-64">
          <mxGeometry width="50" height="50" relative="1" as="geometry">
            <mxPoint x="-1770" y="727" as="sourcePoint" />
            <mxPoint x="-760" y="400" as="targetPoint" />
            <Array as="points">
              <mxPoint x="-1770" y="490" />
              <mxPoint x="-1250" y="490" />
              <mxPoint x="-1250" y="1210" />
            </Array>
          </mxGeometry>
        </mxCell>
        <mxCell id="MP24_qXbwDW_fQga7Mwu-296" value="" style="endArrow=none;dashed=1;html=1;dashPattern=1 3;strokeWidth=2;rounded=0;entryX=0;entryY=0.5;entryDx=0;entryDy=0;exitX=0.193;exitY=0.249;exitDx=0;exitDy=0;exitPerimeter=0;labelBackgroundColor=none;strokeColor=#A8201A;fontColor=default;" edge="1" parent="1" target="aFHCa9Fqep3gOD8w5vNJ-30">
          <mxGeometry width="50" height="50" relative="1" as="geometry">
            <mxPoint x="-2150" y="917" as="sourcePoint" />
            <mxPoint x="-1330" y="1395" as="targetPoint" />
            <Array as="points">
              <mxPoint x="-2150" y="860" />
              <mxPoint x="-1290" y="870" />
              <mxPoint x="-1280" y="2000" />
            </Array>
          </mxGeometry>
        </mxCell>
        <mxCell id="MP24_qXbwDW_fQga7Mwu-297" value="" style="endArrow=none;dashed=1;html=1;dashPattern=1 3;strokeWidth=2;rounded=0;entryX=0;entryY=0.5;entryDx=0;entryDy=0;exitX=0.193;exitY=0.249;exitDx=0;exitDy=0;exitPerimeter=0;labelBackgroundColor=none;strokeColor=#A8201A;fontColor=default;" edge="1" parent="1" target="MP24_qXbwDW_fQga7Mwu-128">
          <mxGeometry width="50" height="50" relative="1" as="geometry">
            <mxPoint x="-1960" y="917" as="sourcePoint" />
            <mxPoint x="-760" y="2005" as="targetPoint" />
            <Array as="points">
              <mxPoint x="-1960" y="880" />
              <mxPoint x="-1370" y="880" />
              <mxPoint x="-1360" y="2805" />
            </Array>
          </mxGeometry>
        </mxCell>
        <mxCell id="MP24_qXbwDW_fQga7Mwu-298" value="" style="endArrow=none;dashed=1;html=1;dashPattern=1 3;strokeWidth=2;rounded=0;entryX=0;entryY=0.5;entryDx=0;entryDy=0;exitX=0.193;exitY=0.249;exitDx=0;exitDy=0;exitPerimeter=0;labelBackgroundColor=none;strokeColor=#A8201A;fontColor=default;" edge="1" parent="1" target="MP24_qXbwDW_fQga7Mwu-189">
          <mxGeometry width="50" height="50" relative="1" as="geometry">
            <mxPoint x="-1770" y="917" as="sourcePoint" />
            <mxPoint x="-760" y="2805" as="targetPoint" />
            <Array as="points">
              <mxPoint x="-1770" y="900" />
              <mxPoint x="-1420" y="900" />
              <mxPoint x="-1420" y="3610" />
            </Array>
          </mxGeometry>
        </mxCell>
        <mxCell id="MP24_qXbwDW_fQga7Mwu-299" value="" style="endArrow=none;dashed=1;html=1;dashPattern=1 3;strokeWidth=2;rounded=0;entryX=0;entryY=0.5;entryDx=0;entryDy=0;exitX=0.803;exitY=0.884;exitDx=0;exitDy=0;exitPerimeter=0;labelBackgroundColor=none;strokeColor=#A8201A;fontColor=default;" edge="1" parent="1" source="MP24_qXbwDW_fQga7Mwu-5" target="MP24_qXbwDW_fQga7Mwu-253">
          <mxGeometry width="50" height="50" relative="1" as="geometry">
            <mxPoint x="-710" y="4050" as="sourcePoint" />
            <mxPoint x="-660" y="4000" as="targetPoint" />
            <Array as="points">
              <mxPoint x="-1750" y="4405" />
            </Array>
          </mxGeometry>
        </mxCell>
      </root>
    </mxGraphModel>
  </diagram>
</mxfile>
